<svg version="1.1" id="Layer_1" xmlns="http://www.w3.org/2000/svg" x="0" y="0" viewBox="0 0 185 52" xml:space="preserve"><style>.st0{fill:#f01539}</style><g id="g3568_3_" transform="translate(81.073 -183.889) scale(1.0477)"><path id="path3072_3_" d="M10.1 223.8c0-.6-.1-1.1-.1-1.7-.8 1.3-1.8 1.9-3.3 1.9-2.1 0-3.9-1-3.9-3.3 0-3.2 3.5-3.6 5.4-3.6.6 0 1.2 0 1.7.1 0-1.4-1.1-1.8-2.4-1.8-1.2 0-2.3.2-3.4.8v-2.5c1.3-.5 2.7-.8 4.2-.8 2.7 0 5 1.1 5 4.4v3.9c0 .8 0 1.7.2 2.5h-3.4zm-2.5-2.1c1.4 0 2.2-1.2 2.2-2.5H8.3c-1.2 0-2.2.4-2.2 1.4 0 .6.7 1.1 1.5 1.1z"/><path id="path3076_3_" d="M26 223.8h-3.4v-1.9c-.5 1.2-1.9 2.1-3.6 2.1-3.1 0-4.8-2.6-4.8-5.7 0-2.6 1.6-5.3 4.5-5.3 1.5 0 2.7.4 3.6 1.6v-6H26v15.2zm-5.8-2.5c1.2 0 2.2-1.1 2.2-2.7s-.9-2.7-2.2-2.7c-1.4 0-2.2 1.2-2.2 2.6 0 1.6.8 2.8 2.2 2.8z"/><path id="path3080_3_" d="M27.8 213.4h3.3v1.9c.7-1.5 2.2-2.2 3.8-2.2 2.8 0 4 2 4 4.2v6.5h-3.6v-5.1c0-2-.7-2.7-1.7-2.7-1.5 0-2.3 1-2.3 3.3v4.5h-3.6l.1-10.4z"/><path id="path3084_3_" d="M40.9 208.7h1.9v9l4.1-4.2h2.6l-4.8 4.5 5.4 5.7h-2.7l-4.6-5.3v5.3H41l-.1-15z"/><path id="path3088_3_" d="M50.9 213.5h1.8v1.6c.5-1.1 1.6-1.8 2.7-1.8.6 0 .9 0 1.2.1v1.7c-.3-.1-.7-.2-1-.2-1.7 0-2.8 1.6-2.8 4.2v4.7h-1.9v-10.3z"/><path id="path3092_3_" d="M62.1 213.3c3.1 0 5.2 2.3 5.2 5.4 0 2.9-2.1 5.4-5.2 5.4s-5.3-2.4-5.3-5.4c0-3.1 2.2-5.4 5.3-5.4zm0 9.3c2.2 0 3.2-2 3.2-3.8 0-1.9-1.2-3.8-3.2-3.8s-3.2 1.9-3.2 3.8c0 1.8 1 3.8 3.2 3.8z"/><path id="path3096_3_" d="M68.6 213.5h1.8v1.6c.6-1.2 1.9-1.9 3.4-1.9 2.7 0 3.8 1.7 3.8 4.4v6.1h-1.9v-5.3c0-2.4-.5-3.6-2.2-3.7-2.2 0-3.1 1.8-3.1 4.2v4.7h-1.9v-10.1z"/><path id="path3100_3_" d="M84.3 213.3c3.1 0 5.2 2.3 5.2 5.4 0 2.9-2.1 5.4-5.2 5.4s-5.3-2.4-5.3-5.4c.1-3.1 2.1-5.4 5.3-5.4zm0 9.3c2.2 0 3.2-2 3.2-3.8 0-1.9-1.2-3.8-3.2-3.8s-3.2 1.9-3.2 3.8c0 1.8 1 3.8 3.2 3.8z"/><path id="path3104_3_" d="M90.5 221.8c.8.5 1.8.7 2.4.7.9 0 1.9-.4 1.9-1.5 0-1.9-4.5-1.7-4.5-4.6 0-2.1 1.6-3.2 3.6-3.2.9 0 1.6.2 2.4.4l-.1 1.7c-.4-.2-1.6-.5-2-.5-.9 0-1.8.4-1.8 1.2 0 2.1 4.5 1.5 4.5 4.8 0 2.2-1.8 3.2-3.6 3.2-.9 0-1.9-.1-2.8-.6v-1.6z"/><path id="path3108_7_" class="st0" d="M-32.7 179.4c0-1.6 1.3-2.9 2.9-2.9h19.1c1.6 0 2.9 1.3 2.9 2.9 0 .6-.2 1.2-.6 1.7l-9.9 13.5c-.4.5-.6 1.1-.6 1.7 0 .7.2 1.2.6 1.7l15.6 21.2c.3.5.6 1 .6 1.7 0 1.6-1.3 2.9-2.9 2.9h-24.8c-1.6 0-2.9-1.3-2.9-2.9v-41.5z"/><path id="path3112_7_" class="st0" d="M-41.6 176.5c-.9 0-1.8.4-2.3 1.1l-30.7 41.6c-.3.5-.5 1-.5 1.6 0 1.6 1.3 2.9 2.9 2.9h30.6c1.6 0 2.9-1.3 2.9-2.9v-41.5c0-1.5-1.3-2.8-2.9-2.8z"/></g></svg>