<svg version="1.1" id="BolsamaniaLogo" xmlns="http://www.w3.org/2000/svg" xmlns:xlink="http://www.w3.org/1999/xlink" x="0px" y="0px"
                    viewBox="0 0 436.54 70.87" style="enable-background:new 0 0 436.54 70.87;" xml:space="preserve">
                    <style type="text/css">
                        @media (max-width: 240px) {
                            .st0, .st1, .st2 {
                                fill: #fff!important;
                            }
                        }
                    </style>
               <g>
                   <path fill="#333"   class="st0" d="M378.82,18.23L378.82,18.23c1.54,0,2.79,1.26,2.79,2.79v46.13c0,1.54-1.26,2.79-2.79,2.79l0,0
                       c-1.54,0-2.79-1.26-2.79-2.79V21.03C376.03,19.49,377.28,18.23,378.82,18.23L378.82,18.23z"/>
                   <path fill="#333"  class="st0" d="M377.42,15.57L377.42,15.57c1.33,0.77,3.05,0.31,3.81-1.02l5.25-9.09c0.77-1.33,0.31-3.05-1.02-3.81l0,0
                       c-1.33-0.77-3.05-0.31-3.81,1.02l-5.25,9.09C375.63,13.09,376.09,14.8,377.42,15.57L377.42,15.57z"/>
                   <path  fill="#fc611e" class="st1" d="M9.08,1.79c-2.79,0-4.98,0.91-6.54,2.73C1.15,6.14,0.45,8.17,0.45,10.6v49.32c0,2.37,0.7,4.37,2.09,6
                       c1.57,1.81,3.75,2.73,6.52,2.73h21.51c5.94,0,10.65-1.97,14.17-5.9c3.15-3.52,4.71-7.81,4.71-12.89c0-3.94-1.05-7.39-3.16-10.35
                       c-1.88-2.73-4.48-4.88-7.81-6.46c2.54-1.5,4.48-3.47,5.81-5.9c1.39-2.36,2.09-5.05,2.09-8.07c0-4.66-1.46-8.63-4.36-11.9
                       c-3.21-3.58-7.47-5.36-12.8-5.36H9.08L9.08,1.79z M28.67,31.08H6.12V10.99c0-1.15,0.29-2.09,0.9-2.82C7.75,7.32,8.77,6.9,10.1,6.9
                       h18.57c3.8,0,6.79,1.24,8.96,3.72c2.06,2.25,3.08,5.04,3.08,8.37c0,3.21-1.02,5.97-3.08,8.28C35.4,29.81,32.41,31.08,28.67,31.08
                       L28.67,31.08z M30.47,63.53H10.1c-1.33,0-2.36-0.42-3.08-1.27c-0.6-0.73-0.9-1.63-0.9-2.71V36.1h23.9c4.23,0,7.64,1.43,10.23,4.26
                       c2.36,2.59,3.53,5.75,3.53,9.5c0,3.74-1.12,6.88-3.35,9.41C37.95,62.11,34.64,63.53,30.47,63.53L30.47,63.53z"/>
                   <path  fill="#fc611e" class="st1" d="M76.26,18.62c-7.19,0-12.82,2.67-16.88,8c-3.56,4.73-5.35,10.69-5.35,17.9c0,7.14,1.78,13.08,5.35,17.81
                       c4.06,5.39,9.69,8.09,16.88,8.09c7.13,0,12.72-2.7,16.78-8.09c3.63-4.73,5.44-10.66,5.44-17.81c0-7.21-1.81-13.17-5.44-17.9
                       C88.98,21.28,83.39,18.62,76.26,18.62L76.26,18.62z M76.26,23.64c5.3,0,9.44,2.15,12.38,6.45c2.71,3.81,4.08,8.62,4.08,14.43
                       c0,5.69-1.36,10.46-4.08,14.34c-2.94,4.29-7.08,6.45-12.38,6.45c-5.36,0-9.56-2.15-12.57-6.45c-2.59-3.81-3.89-8.59-3.89-14.34
                       c0-5.81,1.3-10.62,3.89-14.43C66.69,25.79,70.89,23.64,76.26,23.64L76.26,23.64z"/>
                   <path  fill="#fc611e" class="st1" d="M105.91,2.93v64.47c0,0.85,0.28,1.55,0.82,2.09c0.56,0.48,1.22,0.73,2.01,0.73c0.73,0,1.38-0.25,1.92-0.73
                       c0.6-0.48,0.91-1.15,0.91-2V3.03c0-0.91-0.31-1.61-0.91-2.09c-0.54-0.42-1.19-0.64-1.92-0.64c-0.79,0-1.46,0.22-2.01,0.64
                       C106.19,1.41,105.91,2.08,105.91,2.93L105.91,2.93z"/>
                   <path  fill="#fc611e" class="st1" d="M136.19,18.43c-4.9,0-8.87,1.08-11.9,3.27c-3.21,2.29-4.8,5.47-4.8,9.53c0,3.75,1.33,6.76,4,8.99
                       c2.42,2.12,6.32,3.87,11.7,5.27c5.94,1.46,10,3.05,12.17,4.82c1.81,1.38,2.73,3.33,2.73,5.81c0,2.67-1.05,4.77-3.16,6.35
                       c-2.23,1.75-5.3,2.63-9.22,2.63c-4.7,0-8.11-0.88-10.21-2.63c-1.98-1.64-2.98-4.03-2.98-7.19c-0.06-0.84-0.4-1.47-1.02-1.91
                       c-0.56-0.42-1.24-0.6-2.05-0.54c-0.81,0-1.46,0.25-1.95,0.73c-0.56,0.54-0.81,1.24-0.74,2.09c0.19,4.74,1.88,8.35,5.08,10.83
                       c3.21,2.5,7.8,3.73,13.79,3.73c5.98,0,10.57-1.39,13.78-4.18c2.96-2.5,4.45-5.77,4.45-9.83c0-4.06-1.24-7.25-3.72-9.55
                       c-2.6-2.5-7.08-4.46-13.44-5.92c-5.21-1.33-8.77-2.74-10.71-4.26c-1.81-1.44-2.73-3.41-2.73-5.87c0-2.12,1.02-3.87,3.08-5.25
                       c2.06-1.27,4.63-1.91,7.72-1.91c4.06,0,7.11,0.76,9.18,2.26c1.94,1.39,3.02,3.43,3.27,6.08c0.06,0.85,0.42,1.52,1.08,2
                       c0.6,0.42,1.29,0.6,2.08,0.54c0.84-0.12,1.53-0.42,2.08-0.91c0.59-0.6,0.87-1.33,0.81-2.17c-0.31-3.7-1.8-6.66-4.46-8.91
                       C146.93,19.73,142.29,18.43,136.19,18.43L136.19,18.43z"/>
                   <path  fill="#fc611e" class="st1" d="M194.13,56.94c-1.39,2.48-3.41,4.42-6.08,5.81c-2.96,1.57-6.52,2.36-10.69,2.36c-3.69,0-6.4-0.79-8.15-2.36
                       c-1.67-1.46-2.51-3.67-2.51-6.63c0-3.08,0.9-5.42,2.71-6.99c1.88-1.7,5.07-2.85,9.59-3.46c4.54-0.6,8.09-1.3,10.69-2.09
                       c2.11-0.67,3.6-1.36,4.43-2.09V56.94L194.13,56.94z M181.71,18.43c-5.08,0-9.18,1.12-12.27,3.36c-3.15,2.37-5.08,5.89-5.81,10.55
                       c-0.19,0.91,0,1.64,0.54,2.19c0.5,0.54,1.1,0.85,1.83,0.91c0.81,0.06,1.47-0.12,2.01-0.54c0.68-0.43,1.07-1.04,1.19-1.81
                       c0.31-3.04,1.36-5.33,3.18-6.91c2.05-1.81,5.13-2.73,9.24-2.73c4.23,0,7.41,0.79,9.52,2.36c2,1.5,2.99,3.74,2.99,6.7
                       c0,2.6-0.91,4.39-2.73,5.35c-1.88,1.02-6.04,2-12.51,2.9c-7.32,0.91-12.37,2.94-15.16,6.09c-1.88,2.19-2.81,5.28-2.81,9.28
                       c0,4.43,1.36,7.86,4.09,10.28c2.79,2.56,6.91,3.83,12.35,3.83c4,0,7.56-0.7,10.71-2.11c2.31-1.04,4.37-2.43,6.18-4.18
                       c0,1.88,0.54,3.21,1.63,4c1.33,0.85,3.72,1.27,7.18,1.27c0.85,0,1.52-0.28,2-0.82c0.42-0.5,0.64-1.07,0.64-1.74
                       c-0.06-0.73-0.31-1.33-0.73-1.83c-0.48-0.48-1.08-0.73-1.81-0.73c-1.08,0-1.94-0.31-2.54-0.91c-0.54-0.54-0.82-1.32-0.82-2.36
                       V32.05c0-4.79-1.75-8.32-5.27-10.63C191.44,19.42,187.17,18.43,181.71,18.43L181.71,18.43z"/>
                   <path fill="#333"  class="st2" d="M209.18,22.26v45.15c0,0.85,0.28,1.55,0.82,2.09c0.56,0.48,1.22,0.73,2.01,0.73c0.73,0,1.38-0.25,1.92-0.73
                       c0.6-0.54,0.91-1.24,0.91-2.09V32.18c1.98-3.16,4.11-5.39,6.34-6.73c2.23-1.33,4.94-2,8.14-2c2.9,0,5.19,0.85,6.88,2.54
                       c1.5,1.58,2.26,3.66,2.26,6.26v35.15c0,0.85,0.28,1.55,0.82,2.09c0.56,0.48,1.22,0.73,2.01,0.73c0.73,0,1.38-0.25,1.92-0.73
                       c0.6-0.54,0.91-1.24,0.91-2.09V32.98c1.75-3.38,3.7-5.81,5.89-7.25c2.17-1.52,4.97-2.28,8.42-2.28c3.01,0,5.33,0.85,6.96,2.54
                       c1.5,1.58,2.26,3.66,2.26,6.26v35.15c0,0.85,0.28,1.55,0.82,2.09c0.56,0.48,1.22,0.73,2.01,0.73c0.73,0,1.38-0.25,1.92-0.73
                       c0.6-0.54,0.91-1.24,0.91-2.09V31.34c0-3.27-1.24-6.15-3.72-8.63c-2.85-2.85-6.63-4.28-11.36-4.28c-3.44,0-6.56,0.79-9.35,2.36
                       c-2.54,1.4-4.6,3.33-6.18,5.81c-1.08-2.29-2.51-4.11-4.26-5.44c-2.48-1.81-5.58-2.73-9.31-2.73c-2.96,0-5.86,0.79-8.69,2.37
                       c-2.29,1.27-4.17,2.88-5.61,4.82v-3.36c0-1.02-0.31-1.81-0.91-2.36c-0.54-0.54-1.19-0.82-1.92-0.82c-0.79,0-1.46,0.28-2.01,0.82
                       C209.46,20.45,209.18,21.24,209.18,22.26L209.18,22.26z"/>
                   <path fill="#333"  class="st2" d="M313.58,56.94c-1.39,2.48-3.41,4.42-6.08,5.81c-2.96,1.57-6.52,2.36-10.69,2.36c-3.69,0-6.4-0.79-8.15-2.36
                       c-1.67-1.46-2.51-3.67-2.51-6.63c0-3.08,0.9-5.42,2.71-6.99c1.88-1.7,5.07-2.85,9.59-3.46c4.54-0.6,8.09-1.3,10.69-2.09
                       c2.11-0.67,3.6-1.36,4.43-2.09V56.94L313.58,56.94z M301.17,18.43c-5.08,0-9.17,1.12-12.27,3.36c-3.15,2.37-5.08,5.89-5.81,10.55
                       c-0.19,0.91,0,1.64,0.54,2.19c0.5,0.54,1.1,0.85,1.83,0.91c0.81,0.06,1.47-0.12,2.01-0.54c0.68-0.43,1.07-1.04,1.19-1.81
                       c0.31-3.04,1.36-5.33,3.18-6.91c2.05-1.81,5.13-2.73,9.24-2.73c4.23,0,7.41,0.79,9.52,2.36c2,1.5,2.99,3.74,2.99,6.7
                       c0,2.6-0.91,4.39-2.73,5.35c-1.88,1.02-6.04,2-12.51,2.9c-7.32,0.91-12.37,2.94-15.16,6.09c-1.88,2.19-2.81,5.28-2.81,9.28
                       c0,4.43,1.36,7.86,4.09,10.28c2.79,2.56,6.91,3.83,12.35,3.83c4,0,7.56-0.7,10.71-2.11c2.31-1.04,4.37-2.43,6.18-4.18
                       c0,1.88,0.54,3.21,1.63,4c1.33,0.85,3.72,1.27,7.18,1.27c0.85,0,1.52-0.28,2-0.82c0.42-0.5,0.64-1.07,0.64-1.74
                       c-0.06-0.73-0.31-1.33-0.73-1.83c-0.48-0.48-1.08-0.73-1.81-0.73c-1.08,0-1.94-0.31-2.54-0.91c-0.54-0.54-0.82-1.32-0.82-2.36
                       V32.05c0-4.79-1.75-8.32-5.27-10.63C310.9,19.42,306.63,18.43,301.17,18.43L301.17,18.43z"/>
                   <path fill="#333" class="st2" d="M328.64,22.09v45.15c0,0.96,0.28,1.72,0.82,2.26c0.56,0.54,1.22,0.82,2.01,0.82c0.73-0.06,1.38-0.34,1.92-0.82
                       c0.6-0.6,0.91-1.39,0.91-2.36V34.81c2.11-3.89,4.59-6.76,7.42-8.63c2.71-1.81,5.78-2.73,9.22-2.73c3.13,0,5.64,0.96,7.52,2.9
                       c1.69,1.7,2.53,3.86,2.53,6.46v34.42c0,0.9,0.28,1.66,0.82,2.26c0.56,0.48,1.22,0.73,2.01,0.73c0.73,0,1.38-0.25,1.92-0.73
                       c0.6-0.6,0.91-1.36,0.91-2.28V32.78c0-3.94-1.33-7.24-3.98-9.9c-2.91-2.96-6.8-4.45-11.7-4.45c-3.8,0-7.13,0.82-9.97,2.46
                       c-2.73,1.58-4.96,3.84-6.71,6.82v-5.64c0-0.9-0.31-1.63-0.91-2.17c-0.54-0.48-1.19-0.73-1.92-0.73c-0.79,0-1.46,0.25-2.01,0.73
                       C328.92,20.45,328.64,21.17,328.64,22.09L328.64,22.09z"/>
                   <path fill="#333"  class="st2" d="M423.9,56.94c-1.39,2.48-3.41,4.42-6.08,5.81c-2.96,1.57-6.52,2.36-10.69,2.36c-3.69,0-6.4-0.79-8.15-2.36
                       c-1.67-1.46-2.51-3.67-2.51-6.63c0-3.08,0.9-5.42,2.71-6.99c1.88-1.7,5.07-2.85,9.59-3.46c4.54-0.6,8.09-1.3,10.69-2.09
                       c2.11-0.67,3.6-1.36,4.43-2.09V56.94L423.9,56.94z M411.48,18.43c-5.08,0-9.18,1.12-12.27,3.36c-3.15,2.37-5.08,5.89-5.81,10.55
                       c-0.19,0.91,0,1.64,0.54,2.19c0.5,0.54,1.1,0.85,1.83,0.91c0.81,0.06,1.47-0.12,2.01-0.54c0.68-0.43,1.07-1.04,1.19-1.81
                       c0.31-3.04,1.36-5.33,3.18-6.91c2.05-1.81,5.13-2.73,9.24-2.73c4.23,0,7.41,0.79,9.52,2.36c2,1.5,2.99,3.74,2.99,6.7
                       c0,2.6-0.91,4.39-2.73,5.35c-1.88,1.02-6.04,2-12.51,2.9c-7.32,0.91-12.37,2.94-15.16,6.09c-1.88,2.19-2.81,5.28-2.81,9.28
                       c0,4.43,1.36,7.86,4.09,10.28c2.79,2.56,6.91,3.83,12.35,3.83c4,0,7.56-0.7,10.71-2.11c2.31-1.04,4.37-2.43,6.18-4.18
                       c0,1.88,0.54,3.21,1.63,4c1.33,0.85,3.72,1.27,7.18,1.27c0.85,0,1.52-0.28,2-0.82c0.42-0.5,0.64-1.07,0.64-1.74
                       c-0.06-0.73-0.31-1.33-0.73-1.83c-0.48-0.48-1.08-0.73-1.81-0.73c-1.08,0-1.94-0.31-2.54-0.91c-0.54-0.54-0.82-1.32-0.82-2.36
                       V32.05c0-4.79-1.75-8.32-5.27-10.63C421.22,19.42,416.94,18.43,411.48,18.43L411.48,18.43z"/>
               </g>
               </svg>