<svg id="Logo_C" data-name="Logo C" xmlns="http://www.w3.org/2000/svg" viewBox="0 0 1295.32 260.21"><defs><style>.cls-1{fill:#505451;}.cls-2{fill:#d22b2b;}</style></defs><polygon class="cls-1" points="801.48 0 760.53 20.5 760.53 1.55 721.59 1.36 721.59 37.48 688.77 56.41 688.77 81.64 801.82 27.68 916.07 79.58 916.07 54.08 801.48 0"/><path class="cls-2" d="M41.47,107.25H81.58v55.23a55.61,55.61,0,0,1,13.48-12.6q8.09-5.46,20.12-5.46,18.36,0,28.61,11.13T154,186.21v74.34H113.92V199q0-9.45-4.36-14.28a14.61,14.61,0,0,0-11.4-4.83,15.85,15.85,0,0,0-11.92,4.83q-4.67,4.84-4.66,14.28v61.53H41.47Z" transform="translate(-41.47 -31.73)"/><path class="cls-2" d="M232.56,263.28a66.41,66.41,0,0,1-25.09-4.62A61.45,61.45,0,0,1,187.62,246,57.24,57.24,0,0,1,170,204.27v-.42a56.79,56.79,0,0,1,4.73-23A58.41,58.41,0,0,1,187.83,162a62.6,62.6,0,0,1,19.95-12.81,65.93,65.93,0,0,1,25.2-4.73,65.16,65.16,0,0,1,25.1,4.73,63.83,63.83,0,0,1,19.84,12.7,56.23,56.23,0,0,1,13,18.69,57.17,57.17,0,0,1,4.62,22.89v.42a56.83,56.83,0,0,1-4.72,23,58.44,58.44,0,0,1-13.13,18.9,62.6,62.6,0,0,1-19.95,12.81A65.92,65.92,0,0,1,232.56,263.28Zm.42-34a23.84,23.84,0,0,0,9.87-2,21.57,21.57,0,0,0,7.46-5.41,24.89,24.89,0,0,0,4.72-8,27.6,27.6,0,0,0,1.68-9.58v-.42a26.76,26.76,0,0,0-1.78-9.79,24.42,24.42,0,0,0-5-8,25.27,25.27,0,0,0-7.67-5.52,22.31,22.31,0,0,0-9.66-2.09,23.84,23.84,0,0,0-9.87,2,21.68,21.68,0,0,0-7.45,5.42,24.81,24.81,0,0,0-4.73,8,27.6,27.6,0,0,0-1.68,9.58v.41a26.72,26.72,0,0,0,1.79,9.79,24.36,24.36,0,0,0,5,8,25.4,25.4,0,0,0,7.66,5.52A22.31,22.31,0,0,0,233,229.26Z" transform="translate(-41.47 -31.73)"/><path class="cls-2" d="M350.37,263.07q-18.36,0-28.61-11.13t-10.24-30.66V146.94h40.11v61.53q0,9.45,4.35,14.28a14.89,14.89,0,0,0,11.61,4.83,15.63,15.63,0,0,0,11.72-4.83q4.67-4.83,4.66-14.28V146.94h40.11V260.55H384V245a56,56,0,0,1-13.48,12.6Q362.39,263.07,350.37,263.07Z" transform="translate(-41.47 -31.73)"/><path class="cls-2" d="M490.65,263.07A97.4,97.4,0,0,1,462.51,259a86,86,0,0,1-25.62-12.71l14.91-24.15a81.51,81.51,0,0,0,20.05,9.77,62.66,62.66,0,0,0,19,3.25c6.72,0,10.08-2,10.08-6.09v-.42q0-3.36-4.62-5.25A133,133,0,0,0,482.67,219,134.21,134.21,0,0,1,466.92,214a53,53,0,0,1-12.81-6.93,30.16,30.16,0,0,1-8.61-10c-2.1-3.91-3.15-8.75-3.15-14.49v-.42a35.9,35.9,0,0,1,3.46-16.06,33.31,33.31,0,0,1,9.56-11.76,44.12,44.12,0,0,1,14.38-7.25,62.3,62.3,0,0,1,18.17-2.52,90.14,90.14,0,0,1,24.78,3.47,82.83,82.83,0,0,1,22,9.76l-13.65,25.2a98.67,98.67,0,0,0-17.85-7.66,53.7,53.7,0,0,0-15.75-2.84q-4.62,0-6.93,1.58a4.6,4.6,0,0,0-2.31,3.88v.42q0,3.36,4.72,5.36a144.68,144.68,0,0,0,13.76,4.72q8.4,2.31,15.75,5.15a53,53,0,0,1,12.81,6.93,30.13,30.13,0,0,1,8.61,10,29.41,29.41,0,0,1,3.15,14.07v.42a37.89,37.89,0,0,1-3.36,16.49,33.2,33.2,0,0,1-9.45,11.86,41.3,41.3,0,0,1-14.7,7.25A69.83,69.83,0,0,1,490.65,263.07Z" transform="translate(-41.47 -31.73)"/><path class="cls-2" d="M609.72,263.28a67.58,67.58,0,0,1-24.57-4.3,57.89,57.89,0,0,1-19.22-12,53.33,53.33,0,0,1-12.6-18.59,62.62,62.62,0,0,1-4.51-24.15v-.42a63.3,63.3,0,0,1,4.2-23.2,57.3,57.3,0,0,1,11.86-18.9A55.52,55.52,0,0,1,583.05,149a56.9,56.9,0,0,1,23.1-4.62q14.69,0,25.51,5A50.38,50.38,0,0,1,649.51,163,56.91,56.91,0,0,1,660,182.75a80.4,80.4,0,0,1,3.47,23.83v4c0,1.4-.08,2.81-.21,4.2h-76q2.31,9.45,8.71,14.07t15.86,4.62a31.26,31.26,0,0,0,13.12-2.73A42.45,42.45,0,0,0,637,221.91l22.05,18.27A61.37,61.37,0,0,1,638.8,257Q626.73,263.28,609.72,263.28ZM626.1,194.4q-1.07-9.45-6.3-15a17.66,17.66,0,0,0-13.44-5.57,16.75,16.75,0,0,0-13,5.57q-5,5.56-6.72,15Z" transform="translate(-41.47 -31.73)"/><path class="cls-1" d="M727.37,260.43a46.43,46.43,0,0,1-19.21-4.09,47.37,47.37,0,0,1-16-11.66,57.08,57.08,0,0,1-10.92-18.48,69.49,69.49,0,0,1-4.1-24.57v-.42a73,73,0,0,1,4-24.88,55.77,55.77,0,0,1,10.9-18.69A48,48,0,0,1,708,145.88a45.48,45.48,0,0,1,19.06-4.1q12.76,0,20.94,4.94a57.67,57.67,0,0,1,13.83,11.44V110.61l40.11-18v165.3H761.81l.21-15.12a61.63,61.63,0,0,1-13.86,12.39Q740.18,260.43,727.37,260.43ZM739.45,227a21.55,21.55,0,0,0,9-1.89,22,22,0,0,0,7.32-5.35,25.29,25.29,0,0,0,4.91-8.19,29.22,29.22,0,0,0,1.78-10.4v-.42a28.38,28.38,0,0,0-1.78-10.29,25.63,25.63,0,0,0-4.91-8.08,22,22,0,0,0-7.32-5.36,22.3,22.3,0,0,0-18,0,22.84,22.84,0,0,0-7.32,5.25,25.64,25.64,0,0,0-5,8.09,27.92,27.92,0,0,0-1.88,10.39v.42a28,28,0,0,0,1.88,10.4,26.83,26.83,0,0,0,5,8.19,22,22,0,0,0,7.32,5.35A21.53,21.53,0,0,0,739.45,227Z" transform="translate(-41.47 -31.73)"/><path class="cls-1" d="M823.34,94.61h41.79V124H823.34Zm.84,49.69h40.11V257.91H824.18Z" transform="translate(-41.47 -31.73)"/><path class="cls-1" d="M942.2,291.93a130.59,130.59,0,0,1-30.56-3.36,119.65,119.65,0,0,1-26.35-9.66l12.81-26.46a97.57,97.57,0,0,0,18.69,7.88,72.92,72.92,0,0,0,21,2.83q15.12,0,22.47-7.14t7.35-20.79v-4.41a62.4,62.4,0,0,1-14.28,12q-8.19,5-20.79,5a52.14,52.14,0,0,1-19.64-3.67,47.26,47.26,0,0,1-16-10.5,49.73,49.73,0,0,1-10.81-16.59,57.54,57.54,0,0,1-4-21.95v-.42a58.43,58.43,0,0,1,4-22A50.44,50.44,0,0,1,896.84,156a46.63,46.63,0,0,1,15.64-10.5,48.91,48.91,0,0,1,18.8-3.68q12.81,0,21,4.62A65,65,0,0,1,967,157.74V144.3h39.9v86.31q0,15.75-3.57,26.78A45.71,45.71,0,0,1,992.18,276a50.37,50.37,0,0,1-19.95,11.87Q960.05,291.94,942.2,291.93Zm2.31-74.76q10.08,0,16.59-6.3a21,21,0,0,0,6.51-15.75v-.42a20.67,20.67,0,0,0-6.51-15.64q-6.51-6.19-16.59-6.2-10.29,0-16.8,6.3a21,21,0,0,0-6.51,15.75v.42A20.69,20.69,0,0,0,927.71,211Q934.22,217.18,944.51,217.17Z" transform="translate(-41.47 -31.73)"/><path class="cls-1" d="M1084.58,260.64a67.58,67.58,0,0,1-24.57-4.3,57.89,57.89,0,0,1-19.22-12,53.23,53.23,0,0,1-12.6-18.59,62.58,62.58,0,0,1-4.51-24.15v-.42a63.34,63.34,0,0,1,4.2-23.2,57.3,57.3,0,0,1,11.86-18.9,55.67,55.67,0,0,1,18.17-12.71,56.9,56.9,0,0,1,23.1-4.62q14.68,0,25.51,5a50.38,50.38,0,0,1,17.85,13.55,56.91,56.91,0,0,1,10.5,19.74,80.4,80.4,0,0,1,3.47,23.83v4c0,1.41-.08,2.81-.21,4.2h-76q2.31,9.45,8.71,14.07t15.86,4.62a31.11,31.11,0,0,0,13.12-2.73,42.07,42.07,0,0,0,12.08-8.82l22,18.27a61.25,61.25,0,0,1-20.27,16.8Q1101.58,260.64,1084.58,260.64ZM1101,191.76q-1.07-9.45-6.3-15a17.66,17.66,0,0,0-13.44-5.57,16.75,16.75,0,0,0-13,5.57q-5,5.56-6.72,15Z" transform="translate(-41.47 -31.73)"/><path class="cls-1" d="M1200.5,260.43a97.4,97.4,0,0,1-28.14-4.09,85.59,85.59,0,0,1-25.62-12.71l14.91-24.15a81,81,0,0,0,20,9.77,62.66,62.66,0,0,0,19,3.25c6.72,0,10.08-2,10.08-6.09V226c0-2.23-1.55-4-4.62-5.25a134.64,134.64,0,0,0-13.65-4.41,132.35,132.35,0,0,1-15.75-4.93,52.64,52.64,0,0,1-12.81-6.93,30,30,0,0,1-8.61-10q-3.15-5.87-3.15-14.49v-.42a35.9,35.9,0,0,1,3.46-16.06,33.2,33.2,0,0,1,9.56-11.76,44,44,0,0,1,14.38-7.25,62.25,62.25,0,0,1,18.17-2.52,90.19,90.19,0,0,1,24.78,3.47,83.11,83.11,0,0,1,22,9.76L1231,180.42a99.69,99.69,0,0,0-17.85-7.66,53.7,53.7,0,0,0-15.75-2.84c-3.09,0-5.39.53-6.93,1.58a4.59,4.59,0,0,0-2.31,3.88v.42c0,2.25,1.57,4,4.72,5.36a143.68,143.68,0,0,0,13.76,4.72q8.39,2.33,15.75,5.15a53.39,53.39,0,0,1,12.81,6.93,30.23,30.23,0,0,1,8.61,10,29.44,29.44,0,0,1,3.15,14.07v.42a38,38,0,0,1-3.36,16.49,33.42,33.42,0,0,1-9.45,11.86,41.3,41.3,0,0,1-14.7,7.25A69.94,69.94,0,0,1,1200.5,260.43Z" transform="translate(-41.47 -31.73)"/><path class="cls-1" d="M1308.63,260.22q-18.15,0-28.28-8.61t-10.14-29v-46.2h-13.44V144.3h13.44V115.53h40.11V144.3h26.46v32.13h-26.46v38.43c0,4.07.91,7,2.73,8.72s4.55,2.62,8.19,2.62a28.5,28.5,0,0,0,7.77-1,44.52,44.52,0,0,0,7.35-2.73v31.29a54.51,54.51,0,0,1-12.39,4.73A61.47,61.47,0,0,1,1308.63,260.22Z" transform="translate(-41.47 -31.73)"/></svg>