<svg xmlns="http://www.w3.org/2000/svg" viewBox="0 0 172 172" width="172px" height="172px" fill="none">
    <path class="hidden" fill="gray" d="M22.372.662v52.095H11.678v-40.12c-1.316 1.146-3.114 2.165-5.392 3.081-2.279.905-4.374 1.477-6.286 1.694V8.298C6.01 6.547 11.209 4.005 15.594.662h6.778Z" />
    <path stroke="#333" stroke-miterlimit="10" stroke-width="0.754" d="M51.275 101.685h-5.52v68.865h5.52v-68.865ZM121.383 101.685h-5.52v68.865h5.52v-68.865Z" />
    <path fill="#333" stroke="#333" stroke-miterlimit="10" stroke-width="0.754" d="M115.863 139.618h-64.45v5.838h64.45v-5.838Z" />
    <path stroke="#000" stroke-miterlimit="10" stroke-width="0.754" d="M51.412 163.539h64.451M51.552 113.363h64.45" />
    <path stroke="#333" stroke-miterlimit="10" stroke-width="0.754" d="M75.801 139.618v-5.839M102.791 145.456v3.796" />
    <path fill="#000" stroke="#333" stroke-miterlimit="10" stroke-width="1.163" d="M48.433 122.254c.759 0 1.374-.619 1.374-1.382 0-.763-.615-1.382-1.374-1.382-.76 0-1.374.619-1.374 1.382 0 .763.615 1.382 1.374 1.382ZM48.433 155.241c.759 0 1.374-.619 1.374-1.382 0-.763-.615-1.382-1.374-1.382-.76 0-1.374.619-1.374 1.382 0 .763.615 1.382 1.374 1.382ZM118.693 124.877c.6 0 1.086-.489 1.086-1.092 0-.603-.486-1.091-1.086-1.091-.6 0-1.086.488-1.086 1.091s.486 1.092 1.086 1.092ZM118.693 150.923c.6 0 1.086-.488 1.086-1.091s-.486-1.092-1.086-1.092c-.6 0-1.086.489-1.086 1.092 0 .603.486 1.091 1.086 1.091ZM102.653 154.358c.804 0 1.455-.654 1.455-1.462 0-.808-.651-1.462-1.455-1.462-.803 0-1.455.654-1.455 1.462 0 .808.652 1.462 1.455 1.462Z" />
    <path fill="#383838" d="M54.138 113.085c.704-1.695 2.817-3.018 4.134-4.178 1.86-1.637 3.441-2.995 5.185-4.736.866-.871.866-.871 1.455-2.334.52-1.311 1.79-2.53 3.164-3.052 1.71-.639 3.384-.046 5.104.163 2.622.313 3.453.37 4.758-2.16.693-1.358 1.04-2.112 2.737-2.379 1.629-.243 2.449.464 3.557 1.509 1.732 1.625 2.853 1.091 5.07 1.823 3.13 1.033 2.944-2.241 4.065-4.377.785-1.497 2.771-2.704 4.93-1.752 2.31 1.01-.75 2.692 2.634 4.422 2.044 1.044 3.303.825 5.208 1.997.993.615 3.118 1.137 3.003 2.333-.116 1.172-.797.951-.97 2.042-.243 1.614 1.501 3.053 1.304 2.879-1.293-1.114 1.929.998 2.553 2.634.404 1.068.808 2.206 1.004 3.343.277 1.602.37 1.985-1.212 2.113-1.617.128-3.303-.394-5.001-.301-2.044.104-3.995.51-6.074.626a71.343 71.343 0 0 1-7.044-.023c-5.463-.267-11.006.011-16.48-.291-3.21-.174-6.432-.15-9.665-.15-3.303 0-6.837.568-10.094-.036-1.039-.197-2.32-.266-3.325-.567M136.477 73.433a7.938 7.938 0 0 1 5.936-7.695 7.916 7.916 0 0 0-7.333-4.944c-4.377 0-7.922 3.562-7.922 7.961 0 4.4 3.545 7.963 7.922 7.963.693 0 1.351-.093 1.986-.267a7.98 7.98 0 0 1-.589-3.018ZM156.051 100.606c0-4.399 3.545-7.963 7.922-7.963.069 0 .127.013.196.013-1.397-2.252-3.88-3.761-6.721-3.761-4.377 0-7.922 3.562-7.922 7.962 0 4.329 3.441 7.847 7.726 7.951a7.897 7.897 0 0 1-1.201-4.202ZM162.577 134.334c0-4.399 3.545-7.962 7.922-7.962.508 0 1.016.058 1.501.151-1.455-1.799-3.672-2.959-6.155-2.959-4.377 0-7.922 3.562-7.922 7.961a7.963 7.963 0 0 0 6.421 7.824 7.98 7.98 0 0 1-1.767-5.015ZM152.321 167.124c0-4.399 3.545-7.961 7.922-7.961 1.027 0 1.997.197 2.898.556a7.869 7.869 0 0 0-5.693-2.425c-4.377 0-7.922 3.563-7.922 7.962a7.96 7.96 0 0 0 5.035 7.406 7.961 7.961 0 0 1-2.24-5.538ZM12.957 156.341c-.589 0-1.166.07-1.72.198a6.552 6.552 0 0 1 4.977 6.361c0 3.621-2.922 6.558-6.525 6.558a6.491 6.491 0 0 1-3.51-1.034c1.385 2.299 3.903 3.843 6.767 3.843 4.376 0 7.922-3.564 7.922-7.963s-3.534-7.963-7.911-7.963ZM5.497 121.683c-.531 0-1.04.058-1.547.151a8.435 8.435 0 0 1 2.009 5.467A8.429 8.429 0 0 1 0 135.368a7.87 7.87 0 0 0 5.497 2.24c4.377 0 7.922-3.564 7.922-7.963s-3.545-7.962-7.922-7.962ZM12.957 87.013a7.829 7.829 0 0 0-3.672.917 7.01 7.01 0 0 1 2.275 5.177 7.038 7.038 0 0 1-4.896 6.71 7.872 7.872 0 0 0 6.293 3.132c4.377 0 7.922-3.562 7.922-7.961 0-4.411-3.545-7.975-7.922-7.975ZM34.403 59.841c-.912 0-1.79.163-2.61.453.185.754.278 1.544.278 2.356 0 3.83-2.125 7.069-5.035 8.09 1.166 2.948 4.018 5.026 7.356 5.026 4.377 0 7.922-3.563 7.922-7.962.011-4.399-3.534-7.963-7.91-7.963ZM67.026 44.856a7.63 7.63 0 0 0-2.01.268c-4.284 3.053-5.346 10.47-5.369 10.586 1.155 2.971 4.019 5.071 7.38 5.071 4.376 0 7.921-3.563 7.921-7.962 0-4.399-3.545-7.963-7.922-7.963ZM109.558 48.768a7.87 7.87 0 0 0-6.178-2.983c-4.377 0-7.922 3.563-7.922 7.963 0 4.399 3.545 7.962 7.922 7.962 7.875-3.714 6.201-12.826 6.178-12.942Z" />
</svg>
