<?xml version="1.0" encoding="utf-8"?>
<svg width="172" height="172" fill="none" xmlns="http://www.w3.org/2000/svg">
  <style>.B{stroke-miterlimit:10}.C{stroke-width:.754}</style>
  <g stroke="#333" class="B C">
    <path d="M51.275 101.685h-5.52v68.865h5.52v-68.865zm70.108 0h-5.52v68.865h5.52v-68.865z"/>
    <path fill="#333" d="M115.863 139.618h-64.45v5.838h64.45v-5.838Z"/>
  </g>
  <path stroke="#000" d="M51.412 163.539h64.451M51.552 113.363h64.45" class="B C"/>
  <g stroke="#333" class="B">
    <path d="M75.801 139.618v-5.839m26.99 11.677v3.796" class="C"/>
    <path fill="#000" stroke-width="1.163" d="M48.433 122.254a1.38 1.38 0 1 0 0-2.764c-.76 0-1.374.619-1.374 1.382a1.38 1.38 0 0 0 1.374 1.382zm0 32.987a1.38 1.38 0 1 0 0-2.764c-.76 0-1.374.619-1.374 1.382a1.38 1.38 0 0 0 1.374 1.382zm70.26-30.364a1.09 1.09 0 1 0 0-2.183 1.09 1.09 0 1 0 0 2.183zm0 26.046a1.09 1.09 0 1 0 0-2.183 1.09 1.09 0 1 0 0 2.183zm-16.04 3.435a1.46 1.46 0 1 0 0-2.924 1.46 1.46 0 1 0 0 2.924z"/>
  </g>
  <path fill="#383838" d="M54.138 113.085c.704-1.695 2.817-3.018 4.134-4.178l5.185-4.736c.866-.871.866-.871 1.455-2.334.52-1.311 1.79-2.53 3.164-3.052 1.71-.639 3.384-.046 5.104.163 2.622.313 3.453.37 4.758-2.16.693-1.358 1.04-2.112 2.737-2.379 1.629-.243 2.449.464 3.557 1.509 1.732 1.625 2.853 1.091 5.07 1.823 3.13 1.033 2.944-2.241 4.065-4.377.785-1.497 2.771-2.704 4.93-1.752 2.31 1.01-.75 2.692 2.634 4.422 2.044 1.044 3.303.825 5.208 1.997.993.615 3.118 1.137 3.003 2.333-.116 1.172-.797.951-.97 2.042-.243 1.614 1.501 3.053 1.304 2.879-1.293-1.114 1.929.998 2.553 2.634.404 1.068.808 2.206 1.004 3.343.277 1.602.37 1.985-1.212 2.113-1.617.128-3.303-.394-5.001-.301-2.044.104-3.995.51-6.074.626a71.343 71.343 0 0 1-7.044-.023c-5.463-.267-11.006.011-16.48-.291-3.21-.174-6.432-.15-9.665-.15-3.303 0-6.837.568-10.094-.036-1.039-.197-2.32-.266-3.325-.567m82.339-39.2a7.938 7.938 0 0 1 5.936-7.695 7.916 7.916 0 0 0-7.333-4.944c-4.377 0-7.922 3.562-7.922 7.961s3.545 7.963 7.922 7.963a7.46 7.46 0 0 0 1.986-.267 7.98 7.98 0 0 1-.589-3.018zm19.574 27.173c0-4.399 3.545-7.963 7.922-7.963.069 0 .127.013.196.013-1.397-2.252-3.88-3.761-6.721-3.761-4.377 0-7.922 3.562-7.922 7.962 0 4.329 3.441 7.847 7.726 7.951a7.897 7.897 0 0 1-1.201-4.202zm6.526 33.728c0-4.399 3.545-7.962 7.922-7.962.508 0 1.016.058 1.501.151-1.455-1.799-3.672-2.959-6.155-2.959-4.377 0-7.922 3.562-7.922 7.961a7.963 7.963 0 0 0 6.421 7.824 7.98 7.98 0 0 1-1.767-5.015zm-10.256 32.79c0-4.399 3.545-7.961 7.922-7.961a7.78 7.78 0 0 1 2.898.556 7.869 7.869 0 0 0-5.693-2.425c-4.377 0-7.922 3.563-7.922 7.962a7.96 7.96 0 0 0 5.035 7.406 7.961 7.961 0 0 1-2.24-5.538zM12.957 156.341a7.64 7.64 0 0 0-1.72.198 6.552 6.552 0 0 1 4.977 6.361c0 3.621-2.922 6.558-6.525 6.558a6.491 6.491 0 0 1-3.51-1.034c1.385 2.299 3.903 3.843 6.767 3.843 4.376 0 7.922-3.564 7.922-7.963s-3.534-7.963-7.911-7.963zm-7.46-34.658c-.531 0-1.04.058-1.547.151a8.435 8.435 0 0 1 2.009 5.467A8.429 8.429 0 0 1 0 135.368a7.87 7.87 0 0 0 5.497 2.24c4.377 0 7.922-3.564 7.922-7.963s-3.545-7.962-7.922-7.962zm7.46-34.67a7.829 7.829 0 0 0-3.672.917 7.01 7.01 0 0 1 2.275 5.177 7.038 7.038 0 0 1-4.896 6.71 7.872 7.872 0 0 0 6.293 3.132c4.377 0 7.922-3.562 7.922-7.961 0-4.411-3.545-7.975-7.922-7.975zm21.446-27.172c-.912 0-1.79.163-2.61.453a9.88 9.88 0 0 1 .278 2.356c0 3.83-2.125 7.069-5.035 8.09 1.166 2.948 4.018 5.026 7.356 5.026 4.377 0 7.922-3.563 7.922-7.962.011-4.399-3.534-7.963-7.91-7.963zm32.623-14.985a7.63 7.63 0 0 0-2.01.268c-4.284 3.053-5.346 10.47-5.369 10.586 1.155 2.971 4.019 5.071 7.38 5.071 4.376 0 7.921-3.563 7.921-7.962s-3.545-7.963-7.922-7.963zm42.532 3.912a7.87 7.87 0 0 0-6.178-2.983c-4.377 0-7.922 3.563-7.922 7.963s3.545 7.962 7.922 7.962c7.875-3.714 6.201-12.826 6.178-12.942z"/>
</svg>