<?xml version="1.0" encoding="utf-8"?>
<svg viewBox="0 0 172 172" fill="none" xmlns="http://www.w3.org/2000/svg">
  <path fill="#fff" d="M66.332 148.952c0 .105.039.211.065.316.053.159.119.303.198.448.157.251.434.435.723.488-.355.079-.789-.026-.986-.329-.184-.277-.132-.646-.08-.989.014-.066.066-.303.159-.211a.622.622 0 0 0-.08.277Z"/>
  <path fill="#383838" d="M33.176 136.857c-.974-1.764.157-4.001 1.657-5.37 3.893-3.554 9.76-3.869 14.982-3.132s10.404 2.342 15.665 1.881c2.565-.223 5.064-.922 7.603-1.29 2.552-.356 5.248-.342 7.563.79.184.092.368.197.473.368.171.289.08.658-.026.974-.355 1.053-.723 2.145-1.46 2.974-.552.606-1.276 1.041-1.828 1.66s-.908 1.54-.513 2.25c.657 1.224 2.473.751 3.854.659 2.84-.198 5.327 1.986 8.155 2.341 4.656.593 9.154-3.816 13.64-2.447.381.119.749.276 1.026.553.21.224.355.499.46.789.408 1.106.381 2.448-.368 3.356-.816.987-2.223 1.237-3.512 1.251s-2.618-.132-3.815.316-2.21 1.791-1.75 2.988c.343.908 1.395 1.381 2.368 1.421s1.934-.236 2.907-.368a8.72 8.72 0 0 1 3.354.211c.737.184 1.474.486 1.96 1.065s.658 1.487.224 2.093c-.355.487-.974.685-1.552.803-3.289.698-6.945.079-9.839 1.803-.881.527-1.63 1.251-2.486 1.817-4.446 2.974-10.483 1.329-15.64 2.79-1.604.448-3.103 1.21-4.655 1.842a31.71 31.71 0 0 1-19.56 1.356c-1.656-.421-3.3-.974-4.997-1.093-2.513-.171-5.498.475-7.195-1.381-.276-.303-.5-.672-.579-1.067-.184-.987.605-1.96 1.539-2.342s1.986-.33 2.986-.303a46.817 46.817 0 0 0 11.877-1.237c.71-.171 1.579-.592 1.473-1.303-.04-.303-.276-.553-.486-.776a1638.424 1638.424 0 0 0-4.946-5.081c-.631-.645-1.29-1.317-2.118-1.685-.934-.422-1.999-.408-3.025-.395l-5.235.08c-.96.013-1.947.026-2.841-.317s-1.697-1.119-1.776-2.066c-.118-1.448 1.579-3.238.119-4.502-1.145-.974-2.815-.697-3.683-2.276z"/>
  <path fill="#333" d="M47.154 152.899c.618.093 1.342.053 1.75-.421a1.13 1.13 0 0 0 .236-1.013 1.116 1.116 0 0 0-.71-.763c-1.539-.527-3.21 1.895-1.276 2.197zm3.341.936c-.184-.132-.052-.435.105-.606.408-.474.83-.96 1.395-1.236.407-.198.855-.263 1.302-.277.355-.013.723 0 1.065.132.369.158.658.461.934.75.197.198.382.408.5.671.118.25.132.565-.026.802-.119.158-.29.251-.474.343a7.962 7.962 0 0 1-2.039.644c-.223.04-.447.067-.67.04-.369-.052-.71-.25-1.026-.447-.355-.224-.763-.501-.829-.922a.751.751 0 0 1 .434-.789m28.348 7.699c.316.053.671.119.868.382.158.21.172.513.08.763s-.29.447-.487.618c-.21.172-.474.33-.75.33-.197 0-.381-.053-.566-.132-.526-.197-1.512-.645-.96-1.356.408-.552 1.158-.71 1.816-.605zm-33.648 6.264c-.342-.211-.71-.487-.697-.882.013-.25.171-.461.329-.658.29-.355.618-.737 1.065-.829.237-.053.474-.013.71 0 .395.026.79.027 1.171.132s.737.368.842.75c.092.329-.026.698-.25.961s-.513.448-.815.605c-.33.172-.763.462-1.145.422-.42-.013-.868-.291-1.21-.501zm58.714-19.149c-.763.157-1.644.21-2.249-.277-.513-.421-.684-1.171-.486-1.803s.736-1.118 1.354-1.355c.619-.224 1.316-.224 1.947-.053.566.145 1.144.487 1.276 1.053.079.355-.04.75-.25 1.053s-.5.539-.789.776c-.421.342-.882.711-1.421.776"/>
  <path fill="#fff" d="M38.884 144.174c.815.434 1.776.487 2.696.395-.5.144-1 .289-1.512.329s-1.053-.014-1.513-.277c-.342-.184-1.381-1.172-1.092-1.632.21-.356.421.264.526.409a2.43 2.43 0 0 0 .895.776zm10.56 1.092a7.951 7.951 0 0 1 4.762 2.725c.842 1.014 1.434 2.237 2.315 3.211a6.96 6.96 0 0 0 4.13 2.185 48.404 48.404 0 0 1-5.406-5.606c-.605-.724-1.197-1.488-1.933-2.067-1.697-1.343-4.21-1.791-6.327-1.527-.408.052-1.79.343-1.276.896.368.394 3.104.078 3.735.183zm9.906 17.257c5.195-.276 10.588-.777 15.033-3.476-2.21.079-4.327.909-6.458 1.514a34.389 34.389 0 0 1-8.102 1.277 32.894 32.894 0 0 1-4.104-.106c-.75-.065-3.065-.79-3.473.013 1.579 1.343 5.196.883 7.103.778zm39.351-18.322c1.144-.027 2.381.079 3.315-.566-.974.118-1.934.25-2.92.236-.737-.013-1.474-.092-2.223-.065-.908.039-2.513.356-2.762 1.397.539.145 1.144-.356 1.63-.541.948-.342 2-.435 2.96-.461zm-3.997 9.16c-.986.421-1.894 1.027-2.828 1.54-3.499 1.935-7.59 2.803-11.575 2.487 2.868-.276 5.788-.552 8.432-1.723 1.091-.487 2.117-1.12 3.21-1.62 3.261-1.514 6.589-1.54 10.088-1.58-2.079-.592-5.367.054-7.327.896zm-47.071-.984c.408.053.828-.026 1.157-.264-.131.185-.342.303-.552.368a2.83 2.83 0 0 1-.67.106c-.25.026-.527.04-.75-.079-.172-.092-.54-.552-.171-.513.131.013.328.184.46.237a2.19 2.19 0 0 0 .526.145zm5.364 1.906c.75-.065 1.5-.236 2.197-.526-.579.474-1.355.633-2.105.712-.263.026-1.801.144-1.722-.382.026-.198.473.104.63.144.33.092.672.079 1 .052zm-4.72 12.031c.236-.04.486-.107.644-.291-.184.329-.54.528-.907.62-.25.066-1.79.25-1.618-.158.145-.303 1.526-.105 1.88-.171zm31.736-4.333c-.131.159-1.118.83-1.223.421-.079-.29 1.039-.197 1.223-.421zm25.767-16.055a1.43 1.43 0 0 1-.118.87c-.237.513-1.289.724-1.789.737.223-.264.631-.329.921-.514.21-.131 1.039-.817.986-1.093z"/>
  <path fill="#383838" d="M148.989 139.251c-.973-.224-1.657-.184-1.157-1.592 2.644-7.555-3.052-14.701-10.957-13.741-1.539.185-1.683-.264-1.381-1.554.71-2.961-.066-5.698-1.631-8.199-3.183-5.093-8.05-7.792-13.64-9.424-.592-.171-1.46-.158-1.591-.75-.276-1.304-.803-2.421-1.513-3.435-5.235-5.304-10.615-3.686-12.364-2.936-1.841.895-3.275 2.343-4.354 4.133-1.341 2.211-1.683 4.647-1.644 7.582-2.367-3.04-5.038-4.87-8.47-5.476-.592-.105-.83-.658-1.171-1.079-5.998-7.252-17.546-6.739-21.98 1.579-1.998 3.752-4.077 4.422-7.562 3.698-2.947-.408-5.8.067-8.537 1.107-3.143 1.198-6.419 2.277-8.431 5.317-2.105 2.001-3.96 4.198-4.459 7.16-.276 1.605-.684 1.934-2.197 1.052-2.328-1.368-5.011-.986-6.84.685a5.858 5.858 0 0 0-1.328 6.923c.579 1.211.684 1.645-.92 1.869-7.682 1.04-11.43 9.609-7.143 16.058.934 1.408 2.013 2.08 3.841 2.08l93.691-.04 33.212.04c1.565.013 2.367-.619 2.999-1.909 1.775-3.633-.421-8.213-4.473-9.148zM48.027 87.13c-.5-.183-1.013-.065-1.526-.092h-.618c.658-.487 1.342-.605 2.039-.618.197.026.434.013.605.105.486.264.697.066.96-.356.54-.855 1.368-1.328 2.354-1.5-.447.422-.934.79-1.315 1.264-.408.513-.737 1.053-.881 1.698-.053.276-.145.394-.408.13a2.34 2.34 0 0 0-1.21-.63zm73.83-7.107c-.868.013-1.736-.105-2.578.224a6.156 6.156 0 0 0-.829.421c-.118.066-.236.131-.236-.092-.027-1.224-.776-1.975-1.697-2.633-.026-.026-.053-.065-.079-.09.855.065 1.789.683 2.157 1.499.145.316.276.303.553.224.868-.25 1.722-.185 2.525.236.079.04.21.04.184.211z"/>
  <path fill="#393939" d="M33.277 87.867l-1.381-1.46c.855-.329 1.447.38 2.157.591 2.604 2.304 2.026 5.12 1.236 7.937l-1.683 5.239-1.763 4.725c-.763 2.646-.579 5.199 1.565 7.555-3.235-.868-4.853-4.041-4.156-7.713.263-1.395.684-2.75 1.026-4.132-.447-.777.026-1.435.276-2.12l1.789-4.528c.79-1.961 1.315-3.948.934-6.094zM62.32 69.888c2.012.645 2.84 1.988 2.88 3.87.053 2.37-.763 4.529-1.525 6.727l-2.486 7.567c-.724 2.501-.5 4.935 1.289 7.12-2.934-.948-4.21-3.237-3.96-6.632.224-3.107 1.474-5.924 2.618-8.754l1.42-3.606c.75-2.093 1.342-4.186-.236-6.292zm74.028 39.302c-3.235-1-4.801-4.066-4.169-7.646.447-2.553 1.342-4.976 2.341-7.359a101.77 101.77 0 0 0 1.578-3.974c.75-2.053 1.395-4.132-.118-6.277 1.644.276 2.289.868 2.644 2.381.447 1.922.105 3.79-.5 5.62l-2.683 7.897c-1.052 3.159-1.776 6.292.907 9.358z"/>
  <path fill="#383838" d="M96.02 62.11c1.987.619 2.723 2.053 2.842 3.856.118 1.659-.316 3.252-.842 4.805l-3.026 8.673c-.986 2.935-1.144 5.765 1.46 8.187-2.078-.106-3.722-1.843-4.143-4.225-.579-3.317.5-6.33 1.658-9.332l1.867-4.528c.882-2.422 1.881-4.856.184-7.436z"/>
  <path fill="#f7f7f7" d="M82.01 104.952c-2.841 1.579-4.946 3.619-6.142 6.515-.474 1.171-1.67 1.144-2.434.842-1.236-.5-2.288-1.422-3.42-2.172-.263-.172-.236-.435-.21-.711.197-2.567 3.617-6.33 6.182-6.725 2.328-.355 4.275.395 6.024 2.251Z"/>
  <path fill="#f5f5f5" d="M102.531 133.447c1.526-3.553 4.42-5.303 7.892-4.408 1.171.302 1.526-.158 2.105-.816 4.998-5.607 13.1-3.988 15.547 3.093l.026-.04c-.697.264-.947-.237-1.236-.71-2.868-4.567-10.326-5.594-13.798.171-.434.71-.776 1-1.736.527-3.341-1.646-5.959-.857-8.313 2.276-.184.105-.342.078-.487-.093zm-54.226-3.828c1.5-3.58 4.748-5.475 9.01-5.265 3.512.184 6.88 2.855 7.826 6.462.29 1.092.645 1.421 1.723 1.356 1.434-.093 2.552.552 3.696 2.263-2.222-.803-3.972-1.46-5.826-.591-.474.224-.658-.263-.737-.711-.618-3.751-2.736-6.305-6.471-6.977-3.683-.658-6.643.922-8.774 3.989-.42.052-.592-.105-.447-.526z"/>
  <path fill="#efefef" d="M128.091 131.316c.053 1.395.54 1.789 2.105 1.605 2.46-.303 4.354 1.552 4.683 4.474-1.237-1.75-2.513-2.881-4.354-3.052-1.894-.171-3.236 1.079-4.985 2.369.408-2.383 3.196-3.133 2.591-5.436l-.04.04Z"/>
  <path fill="#d2d2d2" d="M48.3 129.618l.448.526-.776 1.646c-.105.158-.224.171-.355.013-.132-.843.092-1.566.684-2.185z"/>
  <path fill="gray" d="M47.62 131.803c.118-.013.236-.013.355-.013.105.632.04 1.212-.553 1.7-.302-.633-.394-1.186.198-1.687Z"/>
  <path fill="#9c9c9c" d="M102.531 133.447l.486.092a2.605 2.605 0 0 1-.776 1.858c-.184-.737-.276-1.384.29-1.95z"/>
  <path fill="gray" d="M125.288 138.134c-.263-.448-.29-.896.105-1.265.066-.066.46.039.487.131.131.514-.079.91-.592 1.134Z"/>
  <path fill="#818181" d="M71.387 136.961c-.106-.185-.276-.382-.355-.619-.106-.316.065-.527.368-.54.381-.014.329.343.355.567s.118.526-.368.592z"/>
  <g fill="#383838">
    <path d="M108.11 111.771c-.04-.145-.066-.29-.092-.435l.065.527c-.118-.869.027-1.751.027-2.619 0-.5-.224-1.04-.579-1.395-.342-.342-.908-.606-1.394-.58-.513.027-1.039.185-1.395.58-.355.382-.578.855-.578 1.395l-.066 1.566c-.013.672.026 1.368.197 2.013a2.1 2.1 0 0 0 .908 1.185c.421.25 1.052.356 1.526.198s.933-.448 1.183-.908c.237-.474.329-1.001.198-1.527z"/>
    <path d="M107.779 108.675l-.513-.514a1.486 1.486 0 0 0-.631-.408 1.52 1.52 0 0 0-.763-.171 1.52 1.52 0 0 0-.763.171c-.25.079-.46.21-.631.408a7.069 7.069 0 0 0-.303.396 1.895 1.895 0 0 0-.263 1l.066.525a1.96 1.96 0 0 0 .513.869l.513.514c.184.198.394.329.631.408a1.52 1.52 0 0 0 .763.171 1.52 1.52 0 0 0 .763-.171c.25-.079.46-.21.631-.408l.303-.396c.184-.302.263-.644.263-1a6.721 6.721 0 0 1-.066-.525 1.823 1.823 0 0 0-.513-.869z"/>
  </g>
  <path fill="#f8f8f8" d="M108.857 161.744c0-.29.053-.447.369-.342l2.341.751c.131.04.276.066.25.237-.027.184-.184.092-.29.105-.592.106-1.197.119-1.775.317-.355.118-.566-.027-.724-.382a2.89 2.89 0 0 1-.171-.686z"/>
  <path fill="#383838" d="M90.626 161.56c1.46-1.567 3.064-2.949 5.156-3.62.237-.079.302-.119.263-.369-.026-.197 0-.407.026-.618.092-.816.487-1.237 1.17-1.251.75-.013 1.237.422 1.382 1.264l.868-1.513c.618-1.066 1.644-1.199 2.644-.896.934.277 1.223 1.356.684 2.409-.276.566-.25.685.329.921 1.105.448 2.223.395 3.275-.105 1.683-.803 3.446-1.276 5.314-1.329 3.117-.079 5.853.975 8.313 2.83 1.512 1.145 2.814 2.513 3.972 4 .907 1.172 1.67 1.29 2.907.487 2.052-1.355 3.538-3.237 4.88-5.264.828-1.238 1.578-2.514 2.551-3.646 3.026-3.54 7.287-3.434 10.576-.947 1.354 1.027 2.643 2.132 3.406 3.711a4.19 4.19 0 0 1 .145.316c-.316-.066-.434-.263-.566-.407-1.407-1.474-2.907-2.857-4.801-3.699-1.604-.724-3.248-1.067-4.972-.422-1.315.5-2.262 1.475-3.038 2.607-1.21 1.803-2.328 3.685-3.591 5.462-1.42 2.001-3.235 3.501-5.353 4.66-.566.302-.776.749-.631 1.394.105.487-.172.881-.579 1.066-.987.474-1.697 1.211-2.21 2.172-.105.197-.263.356-.539.356-.119 0-.277.039-.355.118-.829.79-1.776.382-2.697.277-.092-.014-.21-.107-.223-.186-.027-.131.079-.262.21-.302.579-.184 1-.803 1.736-.579.224.066.355-.132.369-.329.013-.224-.211-.184-.342-.197-.961-.053-1.921-.079-2.881-.118-.197-.013-.342.052-.474.223-.578.79-1.433 1.079-2.341 1.184-.776.092-1.565.105-2.341.277-.289.065-.671-.093-.947-.264-.382-.237-.487-.131-.553.251-.105.605-.157.619-.67.25-.132-.105-.263-.106-.356-.027-.513.527-.96.25-1.433-.105.184-.211.421-.381.565-.618.487-.803.237-1.686-.578-2.225-.698-.461-1.487-.42-2.237-.42-1.723 0-3.406.236-4.998.934a7.399 7.399 0 0 0-1.236.658c-.29.184-.487.448-.947.211-.145-.079-.776.065-1.118.302-.132.092-.342.224-.355-.079-.013-.381-.198-.316-.382-.158-.21.158-.42.171-.605.026-.092-.066-.21-.237-.184-.316.066-.237.29-.316.513-.395.75-.25 1.565-.381 2.039-1.171.237-.381.29-.723.079-1.105-1.013-1.882-2.46-3.093-4.736-3.014-.71.026-1.42-.145-2.117-.316-.974-.25-1.789-.658-1.973-1.764-.013-.21-.013-.395-.013-.592z"/>
  <path fill="#f7f7f7" d="M95.655 160.442c-.42-.013-.736-.172-.75-.567-.026-.409.277-.579.671-.592s.698.157.724.539c.013.409-.316.568-.645.62z"/>
</svg>