<?xml version="1.0" encoding="utf-8"?>
<svg viewBox="0 0 172 172" fill="none" xmlns="http://www.w3.org/2000/svg">
  <g fill="#333">
    <path d="M126.899 55.81c.31-.014.606-.053.916-.028 1.934.22 3.816-.466 5.75-.375.387.013.8-.143 1.161-.312 1.057-.48 1.856-.09 2.565.7.284.285.671.26 1.019.376.116.039.245.04.232.208-.09.103-.193.181-.245.194.039-.038.168-.103.258-.22a.374.374 0 0 1 .4-.039c.077.052.154.13.232.195.18.117.167.103.502-.014.31-.117.581.13.89.13.593.026 1.212-.09 1.78.22.373.182.786.026 1.173.09a3.76 3.76 0 0 0 1.56.299h3.197c.89 0 1.934.778 2.192 1.607.091.272-.18.466-.129.738.052-.182.065-.362.22-.466.515-.155.747.35 1.121.505.103.155-.154.285-.013.44 1.006.311.929 1.284 1.225 2.023.052.13-.013.336.091.44.464.505.425.933-.207 1.296.555-.35 1.019-.39 1.496.077.632.622 1.341 1.192 1.289 2.216-.013.285.374.26.426.558.18 1.153.825 2.229.773 3.395-.025.622.632 1.14.181 1.761.644.065.374.532.374.868a.87.87 0 0 1-.103.183c-.31-.013-.22.141-.116.297-.039.233-.142.401-.374.492-.464-.013-.955.078-.761-.712.129-.505-.297-.299-.477-.311-.116.738.645 1.01.748 1.62-.452.35-.361.958-.645 1.399-.155.246.168.454.31.635.219.272.58.427.631.816.026.208-.232.234-.27.403.167 0 .283-.131.451-.118.18.013.348.066.516.118.103.22.257.284.541.193.064.04.116.078.142.156a.556.556 0 0 1 0 .207c-.065.208-.245.389-.09.622.27.337.219.623-.155.83-.142.026-.335.012-.374.18-.013.066.232-.011.309.131.065.596-.077 1.01-.786.945-.206-.013-.361.182-.58.143-.464-.233.141-.622-.116-.894-.155-.182-.413-.104-.581-.26-.038-.051-.103-.078-.128-.155 0 .078.077.09.116.143.09.103.206.168.283.285.194.259 0 .7.4.868.039.181.052.35-.116.48-.155.129-.232.375-.516.298-.348-.467-.296.155-.451.168-.361.117-.258.635-.632.74-.193-.014-.296-.183-.451-.26-.387-.195-.632-.078-.683.376-.039.103-.117.18-.233.193-.528-.13-.58-.726-.992-1.024-.271-.181-.336-.712-.052-1.113.155-.22.245-.493.026-.687-.194-.182-.413-.078-.606.104-.142.129-.271.09-.361-.078-.078-1.347-.258-2.695.142-4.03.154-.505-.116-.57-.465-.428-.412.169-.786.169-1.16-.064-.284-.234-.271-.584-.284-.908-.038-.907.026-1.814.22-2.708.116-.57.077-1.101-.22-1.607-.399-.622-.27-1.102.387-1.439.013-.103.039-.193.065-.297 0-.155.206-.375-.052-.44-.271-.065-.219.194-.206.363.013.259.013.544-.335.557-.336.013-.387-.273-.413-.52s-.026-.505-.296-.647c-.361-.311-.839-.194-1.238-.376-.323-.246-.336-.582-.297-.945a1.28 1.28 0 0 1 .065-.208c.116-.155.232-.324.245-.531.025-.402-.258-.35-.49-.337-.22.013-.413.155-.619.194a.677.677 0 0 1-.323-.038c-.451-.492-1.044-.519-1.65-.467-.903-.065-1.818.155-2.695-.311-.309-.169-.76-.039-1.031.298-.348.44-.774.816-1.057 1.309l-.168 6.271c.013.311.026.61-.039.92-.013.052-.025.105-.064.13-.555.298-.555.35.077.83a.38.38 0 0 1 .052.207c-.619.48-.606 1.243-.542 1.852.039.363.323 1.037 1.019 1.011.503.843.554 1.698.155 2.58.116.621.296 1.204 1.018 1.36.374.22.426.647.49.984.065.376.309.778.245 1.076-.155.648.425 1.438-.361 1.956-.155.104-.064.272.052.389.038.052.051.104.103.155-.052-.077-.103-.155-.168-.22.245-.531.58-.673.825-.284.284.44.581.53 1.058.4.232-.064.502.053.644.3-.657 1.023-.657 1.022.323 1.916.077.065.167.118.232.183.232.609-.065.842-.619.907-.207.026-.439.038-.464.297-.026.246.141.402.374.52 1.508.686 1.431 1.126 1.237 2.59-.038.325-.116.649.013.973.026.259-.077.491-.116.737-.064.402-.284.429-.58.183-.065-.052-.142-.104-.232-.052-.284.324-.052.738-.194 1.075a.47.47 0 0 1-.309.104c.271.013.58.104.516-.376-.142-.181-.194-.35.013-.519.167-.13.322-.064.477.027.27.155.412.427.619.725.167-.233.245-.57.593-.557a.504.504 0 0 1 .193.077c.206.402-.232.882.142 1.27.077.234-.09.376-.232.583.193-.233.374-.426.142-.699-.052-.285.025-.44.348-.402.27.233.258.596.399.88.013.156-.141.313.039.455.078.039.155.052.232.104.103.803.58 1.464.825 2.216.078.233.258.44.142.699-.322.195-.464-.012-.593-.272.052.467.426.311.684.376.219.272.528.505.541.906 0 .169-.039.338-.09.506a.594.594 0 0 1-.103.142c-.013.013-.052.04-.052.066a.328.328 0 0 1 .155-.104c.387.065.49.414.644.686.323.596.465 1.27.774 1.867.155.298.297.686-.258.803l-.038-.039c-.026 0-.052.013-.039.039 0 .013.013.012.051.025.374-.103.671-.103.761.376.116.648.838 1.245.155 1.958-.065.065.116.064.026.025-.026-.013 0-.025.025-.064.194-.298.452-.338.529.025.271 1.192.98 2.255 1.019 3.538.012.298.283.674.438 1.011.039.311.103.608.168.906.038.441.038.882.129 1.31a1.71 1.71 0 0 1 .025.245l.039 3.098.103.362c.039.428.155.843.232 1.271.039.22.013.427.013.647-.039.143-.142.298.078.389.309.544.244 1.205.606 1.736.038.026.051.065.025.104.271.751.581 1.491.658 2.294.116 1.348.09 2.695 0 4.056-.026.35.077.712-.258.997-.168.142-.013.336-.013.505.013.855.116 1.711-.116 2.553-.039.117-.129.298 0 .35.593.233.645 1.115 1.444 1.115.335 0 .4.428.374.739-.026.285-.142.543-.477.621-.052.013-.309-.182-.181.064.181.35.142.584-.09.895-.155.22.258.363.284.609a.532.532 0 0 1 .103.311c-.013.13-.064.26-.181.311-.309.13-.386.311-.283.648s.348.337.593.324c.322-.013.657.064.98-.014a.622.622 0 0 1 .309 0c.207.065.232.221.219.415-.012.117-.012.247.013.364.052.142.168.258.181.413-.026.247-.194.467-.142.739-.026.35.103.519.477.519.348 0 .722.091.89-.363.09-.246.142-.596.516-.531.386.077.36.427.373.699.581-.194.89-.828 1.535-.945l.038-.039.039.039c.516.337 1.083.519 1.715.48.374-.026.761.038 1.122.141l.038-.025.039.025c.413.324.877.571 1.199.999.838 1.244-.361 3.369-2.011 3.356-1.174-.013-2.36.154-3.533-.131-.413-.103-.787-.387-1.238-.31-.851-.401-1.753-.661-2.669-.83s-1.779-.557-2.759-.428c-.477.065-.954-.284-1.483-.258-.18.013-.232-.169-.245-.338-.038-.323-.258-.544-.477-.764-.116-.078-.232-.155-.374-.181-1.044-.311-1.044-.31-.902-1.308.013-.104-.129-.014-.026-.027.039 0 .052.013.039.065-.052.22-.026.48-.219.622-.22.156-.375.013-.478-.195-.116-1.256.116-2.526 0-3.783-.025-.285-.154-.466-.27-.673-.142-.169-.181-.389-.284-.584l-1.882-5.092-1.715-4.911c-.632-1.71-1.045-3.487-1.406-5.249-.219-1.127-.683-2.306-.27-3.512.399-.155.799-.413 1.16.079-.065-.156-.193-.26-.245-.415-.064-.207-.077-.44.103-.557.168-.104.31.104.439.22.103.091.167.285.348.169-.026 0 .09-.052-.013-.013-.09.039.038-.039-.065 0-.786-.402-.593-1.219-.722-1.854-.193-.985-.283-1.982-.786-2.876a2.092 2.092 0 0 0-.323-.428c-.399-.492-.425-1.088-.425-1.736-.297.026-.413.427-.683.22l.012.013c-.438-.791-.902-1.542-1.547-2.177-.051-.168-.18-.298-.232-.479-.129-.48-.412-.907-.412-1.438 0-.35-.465-.324-.645-.571-.232-.311-.554-.609.18-.635.336-.013.49-.324.748-.492.091-.078.181-.156.219-.272.026-.065.078-.168.026-.181-.103-.039-.129.103-.219.142a.466.466 0 0 1-.296.026.447.447 0 0 1-.168-.104c-.155-.194-.361-.064-.542-.052-.67-.194-1.328-.362-1.998-.012-.555-.078-.993-.545-1.586-.48a1.368 1.368 0 0 0-.851-.012c-1.728 0-2.888.854-3.546 2.422-.167.388-.412.687-.67.998-.361.441-.567.337-.671-.168-.116.57.619.893.426 1.489-.387.609-.567 1.309-1.057 1.892-.31.363-.194 1.012-.516 1.465-.09.143-.142.259-.335.194-.168-.156-.284-.323-.245-.57-.026-.038.09-.078.025-.091-.09-.026.039-.038-.013.052-.116.298.091.454.246.635-.31.61-.207 1.425-.942 1.814-.129.065 0 .169.013.259.026.13.065.325-.026.363-.967.519-.399 1.581-.825 2.281-.309.687-.322 1.386-.206 2.112.026.09-.129.207-.077.22.593.233.567.725.477 1.192-.258 1.283-.361 2.592-.748 3.835v-.012c-.464.725-.464 1.607-.645 2.41-.258 1.154-.271 2.372-.567 3.512l-.774 3.875c-.245.868-.335 1.788-.593 2.656-.052.194.052.713-.4.531-.386-.155-.167-.518-.038-.803-.245.324-.31.686-.271 1.088.284-.039.812-.311.49.401-.103.233-.193.48-.193.739 0 .221-.026.35-.323.401a.578.578 0 0 0-.425.818c.322.674.103 1.23-.129 1.826-.078.194-.155.376-.142.583-.077.713-.464 1.296-.722 1.944l-.297.609c-.399.168-.283.635-.502.907-.22.194-.181.467-.194.726l-.696 2.306c-.206.674-.555.7-1.083.7-.451.013-1.019-.156-1.174.531-.103.091-.232.143-.309.22a1.14 1.14 0 0 0 .258-.193c.064-.026.168-.014.193-.079.142-.427.529-.479.851-.44.374.039.361.427.4.712-.077.272-.284.416-.49.558-.232.078-.477.117-.645.324-.657.415-1.392.298-2.075.194l-2.399-.311c-.077 0-.154-.013-.219-.026-.941-.324-1.934-.505-2.836-.932-.813-.376-1.109-1.465-.722-2.23a.764.764 0 0 0 .219-.609c.142-.492.58-.802.773-1.269.052-.052.104-.091.168-.091.232.052.438.194.658.272.296.194.49.104.606-.207.077-.234-.039-.363-.245-.453a.695.695 0 0 1-.181-.117c-.206-.479.284-.687.387-1.05l.438-.401c.31-.039.671.039.722-.441.026-.246.103-.467.413-.389.271.077.296.31.258.544-.078.583.258-.22.258.078.141 0 .258.052.374.156.051.052.038.143.077.207.013.026.064-.026.064-.091-.064-.246-.283-.298-.477-.388-.09-.065-.154-.143-.154-.26.051-.181.18-.311.296-.454.039-.065.103-.154.078-.206-.477-.959.09-1.802.283-2.696l.387-2.099c.013-3.784.361-7.554.464-11.338.013-.402-.064-.817.052-1.219-.207-2.371.245-4.704.283-7.062.013-.389.245-.661.581-.816.309-.13.58-.298.812-.544.206-1.089.038-2.203.09-3.292.09-.492.49-.815.658-1.282.09-.259.232-.492.103-.803-.207-.532.167-.61.554-.61.232.013.58.221.606-.155.026-.285-.077-.61-.593-.597-.451.013-.567-.543-.67-.906-.104-.324.27-.376.515-.402.49-.052.155-.544.361-.674-.064.117-.103.337-.296.428-.322.156-.593.194-.632-.298-.129-1.374-.116-2.825-.67-4.056-.439-.959-.284-1.814-.284-2.721 0-.065-.026-.104-.09-.104-.207.221.154.61-.181.752-.348.143-.541-.182-.76-.39-.181-.259-.297-.504.09-.686.735-.336.915-.92.799-1.659.206-.22.464-.48.722-.48.542-.012.439-.336.426-.647.064-.752.373-.946 1.07-.687-.774-.648.219-.634.335-.945.103-.39-.09-.778.026-1.18.09-.31-.155-.427-.413-.492a.23.23 0 0 1-.116-.168c.452-.532.181-1.205.361-1.788-.013-.182.065-.376-.038-.544-.207-.026-.387.025-.581.051-.258.104-.503.271-.786.103-.116-.117-.206-.272-.426-.181-.232.104-.374.013-.425-.233-.284-.246-.645-.48-.232-.907.129-.324-.374-.453-.232-.777a.345.345 0 0 1 .116-.156c.038-.039.167-.013.129-.104-.039-.077-.155-.078-.245-.09-.348-.092-.709-.195-.967.194a1.49 1.49 0 0 1-.529.116 1.175 1.175 0 0 1-.425.026c-.271-.13-.233-.4-.168-.582.245-.622.193-.713-.606-.7h.013c-.284-.583-.89-.83-1.289-1.31-.323-.389-.864-.634-.916-1.217.168-.22-.155-.04-.129-.143-.4-.959-.167-1.866.194-2.773v.013c.902-1.024.747-2.241.18-3.2-.554-.933-.593-1.853-.67-2.812-.078-.907.103-1.815-.091-2.722-.038-.039-.038-.078 0-.116-.206-.7-.154-1.439-.49-2.112-.128-.272-.064-.61.194-.843-.271-.182-.516-.427-.503-.725.026-.972-.258-1.983.219-2.928.052-.091.065-.195.052-.3-.013-.362 0-.673.515-.582.478.09.581.337.374.751a.434.434 0 0 0-.051.22c.761-.79.76-.79.735-1.217-.013-.363-.013-.687-.503-.79-.426-.091-.271-.389-.013-.518.335-.156.683-.363 1.083-.312.31.065.464-.22.709-.298.232-.052.426.026.645.13-.142-.272-.155-.518.103-.712.155-.052.296-.014.387.129-.155-.635-.155-.636-.916-.908-.154-.103-.361-.181-.27-.427a.936.936 0 0 1 .425-.44c.361-.014.464-.273.529-.557.09-.402-.271-.467-.49-.636-.103-.103-.194-.208-.297-.298-.167-.247-.335-.493-.477-.765-.296-.22-.283-.595-.335-.893-.116-.674-.58-1.14-.877-1.724-.116-.233-.245-.44-.167-.712-.091-.44-.078-.973-.245-1.322-.271-.519-.22-1.374-1.096-1.452-.426-.142-.851-.22-1.29-.077-1.25.117-2.475-.194-3.713-.22-.954-.026-1.805-.286-2.656-.61-.567-.195-.348-.518-.155-.842 1.38-.764 2.876-1.205 4.397-1.594 1.135-.285 2.256-.532 3.429-.532.361 0 .465-.22.516-.544.219-1.36.207-2.785.787-4.068.283-.635.438-1.348.954-1.867.296-.518.902-.492 1.341-.777.387-.246.193.442.438.623.142-.233 0-.403-.103-.494-.541-.492-.322-.867.142-1.23.077-.116.155-.246.309-.272.761-.324 1.573-.61 2.36-.622.773-.013 1.573-.103 2.359.09.413.105.426.455.632.7.232.247.039.428-.103.649.258-.234.438-.441.064-.688-.064-.285.078-.363.323-.31.206.051.425.103.606.246a1.51 1.51 0 0 1 .412.35c.091.297.297.349.58.271.297.233.774.364.581.895-.052.142.013.077.077.077.516 0 .774.429 1.109.714.567.79 1.096 1.606 1.418 2.526v-.013a.333.333 0 0 1 .039.311c-.116.143-.335.117-.451.26.76-.376.425.478.722.634.051.103.064.22.064.324 0 .544.245.739.799.726 1.47-.039 2.953-.13 4.397.025 1.045.117 2.166-.103 3.146.48l-.013-.013c.374.311.735.635.929 1.089.077.155.09.31-.026.466-.516.454-1.083.751-1.779.726-.104 0-.194.04-.297.078-1.676.83-3.507.802-5.286 1.01a4.175 4.175 0 0 1-.761-.479c-.181-.155-.335-.337-.374-.583-.064.298.219.39.335.583.103.13.155.259.078.414-.194.246-.452.272-.722.169-.155-.104-.22-.337-.49-.194-.4.207-.709.026-.838-.208.025.026.038.195.013.376-.078.298.27.518.141.816-.154.26-.038.609-.283.83-.116.79.257 1.528.219 2.319-.013.363.451 0 .541.13-.219-.052-.567-.169-.567-.57.013-.636-.193-1.244-.219-1.866.258-.168.258-.531.528-.687.619.156.181.634.271.945.039.376-.116.804.219 1.115.593.61 1.161.312 1.715.195z"/>
    <path d="M115.745 100.954c.245.078.336.388.697.414-.052-.363-.361-.764.141-1.01.091-.039.194-.104.271-.078.065.026.129.182.103.247-.206.518.194 1.14-.296 1.632-.361.363.283.103.283.388.026.804.413 1.542.568 2.333.129.635-.181 1.361.451 1.905.051.039-.155.35-.206.532-.039.168-.078.388.103.492.232.13.412-.052.503-.22.154-.272.257-.584.399-.934.413.441-.154.688-.09.986.116.531.09.829-.58.673-.155-.039-.503.156-.142.324.258.13.052 1.023.722.453.09-.078.683 1.127.619 1.127-.322 0-.554.701-.954.143-.142-.194-.258.04-.374.092-.103.051-.09.103-.039.22.258.544-.154 1.567-.76 1.969-.039-.026-.104-.078-.104-.104.271-.713.194-1.516.503-2.216.052-1.14.129-2.254-.142-3.408-.232-.997-.206-2.06-.399-3.083-.168-.894-.387-1.089-1.161-.661l-2.707 1.516c-.619.156-1.045.686-1.677.829l-3.145 1.788c-.271.13-.362-.104-.387-.324-.026-.272.103-.492.309-.661.026-.038.065-.064.116-.051-.038-.026-.077-.014-.129.012-.167-.013-.245-.103-.245-.272 0-.013.013-.052.013-.052-.064.078 0-.038-.064.039a.344.344 0 0 1-.155.04c.309.233-.013.583.077.764.361.726-.154.933-.606 1.192-.154.156-.283.338-.541.247-.219-.233-.323-.596-.671-.7-.18-.052-.232-.48-.438-.247-.297.337-.864.104-1.057.636-.258.673-.026.959.902 1.011a.163.163 0 0 1 .052.129c0 .052-.013.064-.026.064l-1.973 1.063a.154.154 0 0 1-.193.013.259.259 0 0 1 .052-.272c-.078 0-.104.091-.168.104-.297.064-.658.013-.658.479a.477.477 0 0 1-.374.324c-.141-.013-.18-.272-.373-.156a.283.283 0 0 1-.181-.012c-.18-.117-.374-.286-.541.025a.355.355 0 0 1-.271.143c-.31-.078-.555-.324-.967-.156-.361.156-.49-.193-.335-.504.193-.376.528-.701.967-.559.361.117.683-.09 1.031.052.296.117.387-.194.503-.44.167-.35.374-.739.864-.415-.297-.233-.516-.129-.774.156-.18.207-.129.674-.451.635-.529-.065-1.109.195-1.573-.246.051-.155.18-.155.309-.155.413-.13.709-.441 1.109-.596.4-.337.812-.675 1.341-.791.181.233.554.194.683.648.104-.778-.554-.337-.683-.648 1.186-.868 2.514-1.504 3.778-2.243l7.169-4.249c.167-.104.374-.156.554-.247.052-.051.116-.064.181-.012.077.09-.233.531.244.284.155.091.297.324.452.013.335-.078-.219-.219.025-.31.168-.117.336-.117.516-.104zm45.669-27.2l-.168.156c-.309.156-.322-.052-.348-.26 0-.051-.026-.09-.078-.077-.038.454-.283.752-.683.92-.709.312-1.289.855-2.024 1.114-.181.22-.477.26-.671.467a4.01 4.01 0 0 1-1.16.621c-.49.273-1.044.39-1.56.584-.606.285-.812-.181-1.057-.57-.091-.505.335-.842.399-1.296l2.695-1.53c.245-.051.451-.258.722-.22.078.026.129.066.155.143 0 .104-.09.233-.065.285.078.13.104-.038.142-.064.258-.156.529-.143.813-.091-.31-.22-.413-.48-.194-.83.555-.155.903-.634 1.405-.88 1.148-.778 2.36-1.439 3.572-2.1l5.983-3.317c.193-.052.399-.116.502-.31.671.13.774.75 1.045 1.217.18.583-.142.778-.619 1.063l-3.314 1.93c-.425.467-.786-.258-1.328-.051.039 0 .168.104.142 0-.013-.026.013-.026.064-.04.155-.025.323-.051.4.117.09.207-.051.337-.193.44-.49.376-1.045.61-1.573.908l-2.437 1.296c-.09 0-.232-.066-.219.129-.039.207-.245.143-.348.246zm-79.152 48.71a7.028 7.028 0 0 1-1.793 1.075c-.206.091-.49.026-.644.181-.387.389-.684.143-.864-.025.438.285.09.544-.22.803-.67.376-1.392.661-1.96 1.192-.425.078-.708.48-1.147.519-.103-.052-.232-.118-.206.102a.695.695 0 0 0-.168.247c-.013.531-.36.739-.786.895-.67.22-1.367.284-2.024.569-.31.13-.761.117-.916-.285-.167-.427-.232-1.049.18-1.256.62-.337.62-.7.4-1.219-.025-.064.013-.155.052-.22.413-.907.49-.946 1.264-.427.36.246.593-.027.876-.143.258-.143.568-.234.761-.48h-.013c.76-.324 1.444-.816 2.153-1.256l2.618-1.489c.477-.065.773-.584 1.302-.532.103.143.142.375.4.285-.013 0 .025.012.025.012s0-.012-.013-.025c-.128-.078-.27-.09-.348-.22-.025-.441.465-.441.632-.726.039-.052.078-.052.13-.026.115-.064.193 0 .283.078.116.168.18.337.077.531.284.039.426-.22.632-.337.168-.064.335-.012.49.052l.18.077c.155.065.31.079.465.143a.352.352 0 0 1 .154.117c.103.194.361.363.18.635-.412.078-.721.35-1.043.596h.012c-.386.155-.812.259-1.121.557z"/>
    <path d="M83.035 120.312c-.18.324-.386.558-.812.454-.503-.129.297-.48-.116-.61.168-.246.413-.427.593-.648l4.216-2.448c.594.117 1.11-.026 1.509-.492.116.078.193.181.335.233-.09-.065-.193-.103-.27-.194-.284-.22-.09-.311.09-.428.322-.22.773-.272.992-.647.271-.35.735-.351 1.045-.61.193-.13.464-.142.632-.337.593-.388 1.147-.868 1.844-1.075.012.453-.478.66-.503 1.088-.168.078-.361.13-.336.39-.154.375-.374.738-.013 1.204.078-.168.233-.285.026-.44-.232-.182-.154-.338 0-.506.18-.104.387-.103.568-.207.257.039.373-.402.67-.194.27.194.155.44.077.66.245-.298.555-.389.929-.272a.158.158 0 0 1-.013.195c-.722.531-1.522.92-2.308 1.347-.89.298-1.663.842-2.463 1.309l-3.017 1.814.013-.014c-.696.428-1.496.636-2.153 1.154-.155-.026-.297-.129-.258-.272.103-.389-.232.038-.232-.13-.155-.272-.439.013-.606-.156-.13-.078-.194-.414-.439-.168z"/>
    <path d="M92.512 114.624c-.013-.493.335-.791.593-1.128l1.367-.893c.219-.065.464-.104.631-.299l5.003-2.928 1.392.142c.258.026.194-.141.271-.31.116-.285.258-.623.696-.662.516-.038.645.248.761.766-.296-.156-.387-.545-.67-.467-.31.078-.335.414-.452.661-.322.725-.98.324-1.431.298-.335-.026-.554.013-.8.181-.193.143-.412.337-.231.544.167.207.348-.025.477-.181.258-.298.399-.272.425.156 0 .091.219.167.348.258.104 0 .142-.051.155-.154-.116-.208-.039-.325.168-.39.335-.104.322.234.438.39.065.324-.103.556-.284.789h.013c-1.276.635-2.591 1.192-3.687 2.151h.013c-.116.065-.245.065-.374.065-.052-.013-.078-.039-.09-.065.025.026.025.064.025.129-.45.337-.98.558-1.392.947l.013.012c-.49.13-.812.648-1.367.609-.464.091-.825.363-1.238.635-.09-.285.13-.35.207-.48.103-.168.141-.387-.04-.465-.257-.104-.102.207-.193.285-.206.194-.27-.13-.438-.13-.348 0-.374-.207-.31-.466zm58.691-34.414c.193-.13.154-.533.516-.455l.644.116c-.142.311.116.662-.18.986-.361.415-.091.959.412.972.116 0 .245.09.194.154-.336.415.142.558.245.83a.5.5 0 0 1-.142.324.38.38 0 0 1-.542-.064c-.464-.596-.915-.416-1.418-.079-.284.194-.619.312-.928.454-.31.091-.568.31-.877.414l-2.94 1.451a.372.372 0 0 1-.206.013c-.838-.207-.825-.842-.735-1.503-.077-.194-.013-.35.116-.492 1.031-.817 2.192-1.412 3.404-1.917a2.16 2.16 0 0 0 .683-.195.517.517 0 0 1 .194-.038c.451-.026.619-.493.98-.662a.464.464 0 0 1 .18-.09c.271.143.516.117.735-.103 0-.013.026-.014.026-.027-.039.039-.078.065-.116.104-.168.052-.271.013-.245-.194zm8.702-15.876l1.495-.946c.516-.143 1.045-.337 1.586-.143.735.518.812.946.245 1.607-.774.868-1.818 1.308-2.836 1.8-.374.13-.748.247-1.096-.09-.155-.31-.284-.622-.542-.882-.219-.22-.258-.465-.077-.737.271-.065.554-.027.773-.234.026-.026.129.105.116-.05.065-.156.207-.234.336-.325zm-43.553 25.411c0 .194 0 .388.245.48.258.09.245.27.051.452-.296.052-.464.208-.412.506.064.311.374.182.554.26.039.142.078.362.271.168.632-.674.439.012.49.297.49.48.58-.013.761-.311.258.26.515-.26.76 0 .104.26-.412.52 0 .766 0 .647.168 1.347-.464 1.84.503-.26.8.09.709.452-.128.48.104.946-.09 1.4-.361.13-.683.168-.709-.364.026-.142.155-.272.103-.427-.245-.104-.528.299-.76-.09-.207-.324-.31-.623-.104-.986.103-.181.155-.387.181-.582.026-.272-.039-.544-.426-.467-.219.052-.373-.116-.58-.129l-.464-.298a1.12 1.12 0 0 0-.787-.635c-.528-.415-.992-.88-1.186-1.542-.077-.259-.206-.493-.141-.778l.309-.154c.335.272.606.128.877-.118.335-.078.619-.051.812.26zm40.511 48.995c-.528.311-1.122-.117-1.663.117-.103-.376-.271-.739-.284-1.115s.323-.052.464-.143c.104-.065.181-.168.258-.258.09-.078.103-.17.013-.234-.077-.052-.116.039-.168.078-.27.117.065-.842-.477-.259-.09.09-.193-.026-.219-.129-.064-.143.026-.26.142-.312.464-.233.671-.518.284-1.011-.039-.052-.129-.375.142-.245.502.246.528-.182.567-.428.052-.35-.065-.687-.503-.687-.335 0-.464-.169-.632-.415-.09-.117-.09-.92-.631-.311-.078.077-.168-.065-.168-.169-.013-.181-.039-.374 0-.53.284-.972.451-1.945.026-2.929-.052-.117-.039-.311.09-.337.683-.143.477-.673.477-1.101l.013-3.758c.051-.065.116-.065.168 0 .103 1.918.141 3.822-.142 5.727-.142.959-.116 1.93.167 2.876.22.713.774.7 1.328.752.58.376.477.999.426 1.53-.065.674-.219 1.321.361 1.865.064.065.129.246.09.272-.451.389 0 .804-.129 1.154zm-42.949-74.652c-.193.389.103.635.335.972l-1.095-.363c-.323 0-.361.376-.606.467-.529-.246-.8.362-1.277.284.284.299.864.04.864.389-.013.544.232 1.232-.142 1.634-.245.259-.645.388-.786.79-.013.038-.129.077-.194.064-.129-.026-.129-.142-.116-.246.052-.272.052-.583.194-.803.219-.35-.065-.246-.194-.272-.167-.04-.451-.247-.464.116-.039.959-.503 1.853-.348 2.851.077.518.129.997.696 1.205.181.065.232.182.219.35s-.116.233-.258.169c-.567-.285-.322.207-.296.363.026.194.155.375.258.544.348.544.129 1.127.154 1.684-.438-.492-.361-1.153-.515-1.723a11.386 11.386 0 0 1-.335-4.523c.18-1.451.967-2.683 1.869-3.823.387-.492.696-1.061 1.264-1.386l.322.35c0 .039-.013.065-.013.104-.09.337.039.57.322.739.039-.013.091.012.142.064zm37.108 75.726a90.899 90.899 0 0 0-.309-.311c.193-.156.18-.312 0-.455.013-.103.167-.206 0-.309-.181-.467-.271-.882.477-.752.103.039.193.064.27.142.967.842 2.089 1.386 3.288 1.814-.27.622-1.044.66-1.366 1.217-.078.143-.232.221-.387.131-.168-.091-.065-.208 0-.324.142-.259.077-.57-.155-.648-.361-.104-.245.272-.309.467-.155.518-.774.75-1.509.517-.503-.168-.309-.544-.167-.88-.013-.221.373-.337.167-.609zm-29.152 1.711c-.245-.441.194-.674.31-1.011.09-.272.245-.634.09-.79-.58-.583-.18-1.076.052-1.594.025-.052.013-.116.038-.142.168-.142.593.596.555-.168-.013-.35.116-.635.283-.92a3.17 3.17 0 0 1-.167-.052c-.297-.026-.181.57-.529.401-.374-.194.09-.44.026-.66-.142-.493.4-.816.271-1.309-.026-.104.09-.208.193-.169.245.077.258.285.219.506-.038.272-.464.479-.09.88.142-.557.503-.959.387-1.555-.09-.531.258-1.01.399-1.489.207-.752.091-1.542.478-2.268.206-.376.154-.894-.065-1.335-.064-.129-.155-.285.013-.415.245-.181.219.234.4.195.103-1.594.283-3.175.748-4.704.141-.479-.104-1.114.528-1.412l-.309 1.788c-.361 1.529-.49 3.109-.838 4.625l-1.315 6.207a102.52 102.52 0 0 1-1.367 5.197c-.103.104-.142.246-.31.194z"/>
    <path d="M149.113 140.889c.155.091.336.234.4-.077.052-.259.09-.492.387-.583-.206 1.101-.206 1.102.851 1.27.039.169.116.273.309.156.232.35.787.492.632 1.075-.064.234.142.117.232.13 2.257.22 4.474.57 6.589 1.451.026.013.038.039.051.052-.038.116-.103.129-.193.064-2.244-.648-4.487-1.256-6.859-1.14-.658.039-1.341-.143-1.831-.687l-.542-.984c-.167-.221-.27-.48-.026-.727zm8.047-68.054c-.116-.311.386-.83-.361-.96-.207-.038.309-.142.193-.375-.451-.894 0-2.163-.658-2.785-.554-.519-.129-.843-.219-1.219-.09-.363-.309-.726-.786-.907a.21.21 0 0 1-.116-.31c.567-.778-.103-1.232-.49-1.686-.361-.428-.709-1.023-1.457-.829-.09.026-.245.052-.245.091-.026.156.258.414-.116.466-.168.026-.232-.181-.271-.324-.09-.285.026-.505.271-.648.103-.065.219-.077.425-.129-.425-.324-.593-.687-.619-1.192-.051-.881-.399-1.646-1.341-1.944.168-.22.374-.233.606-.143.71.428.787 1.218.967 1.892.194.713.542 1.257 1.096 1.672 1.586 1.192 2.063 2.954 2.566 4.755.335 1.192.142 2.475.761 3.616.155.272.116.648-.013.959-.077.065-.142.052-.193 0zm-3.378 3.848c.309.143.361.817.915.454.207.402-.18.453-.36.582-.297.208-.607.403-.955.52-.412.414-1.108.232-1.508.763-.181.234-.387-.336-.684-.336-.296-.285-.09-.454.155-.623.065-.013.09-.037.065-.102-.013-.026-.039-.052-.052-.052v-.156c.258-.246-.155-.376-.116-.583.026-.156.129-.246.258-.324l.877-.492c.503-.078.902.362 1.405.35zM125.674 52.57c.27.012.528-.014.76-.156.207-.182.413-.156.619 0 1.483.038 2.979-.221 4.371-.571.761-.194 1.56-.557 2.373-.752.27-.064.425-.361.734-.361-.141.44-.528.57-.915.712-1.38.505-2.811.712-4.242.958-1.392.233-2.798.363-4.19.48-.336.025-.516.168-.219.466.309.324.244.7.244 1.076 0 1.27.091 1.373 1.316 1.36a3.38 3.38 0 0 1 .374.026c-.568.35-1.122.608-1.677-.014-.386-.336-.103-.84-.309-1.23-.09-.297.361-.686-.155-.92-.129.014-.232-.038-.309-.155.129-.298-.271-.48-.155-.765.426-.39.903-.284 1.38-.155zm-7.027 43.005c-.065.518.361.376.606.467.038.155.193.4-.116.349-.194-.026-.387-.195-.49.064-.116.311.296.157.361.338.051.13.193.233.116.401-1.083-.389-1.289-.337-1.238.376-.928-.104-1.096.532-1.225 1.231.258.648.026 1.089-.541 1.439-.232.142-.684.246-.387.712-.116.181-.297.143-.464.156-.245.207-.503.206-.774.025-.051-.013-.103-.012-.155-.025.181-.13.361-.272.555-.376 1.005-.467 1.702-1.076 1.457-2.358-.129-.648.361-1.011.877-1.283.27-.143.567-.233.825-.389.554-.35.58-.855.013-1.192-.4-.246-.568-.57-.452-.959.245-.764-.116-1.192-.683-1.555.219-.194.58.13.748-.22.116.35.928.467.335 1.063-.142.155-.206.402-.271.622-.09.298.142.493.31.648.245.22.219-.156.335-.207.348-.156.554-.092.387.349-.013.13-.103.207-.129.324zm-.465 54.372a.908.908 0 0 0 .451-.453c-.026-.363.193-.35.451-.311-.271.868-.941 1.373-1.753 1.503-.916.155-1.857.155-2.785-.104-.851-.233-1.767-.052-2.605-.415-.438-.194-.928-.232-1.366-.401-1.096-.415-1.999-1.296-1.277-2.967.284-.648.567-1.282 1.07-1.8.065.064.078.128.026.206.09.648-.709.804-.761 1.374.091.207-.051.336-.154.465-.387.648-.31 1.103.257 1.686.31.324.619.53.98.725.194.103.168.077.4-.143.194-.194.4.014.49.13.606.803 1.509.829 2.347.79.812-.039 1.521.376 2.32.35.465-.013.903-.065 1.316-.324.141-.207.412-.168.593-.311zm17.265-46.868c.619 0 1.173.181 1.689.492.206-.155.425-.246.696-.233.219.013.4.234.297.312-.452.349.077.699-.065 1.023-.064.039-.129.038-.193-.014l-.748-.634c-1.947-1.801-5.389-.44-6.021 1.996-.039.168-.052.348-.207.478-.18.298-.077.713-.412.946-.129.143-.039.48-.387.428.064-.544-.58-.816-.503-1.399.039-.221-.245-.584.103-.623.335-.039.194.39.245.61.013.078.039.143.078.311.399-.531.967-.856 1.109-1.478.18-.777 1.005-1.1 1.199-1.865.012-.038.167-.065.257-.078l2.102-.285c.271-.065.516-.065.761.013z"/>
    <path d="M130.109 107.86l.297-.466c.129.155.116.297.013.453l-3.636 7.852c-.232.065.052.505-.335.453-.013-.259-.013-.505.154-.725.181-.246.258-.57.026-.764-.477-.415.168-.493.194-.765.038-.44.348.155.502-.065.065-.169-.051-.285-.141-.402s-.284-.22-.207-.375c.116-.234.284-.039.451-.013.465.065.168-.493.452-.583-.271-.467.167-.597.387-.843.038-.052.013-.142.025-.22.413-.285.71-.674.581-1.179-.116-.441.051-.609.386-.829.503-.35.387-1.114.851-1.529zm22.306 4.315c-.632-.583-.451-1.438-.671-2.164-.258-.829-.67-1.607-.799-2.605-.297.324-.335.726-.683.855-.155-.207-.026-.44.038-.505.632-.557.09-1.153.039-1.71-.026-.272-.09-.881-.722-.544-.026.013-.168-.169-.258-.247-.065-.168.013-.193.155-.154.296-.078.412-.183.283-.39-.49-.79-.477-1.814-1.186-2.5a.578.578 0 0 0-.309-.181v-.156a.352.352 0 0 1 .412-.078c.168.142.194.389.374.531a69.24 69.24 0 0 1 2.618 6.699c.296.868.683 1.723.747 2.669.065.156.104.324-.038.48zm-38.656 30.412l.155.155c.09.104.078.208 0 .312l-.683.544c-.077-.415.503-.778-.039-1.231-.064.466-.103.893-.516 1.088-.232.116-.296-.22-.489-.285 1.083-1.127 1.676-2.539 2.127-4.003.103-.324.064-.7.077-1.063.013-.298.078-.544.297-.752.052-.077.103-.064.155 0l-.697 3.213c-.154.466-.129.765.155 1.063.374.401.039.492-.232.635-.219.013-.258.168-.31.324zm-11.318-89.552l1.663.454c.245.065.632.466.709-.195 0-.013.168-.051.18-.025.452.803 1.238.193 1.831.413.645.247 1.354.065 2.037.104.426-.155.813.066 1.225.143.98-.13.954.778 1.187 1.296.206.453.128 1.036.167 1.567-.18-.259-.374-.531-.296-.842.167-.739-.568-1.075-.684-1.684-.038-.207-.348-.169-.541-.169l-5.248-.232a6.432 6.432 0 0 1-2.23-.662c-.052-.039-.065-.065-.052-.104.013-.052.026-.064.052-.064zm42.651 63.43c-.039.181.09.401-.168.556-.232-.233-.271-.661-.696-.751-.181.57.619.764.49 1.399-.464-.389-.89-.842-1.522-.608.155-.363.735-.298.774-.765.09-.984.142-1.983-.129-2.941-.193-.674-.49-1.309-.735-1.957.4.363.735.648.903 1.309.232.946-.129 2.113.799 2.877.077.052.103.142.039.181-.684.518.038.518.245.7zm-1.381-20.735a1.478 1.478 0 0 1 .155-1.386c.09.09.168.182.31.156.09.077.193.234.283.234.219-.013.181-.209.116-.338-.142-.272.129-.337.219-.505.271-.078.271.337.529.285.322-.013.696-.18.864.286.361.57-.013.725-.477.816-.516.065-.348.505-.451.868-.465-.195-.426-.752-.787-.96-.129-.077-.219-.22-.387-.142-.193.103-.103.247-.051.39-.039.168-.052.362-.323.297zm-24.626 53.452l-.452.311c-.18-.311-.232-.829-.799-.479-.09.052-.168.078-.193.195-.065.375-.065.375-.374.116 0-.35-.49-1.024.515-.687.181.052.606-.143.955-.104.992.13.657-.828.941-1.269.296-.466.335-1.076.49-1.633.09-.195-.026-.44.155-.622.296-.233-.116-.984.631-.907-.593 1.348-.786 2.838-1.366 4.198-.129.337-.361.583-.503.881z"/>
    <path d="M114.829 137.365h-.154c-.091-3.641.425-7.269.335-10.91-.013-.622.168-1.244.258-1.866.013 2.54-.116 5.079-.245 7.606-.091 1.71-.258 3.434-.194 5.17zm5.043-95.706c-.413-.544-.954-.7-1.612-.635-.193.012-.387-.092-.528.141-.116.195-.297.233-.426.052-.245-.363-.387-.259-.696-.012-.245.194-.696.09-1.058.155-.335.052-.67.208-1.031.143 1.225-.855 2.605-1.037 4.023-.79.773.142 1.573.297 2.256.776.039.04.052.078.039.104-.013.039-.026.052-.039.052-.322.039-.619-.57-.928.014zm-9.026 32.718c.258.22.155.517.155.79-.013 1.204.013 2.397.168 3.59.025.206.077.4.232.543 1.147 1.01.606 2.28.49 3.472-.026.233-.271.272-.464.337-.078-.272.141-.415.244-.609.297-.57.426-1.205.078-1.763-1.225-1.995-.929-4.183-.903-6.36zm41.067 70.063c.065-.026.129-.039.193-.065l2.076.415c.516.104 1.045.246 1.522-.13.129-.104.283-.065.425 0a1.98 1.98 0 0 0 2.295-.557c.774-.881.877-1.594.361-2.578-.038-.039-.051-.078-.025-.117.012-.039.038-.052.051-.052 1.045.804.374 2.993-1.07 3.512-1.199.427-2.45.272-3.675.13-.722-.091-1.431-.377-2.153-.558zm9.502-70.684l.296-.299c-.038-.142.013-.193.155-.154.464-.324.915-.868 1.392-.92.723-.065 1.161-.558 1.767-.765.425-.143.786-.428 1.134-.752-.425-.298-.554.234-.889.182.155-.609.683-.738.993-.44.296.272.425.026.632.052.077-.052.141-.026.193.052l-5.132 2.876c-.155.103-.322.194-.541.168zM108.1 105.864c0 .194.103.297.309.31.026.35-.489.57-.27.907 1.263-.298 2.23-1.126 3.352-1.657.039.039.052.076.039.102-.013.039-.026.052-.039.052-1.186.92-2.566 1.504-3.829 2.281-.142.104-.297.103-.452.038.387-.285 1.032-.439.4-1.126-.258-.285.323-.234.271-.506-.065-.026-.116-.051-.193-.064-.155-.026-.439.259-.452-.129-.013-.234.245-.195.413-.208h.451zm37.21-11.7c-.271.09-.361-.168-.529-.285-.373-.674.052-1.334.026-2.008-.025-.752-.335-1.18-1.005-1.413-.091-.04-.194-.065-.284-.104-.309-.13-.516-.388-.516-.686 0-.35.348-.376.632-.402.49-.026.748-.246.696-.765.335.57.142.895-.464 1.05-.155.04-.413-.025-.425.22-.013.234.219.325.412.39.89.35 1.277.945 1.225 1.943-.064.7-.387 1.464.232 2.06zm7.105 18.012c.013-.155.013-.324.026-.479.477.764.541 1.658.541 2.5.013 1.892.155 3.77.361 5.635.091.791.4 1.542.606 2.32-.554-.428-.296-1.218-.735-1.697-.103-.091-.103-.195-.051-.311 0-.259-.013-.518-.013-.777-.052-.415-.181-.816-.258-1.244 0-.104-.013-.195-.013-.299-.142-.855-.026-1.709-.064-2.564-.013-.272.064-.557-.065-.816-.219-.441.039-.946-.155-1.4-.064-.272-.129-.57-.18-.868zm-18.772-63.004c-.374-.078-.735-.207-1.109-.207-.464 0-1.07-.169-1.212.7-.013-.972-.568-.96-1.225-.947-1.315.039-2.643-.025-3.958.027-.722.026-.967-.273-.916-.947.052-.078.116-.065.168 0-.013.635.271.856.928.843 1.883-.052 3.765-.026 5.647 0 .606 0 1.212.039 1.677.531zm16.953 9.993c-.141.22-.142.414.052.621.103.117.155.311-.026.376-.167.078-.258-.103-.335-.233-.09-.18-.155-.35-.09-.57.167-.622-.413-1.374-.942-1.672-.98-.57-2.011-.271-3.004-.336-.683-.039-1.367-.012-2.05-.025-.232 0-.529.103-.632-.26.348-.31.606.052.916.117 1.225.013 2.437.077 3.662.012.915-.039 1.585.207 2.024 1.036.116.22.309.403.464.598.051.116.052.233-.039.336zm.89 17.686c-.051.104-.103.195-.154.299-.142.246-.349.375-.619.453-.168 0-.348.026-.464-.142a.541.541 0 0 1-.297-.311c-.013-.169-.129-.26-.232-.376-.967-.972-.98-1.542-.077-2.552.154-.246.296-.52.606-.61l.296-.453c-.077-.169.077-.22.155-.311h.013c.051 0 .116.012.167.012-.09.493-.27.972-.67 1.231-.593.39-.671.998-.916 1.568-.077.181.013.299.116.402.116.13.271.246.361.389.439.738.98.932 1.715.401zm-.309 1.828c.4-.44.4.247.632.247.219-.855 1.07-.337 1.495-.713.052.026.078.064.065.103s-.026.052-.052.052c-.335.22-.644.467-1.006.635-.593.272-1.121.493-1.07 1.322.026.324-.27.622-.67.557-.477-.065-.748.143-.903.57-.154.052-.206-.014-.18-.17.18-.116.155-.296.155-.465.619-.155 1.418-.077 1.379-1.075-.013-.13.052-.233.142-.324.361-.233.064-.48.013-.739z"/>
    <path d="M167.113 70.71a1.085 1.085 0 0 1-.193-.051c.851-.454 1.547-1.192 2.514-1.464.49-.13.581-.869 1.238-.791.116.013.052-.415.078-.635.051-.052.103-.052.154 0 .361.103.722.181 1.096.168-1.586 1.024-3.249 1.867-4.887 2.774zm-15.925 67.406c-.103.104-.747-.232-.283.351.026.026-.129.181-.194.272h-.309c0-.415-.438-.545-.567-.882.154-.22.412.285.528-.064.065-.208.013-.428-.193-.532-.297-.142-.194-.388-.271-.621-.167-.557.039-1.075.039-1.62.013-.401-.065-.752-.31-1.062.8.362.748 1.153.593 1.71-.219.791-.025 1.309.478 1.84.167.22.528.246.489.608zM114.2 41.774c-.284.402-.555.778.052 1.18.167.117.193.44.374.868-.413-.31-.671-.142-.916-.052-.168-.324.361-.492.09-.803-.374.013-.451.673-.542.57-.412-.48-.606.116-.903.103.452-.778 1.007-1.477 1.845-1.866zm-2.76 41.323c-.116.7-.323 1.373-.245 2.099.025.285-.039.544.27.7.026.544.413.92.787 1.127.528.298.696.906 1.238 1.165.064.039.064.234.09.35l-1.947-1.801c-.877-.816-.954-2.552-.193-3.64zm-24.717 36.787c.62-.739 1.586-.959 2.321-1.529.774-.609 1.754-.829 2.502-1.451.193-.168.425-.142.657-.129l-4.912 2.915c-.18.104-.361.155-.568.194zm10.984-6.323c.155-.375.503-.596.826-.751.4-.195.593-.427.45-.854.362-.117.44.375.749.297.219-.324-.361-.323-.207-.673.465.453.89.336 1.29-.079.154-.155.374-.103.58-.077-1.148.842-2.437 1.464-3.688 2.137zm51.407 27.327c-.103.35.052.635.245.908.168.246.4.466.31.816a1.887 1.887 0 0 1-.709-1.502l.026-3.11c0-.428.012-.855-.22-1.244-.103-.156-.129-.311.026-.467.812.376.387 1.128.374 1.659l-.052 2.94zm-23.106-17.323c0-1.024.477-1.983.464-3.006 0-.48.245-.934.09-1.439-.077-.233-.077-.388-.335-.505-.284-.116.09-.182.065-.298.051-.065.115-.078.18-.013.4.35.58.803.451 1.296-.322 1.308-.335 2.708-.915 3.965zm27.774-46.882c-.361.078-.735.039-1.148.324.271-.44.207-.674-.271-.648.568-.311 1.084-.738 1.703-.945.387.544-.323.816-.284 1.27zm-42.162 67.901c.322.091.555.233.31.609-.194.272-.504.234-.762.311-.258.013-.49-.026-.606-.311 0-.182.091-.349.129-.518.284-.427.671-.778 1.071-1.102.129.402-.374.61-.284.998.039.13.09.078.142.013zM88.541 116.62c-.451.181-.36.777-.812 1.036-.116-.389-.361-.635-.787-.596.864-.544 1.728-1.114 2.657-1.528.064.375-.181.428-.465.531-.245.078-.734.026-.593.557z"/>
    <path d="M114.367 89.734c.142.246.167.505.142.777-.49-.584-.49-1.386-.955-1.982.258-.013.361-.234.555-.468.167.545.516.83 1.019 1.024-.271.26-.529.104-.736.156-.348.104-.167.324-.025.493zm41.567-8.438c.064.052.116.104.18.169-.064.285-.309.466-.528.48-.439.012-.619.271-.8.595-.193.337-.49.531-.877.44-.373-.09-.683.065-1.018.181-.013-.142.026-.246.142-.323.051-.052.103-.09.154-.142.104-.195.271-.298.49-.208.245.091.477.117.722.052.232-.233.091-.778.606-.778.155-.052.258-.245.464-.142.258.013.31-.233.465-.324zm-35.148-39.638v-.17c1.07.454 1.909 1.22 2.605 2.14a.256.256 0 0 1 0 .323c-.4-.285-.671-.932-1.47-.285.374-.647.4-1.114-.232-1.386-.219-.065-.49-.027-.619-.312a6.19 6.19 0 0 0-.284-.31zm37.586 31.501c-.193.609.503.648.697.985-.194.233-.297.051-.426 0-.297-.13-.568-.078-.877 0-.219.051.18.635-.284.324-.374-.26.039-.467.116-.7h.052c-.026-.052-.039-.052-.052 0l-.825.13c.309-.324.761-.377 1.109-.61.155-.039.284-.246.49-.13zm2.733.453c-.065.156-.116.311.142.311-.942.7-1.96 1.258-3.043 1.698-.077.078-.129.052-.168-.039l2.205-1.27c.542-.26.206-.855.554-1.14.168.103.155.324.31.44zm-16.787 14.903c-.529-.104-.916-.544-1.174-.894-.309-.427.013-.92.568-1.115.206-.233.464-.415.748-.544.142.039.271.104.336.247-.194.259-.516.323-.774.453-.71.376-.761.661-.207 1.283l.503.57zm13.357 52.051c-.761-.13-1.548.363-2.308-.117-.22-.142-.426-.246-.529-.492.954.207 1.96.129 2.837.609zm-15.678-30.671c.09-.038.206-.064.258-.129.116-.129-.207-.453.155-.479.335-.026.374.298.425.531.129.519-.039 1.088.258 1.594-.464-.428-.761-.998-1.096-1.517zm11.32-31.528c0-.052-.013-.103-.013-.155.49-.324 1.057-.53 1.379-1.075.464-.415 1.096-.17 1.586-.442-.902.687-1.921 1.192-2.952 1.672zm-74.575 46.066c.36-.324.27-.57-.104-.804-.129-.077-.425-.247-.154-.454.206-.168.258.144.387.234.258.182.438.777.838.09.129-.233.503.118.774.066l-1.535.92c-.09.052-.155.039-.206-.052zm38.821-14.123l-.4 2.319-.052 2.812c0 .246.078.518-.154.712l.013-3.044c-.039-.881.386-1.671.374-2.54-.013-.077.141-.168.219-.259zm28.133-15.046c-.232-.92.412.014.477-.193v-.623c.348.195.335.532.335.856-.013.738.206 1.412.426 2.099l-.323.012c-.129-.155-.09-.31-.013-.465-.116-.298-.335-.57-.296-.92a1.3 1.3 0 0 1-.451-.766h-.155zm.452-9.99c.903-.66 1.973-.972 2.94-1.516.065.169-.09.22-.155.312-.876.53-1.779 1.023-2.759 1.372a.16.16 0 0 1-.051-.116c0-.026.012-.052.025-.052z"/>
    <path d="M147.838 100.33c-.309-.751-.335-1.632-1.07-2.215-.232-.182.258-.44.155-.725.4.842.812 1.697 1.07 2.604a.325.325 0 0 1 .026.323c-.039.065-.116.065-.181.013zm-46.443 11.094c.026-.285.091-.571.284-.791h.155c.103.065.206.091.309.143a.542.542 0 0 0 .31-.299c.258-.259.516-.518.929-.324a.746.746 0 0 0 .167.027c-.657.531-1.393.907-2.154 1.244zm-16.839 9.499c.026 0 .065-.001.078-.014.464-.829 1.406-.686 2.115-1.036-.645.583-1.47.881-2.18 1.348l-.064-.065c-.039-.091-.04-.168.051-.233zm55.791-13.672l.181.467c.051.052.039.104-.026.143l-1.87-2.424.077-.079c.323-.077.452.183.606.351.413.467.774.971 1.032 1.542zm-61.603 17.184l.206.038c-.684.493-1.419.869-2.167 1.232.464-.713 1.187-1.024 1.96-1.27zm44.648-80.484v-.324c.748.804 1.289 1.698 1.534 2.787-.528-.804-.863-1.737-1.534-2.463z"/>
    <path d="M140.502 107.86c.013-.052.013-.091.026-.143.683.596 1.277 1.258 1.47 2.191l-1.496-2.048zm0-51.145l-.787-.13c-.051.35.413.182.4.532-.516-.052-.903-.246-1.161-.7a.16.16 0 0 1 .245-.04c.452-.09.89-.063 1.29.183.052.039.065.064.052.103s-.026.052-.039.052zm7.489 43.617l.026-.324c.503.713.787 1.517 1.071 2.32-.258-.038-.297-.258-.361-.453-.117-.142-.374-.195-.271-.454.038-.402-.452-.544-.452-.92-.051-.039-.064-.065-.051-.104 0-.039.013-.065.038-.065z"/>
    <path d="M139.211 56.376l-.245.039c-.142 0-.297-.014-.438-.026-.491-.272-1.007-.414-1.548-.13-.116-.413.283-.284.322-.478.619.258 1.329.18 1.909.595zm15.526 68.228h-.168c-.18-.791-.516-1.531-.593-2.347.451.726.799 1.478.761 2.347zm-28.264-6.313c-.065 0-.116 0-.18.013-.374-.739-.013-1.438.154-2.137.168-.104.065-.416.335-.455-.193.856-.58 1.685-.309 2.579zm-19.275-10.393l.452-.038c-.633.544-1.368.92-2.129 1.244v-.168c.013-.039.013-.065.026-.104.232-.324.606-.428.903-.635.09-.052.181-.104.284-.052.206.026.348-.092.464-.247zm-29.99 14.826c-.606.609-1.303 1.049-2.154 1.257.696-.454 1.367-.959 2.154-1.257zm68.941-37.45c.013.065.013.118.026.183-.413.31-.851.596-1.354.764-.129-.013-.258-.026-.323-.156.194-.298.568-.35.787-.596.052-.038.103-.078.168-.103.193-.065.387-.09.58-.065a.254.254 0 0 1 .116-.027zm13.138-18.802h-.154c-.362-.389-.503-.933-.942-1.257.142-.13.284-.259.477-.285-.051.324.091.57.31.803.193.207.361.44.309.739zm-78.095 54.295c-.53-.065-.839.57-1.38.466.593-.506 1.302-.829 1.986-1.205-.039.376-.516.389-.606.739zm77.179-47.608a6.81 6.81 0 0 0-.49.13c.555-.468 1.212-.752 1.87-1.05-.438.363-.761.868-1.38.92zm-61.127 40.389l.477.013c-.567.454-1.187.791-1.844 1.076.283-.583.954-.674 1.367-1.089zm24.626 27.978l.297-.181c-.206.765-.4 1.53-.916 2.165.039-.713.607-1.258.619-1.984z"/>
    <path d="M159.906 64.335l-.31.453c-.374-.013-.232.402-.438.544-.233-.051-.194-.44-.491-.388.4-.246.748-.57 1.239-.609zm-85.432 63.208v-.168c.336-.234.62-.531.748-.933.078-.065.155-.052.207.039.013.648-.31.997-.955 1.062zm39.119-66.369c.387.052.696.155.593.66-.077.376-.129.7-.632.532.477-.376.477-.777.039-1.192z"/>
    <path d="M75.442 126.482l-.207-.039.142-.143c.052-.052.078-.142.168-.142.438-.078.748-.506 1.238-.454-.438.272-.825.648-1.341.778zm36.036-20.902c0-.052.013-.103.013-.155.606-.155.993-.804 1.69-.766-.542.376-1.058.765-1.703.921zm23.093-55.317c-.336-.337-.761-.609-.929-1.088.529.168.98.401.929 1.088zm5.93 6.452a.26.26 0 0 1 0-.142c.619.091 1.302-.246 1.844.297l-1.844-.155zm3.972.466l-.915-.116c-.4-.13-.865.155-1.213-.207.697.155 1.484-.22 2.128.323zm14.351 84.164c0 .052-.013.116-.013.168-.284-.389-.89-.415-1.058-.947a1.58 1.58 0 0 1 1.071.779zm-8.228-82.181l.013-.336c.4.194.826.374 1.058.802-.439.026-.658-.427-1.071-.466zm12.392 4.068c-.555-.155-1.045.298-1.587.143.49-.375 1.019-.492 1.587-.143zm-68.465 52.013c.49-.129.825-.621 1.367-.609-.374.402-.852.649-1.367.792v-.183zm30.866-67.446h-.167l-.142-.156c-.194-.285 0-.635-.168-.92l.013-.324c.426.376.361.92.464 1.4zm23.531 36.269l.155-.31c.335-.026.542-.427.929-.297-.284.349-.671.491-1.084.607zm-66.207 35.429c-.103.298-.18.635-.593.648a2.13 2.13 0 0 1-.18-.168c.193-.246.477-.376.773-.48zm.645 2.371c.232-.415.593-.596 1.031-.674.04-.039.09-.052.155-.026l.026.051c-.439.182-.735.597-1.212.649zm47.059-14.007l-.012-.454c.309-.221.206-.675.503-.908.025.518-.233.947-.491 1.362zm-48.155 14.602c.219-.479.645-.543 1.096-.608a2.01 2.01 0 0 1-1.096.608zm19.263-13.838c-.309.298-.632.595-1.109.595.31-.297.658-.543 1.109-.595zm14.182-16.561c.516-.116.722.169.787.636l-.787-.636z"/>
    <path d="M151.963 59.94l-.606.143c-.296-.426.323-.233.31-.466.168.052.271.155.296.324zm-49.524-6.905c0 .052 0 .104.013.156-.645-.22-.619-.544-.155-.933.039.259-.322.595.142.777zm35.446 51.61c.064-.013.115-.012.18-.025.477.026.722.246.645.752l-.065.065-.76-.792zM75.7 138.246c-.143-.026-.233-.116-.246-.258-.013-.195.142-.182.258-.169.142.013.22.117.194.272-.013.117-.09.181-.207.155zm75.49-.13c-.09-.259-.503-.259-.477-.595.374.051.542.362.748.621a1.587 1.587 0 0 0-.271-.026zm-76.123-14.149c-.129.362-.386.53-.76.479.193-.259.477-.376.76-.479zm73.713 12.309l-.026.467c-.129-.298-.362-.557-.311-.92l.337.453zM112.818 60.11c.232.207.477.414.477.764-.245-.208-.503-.402-.477-.765zm45.231 15.459l.168.038c-.206.246-.413.479-.774.466.091-.31.426-.323.606-.504zm-66.788 39.016c-.129.259-.348.349-.632.336.168-.22.387-.31.632-.336zm66.944-49.369c0 .376-.259.337-.505.312.156-.13.285-.286.505-.312zm-63.102 47.101c-.142.259-.335.389-.632.298.193-.129.387-.285.632-.298zm15.577 32.358c.013.182.052.389-.13.518h-.142c-.013-.064-.013-.142-.026-.207.051-.143.129-.259.298-.311z"/>
  </g>
  <path fill="#fff" d="M148.894 81.594a19.211 19.211 0 0 0-3.494 1.854c-.541.48-1.237.7-1.831 1.088-1.276.61-1.701.389-1.998-1.01-.155-.778-.49-1.477-.825-2.177-.451-.933-.606-1.983-.838-3.007.09-.57-.271-1.024-.374-1.543-.555-2.643-.245-5.324-.271-7.98l.026-2.216c.258-.635.773-1.102 1.199-1.607.387-.454.864-.053 1.302.077.722.324 1.483.22 2.218.09.696-.129 1.341-.142 1.857.454l.309.014c.219-.143.477-.17.709-.222.31-.064.503.066.438.415a.819.819 0 0 1-.244.557c-.052.376-.258.765.167 1.076.439.117.993-.18 1.328.338.206.13.206.336.194.53-.065.687.206 1.258.606 1.79.515.608.528 1.268.361 2.046-.233 1.075-.233 2.203-.052 3.305.271.194.542.35.915.285.49-.091.594.181.581.635l-.116 3.356c0 .298.051.635-.31.79-.348.376-.799.557-1.25.75l.012-.012c-.18.156-.438.156-.619.324z"/>
  <g fill="#333">
    <path d="M140.05 78.525c.374 1.852 1.392 3.499 1.727 5.364.155.882.697 1.01 1.728.454.297-.052.606-.09.838-.298.31-.272.671-.285 1.045-.298.038.038.09.064.103.103.103.765.206 1.05.515 1.425-.154.22-.399.13-.606.156-.129.479-.554.493-.915.622-.271.117-.438.427-.761.453-.129-.194-.399-.272-.528-.233-.606.22-1.019.272-1.303-.519-.116-.323-.515-.064-.618.3-.297-.053-.581-.17-.22-.455.709-.544.439-.998-.038-1.451.025-.35.799.338.438-.31-.374-.674-.181-1.465-.632-2.087-.528-.376-.438-1.023-.683-1.503.026-.117-.168-.065-.065-.052.026 0 .013.026.026.04.065.103.052.194-.026.271-.219.208-.348.027-.477-.129.516-.868.31-1.736 0-2.618-.129-.142-.129-.297-.025-.465.373.026.348.323.399.582.039.207-.09.453.078.648zm-1.342 26.848c-.103-.35-.373-.557-.644-.751-.09-.376-.503-.48-.671-.791.104-.104.194-.039.284-.013.155.039.335.065.348-.155.026-.273-.193-.259-.361-.233s-.335.09-.516.129c.71-.648 1.432-.246 2.141 0 .18-.013.335.013.464.155.116.143.271.26.412.376.013.026.039.051.052.077-.348.234-.425.998-1.147.584.257.233.335.686.812.556.026-.013.116.053.116.066-.103.661.348 1.217.361 1.865-.593-.583-.98-1.347-1.651-1.865z"/>
    <path d="M138.709 81.983l-.464-1.023c-.051-.169-.18-.479.207-.518.116-.013.258.26.348-.012.064-.195-.039-.337-.271-.376-.09-.013-.206-.026-.232-.169.142-.297.554.012.696-.337-.013-.156-.838-.168-.116-.505.026-.013.013-.181-.026-.272-.154-.376-.386.156-.567-.065-.077-.246.206-.363.245-.583.039-.207.271-.22.322-.065.181.61 1.045.907.529 1.865-.271.545-.387 1.283-.671 2.06zm.89-4.703l-.013.48c-.297.53-.425.102-.632-.092-.18-.156.013-.75-.554-.478-.091.039-.206-.195-.116-.299.348-.401.258-.868.219-1.308-.039-.505.387-.531.619-.752.077-.052.155-.038.206.04.065.362-.026.725.065 1.075.051.298.167.583.245.88.025.169.064.311-.039.454zm11.14 3.238c.013-.026.026-.051.026-.077.245-1.412.322-2.837.322-4.275 0-.363-.31-.337-.568-.324-.348.026-.722.076-.851-.39.349.039.684.273 1.058-.077.206-.181.593-.168.825.091s-.013.466-.142.673c-.18.272-.193.57-.193.88v3.202c.064.13.18.155.296.155-.18.48-.477.285-.773.142zm-1.379-10.417c-.555-.35-.8-.842-.722-1.503.025-.26-.052-.545-.078-.817.4.104.335.441.348.74.013.18-.051.466.258.427.258-.039.181-.26.116-.415-.141-.337.039-.53.284-.686.168-.104.284.038.387.142.271.285.065.492-.129.7-.232.104-.077.208 0 .311.091.065.142.233.052.22-.774-.051-.736.363-.516.881zm7.348 3.499a1.26 1.26 0 0 1-.606.608c-.594-.44-.735-1.179-1.135-1.788.116 0 .219.013.309 0 .787-.156 1.29-.09.748.895-.064.116.091.259.284.103.206-.194.245.156.4.181z"/>
    <path d="M139.251 74.842h-.116v-.156c-.18-.233-.284-.48-.155-.764v-4.146l.142-2.202c.013-.298.065-.584-.142-.882-.232-.324.129-.26.284-.311l.077.118-.077 6.258c.026.686.258 1.385-.013 2.085zm-14.945-20.59c.052.363.284.647.271 1.062-.039 1.075.025 1.076 1.237 1.361-.27.234-.541.415-.812.273-.322-.156-.49.232-.864.09.387-.791.052-1.581-.077-2.372-.052-.233-.039-.388.245-.414z"/>
    <path d="M141.713 65.175c-.851-.44-1.367-.064-1.766.674-.117.208-.336.363-.516.544-.052.065-.103.078-.155 0l-.026-.026c.542-.726.89-1.658 1.999-1.749.103-.013.245-.078.283-.039.787.803 1.78.233 2.656.428-.786.557-1.624.44-2.475.168zm-25.052 33.627c-.026-.13-.065-.246-.065-.376.026-.868.31-1.05 1.29-.855-.026.09-.09.207-.051.285.206.466.219.441-.271.441-.374.013-.594.35-.903.505zm34.091 12.325c.258.013.193-.337.412-.389.168.052.181.208.194.363.026.312-.091.557-.387.686-.168.078-.284-.063-.361-.206-.271-.544-.129-1.219-.581-1.711-.026-.026.039-.156.078-.195.09-.078.206-.039.245.064.103.26.464.442.271.818-.065.195-.078.401.129.57zm-11.166-30.764c.426.285.477-.064.632-.362l.593 1.75c-.554.18-.696-.376-1.044-.57.232-.337-.155-.533-.181-.818zm16.878 63.275c0 .479-.168.635-.503.635-.258 0-.567-.077-.683.299-.052.168-.258.194-.375.077-.245-.233-.012-.518-.025-.777 0-.156.167-.195.27-.104.439.363.839.168 1.316-.13z"/>
    <path d="M141.713 65.176c.838.065 1.676.193 2.488-.143.632-.026 1.303-.154 1.651.596-.658-.543-1.341-.389-2.102-.233-.657.116-1.405.284-2.037-.22zm-.993-7.798c.258-.22 1.509-.13 1.651.103.051.09.09.22-.026.245-.284.052-.722.273-.825.079-.181-.376-.555-.246-.8-.427zm-26.806 6.711h-.154c-.194-.273-.452-.532-.31-.92.89.077 1.109.35 1.006 1.256-.258 0-.271-.388-.542-.336zm11.761-11.519c-.452.091-.942-.156-1.38.155.116-.415-.491-.687-.233-1.14.31-.014.245.285.362.427.245.298.412.557.851.22.309-.246.645-.219.4.338zm28.737 29.943c-.167.311-.399.389-.67.156-.194-.169-.361-.104-.542 0 .052-.195-.297-.518.052-.57.27-.052.683-.364.915.142.039.117.155.194.245.272zm-31.793-37.627l-.103-.362c-.052-.182-.078-.39.155-.442.193-.052.232.156.257.299.052.609.658.621 1.058.997-.683.363-.877-.531-1.367-.492zm6.575 63.285c.051-.156.245-.337.09-.492-.22-.195-.181.13-.284.182-.193.091-.245-.105-.206-.182.116-.273 0-.635.322-.817.103-.052.194.014.219.131.091.337.542.622.194 1.024-.078.09-.219.102-.335.154zm-12.377-16.742c-.181.156-.297.377-.555.027-.296-.39-.142-.635.091-.92.219-.26.271-.079.309.116l-.258.401c.026.298.877-.48.413.376zm26.895 4.301l.31-.31c.18.025.541 0 .387.272-.142.259-.529.454-.865.39-.245-.04-.516-.195-.516-.571.258 0 .413.31.684.22zm-4.731-21.807c.142.233.168.505.155.765-.929.09-.478-.765-.89-1.102.412-.077.49.272.735.337zm18.578 70.064c-.18.285-.361.595-.787.569-.116 0-.219-.155-.18-.168.335-.156.271-.687.696-.713.207-.013.297.091.271.312zm-6.846-66.384c.117-.273.387-.324.62-.454-.026.208.361.415 0 .61-.374 0-.465.7-.968.375-.167-.35.594-.13.348-.531zm-1.057 2.307c.309.013.632.053.219.415a.61.61 0 0 0-.219.505c-.284.156-.503.156-.439-.259.026-.168.078-.337-.013-.505.104-.169.271-.169.452-.156zm6.087 61.201c-.052.208-.194.271-.297.207-.258-.208-.696-.143-.825-.48-.052-.104.18-.389.335-.272.271.168.632.26.787.545zm-28.096-30.01c-.27.182-.154.661-.477.817-.155.077-.322-.208-.232-.364.181-.272.155-.712.542-.816.116-.013.167.182.167.363zm18.204-15.837c.206.22.426.442.451.766-.309.013-.296.233-.296.453-.439-.117-.49-.57-.155-1.219zM119.872 41.66c.18.039.438-.105.528.142.078.22-.167.285-.309.363-.245.142-.181.44-.323.648-.645-.467.194-.764.104-1.153zm32.865 72.808c.258 1.115.078 2.255.142 3.382-.323-1.114-.065-2.255-.142-3.382zm-26.443-62.366c-.22-.233-.813-.272-.413-.816.09-.117.232-.22.387-.156.168.078.142.208.026.364-.155.194.142.284.155.453.038.142-.013.194-.155.155zm28.456 89.877c-.839.22-.839.219-1.303-.234.451-.181.825-.038 1.303.234zm-8.769-41.776c.232.207.567.31.864.465.064.039-.103.261-.207.235-.348-.052-.722-.104-.877-.493-.038-.116.052-.194.22-.207zm-27.851 11.958c-.103-.35.168-.44.194-.648.013-.155.064-.337.245-.324.18 0 .206.196.271.338.129.246-.052.297-.232.362-.142.065-.284.169-.478.272zm6.782-65.438c.245.272.103.609.168.92-.271-.13-.103-.427-.232-.634-.297-.013-.233.453-.542.428-.103-.519.064-.78.606-.714zm23.079 53.609v.155c-1.006-.013-1.045-.065-.748-1.01.258.271.103.816.593.855h.155zm-31.639-10.587c-.31-.052-.594-.207-.916-.155-.052.052-.103.052-.155 0 .129-.906.722-.18 1.071-.31.116.156.129.31 0 .465zm27.205 21.343c-.116-.104-.465-.155-.31-.298.232-.22.594-.337.916-.428.129-.039.129.169.013.26-.31.013-.103.725-.619.466zm7.608-31.658c0 .13-.013.247-.142.325-.181.077-.271.466-.529.207-.232-.246.142-.362.219-.557.168-.48.31 0 .452.025zm-37.752 8.242c.245-.207.451-.493.722-.57.206-.065.284.285.374.648-.451-.506-.619.09-1.096-.078zm32.659 8.746c.129.635-.168.894-.568 1.205.065-.57.065-.57.568-1.205zm-13.448-46.623c-.271.142-.516.465-.852.168-.038-.039-.064-.18-.038-.193.284-.207.58-.143.89.025zm17.341 27.342l.297.31a.287.287 0 0 0-.065.039c-.206.116-.387.388-.658.18-.219-.168-.374-.413.103-.44.117 0 .233.04.323-.089zm-31.627 14.448c.116.31-.193.557-.013.959-.387-.207-.683-.285-.748-.648.322.052.529-.169.761-.311zm4.279-46.701l.026.312c-.013.207.451.375.116.557-.271.155-.374-.22-.477-.389-.219-.35.064-.428.335-.48zm17.433 58.83c.258-.051-.064-.44.258-.44.129 0 .284.078.284.208-.013.285.026.622-.387.699-.129-.129-.271-.259-.155-.467zm-15.6-50.226c.128 0 .245.026.309.156.013.337-.064.596-.464.609.09-.246-.271-.583.155-.765zm22.782 12.439c0-.285-.065-.505-.426-.415-.206.052-.4.222-.645.118.232-.337.58-.35.929-.324.412.039.503.259.271.609-.026.09-.078.09-.129.012zm.903 39.38c-.168-.337-.22-.661.065-1.14.129.479.142.803-.065 1.14zm-36.979 40.197c0-.091-.142-.311.052-.247.271.091.477-.051.709-.064-.142.375-.219.906-.761.311zm1.379-80.34c.155-.376.426-.66.748-.933.206.298-.103.323-.129.466-.142.246-.309.454-.619.467zm28.121 19.306c.284.117.567.22.542.584a.22.22 0 0 1-.155.13c-.258-.142-.374-.39-.387-.714zm-2.139-28.064c-.09.556-.452.49-.955.361.336-.285.632-.361.955-.361zm14.891 87.647c-.465.31-.761.194-1.213.207.4-.414.71-.285 1.213-.207zm.697.503c-.155-.039-.284-.116-.271-.285.013-.181.142-.349.322-.323.091.013.168.221.207.35.038.168-.078.258-.258.258zm.038-1.915c-.451.142-.735.104-1.135.039.387-.349.671-.272 1.135-.039zm-31.835-98.276c-.038.182-.116.336-.335.31-.142-.013-.219-.142-.155-.272.065-.142.09-.374.323-.336.129.026.154.17.167.298zm25.956 89.736c.425.168.645.297.696.608 0 .039-.116.142-.142.13-.296-.078-.374-.337-.554-.738zm-4.087-22.859c.193.117.438.323.219.492-.258.194-.387-.168-.516-.349-.026-.272.116-.233.297-.143zm14.181 31.489c.142.026.387.051.335.206-.09.246-.283.479-.67.362-.026-.258.412-.283.335-.568zm-33.909-18.672c-.169-.402-.194-.648 0-.972.22.324.194.557 0 .972zm24.587 13.151c.026-.169-.064-.35.155-.557l.348.777-.348-.077a1.45 1.45 0 0 0-.155-.143zm-7.774-51.184c.154.22.606.052.567.491-.013.104-.129.156-.232.13-.322-.077-.323-.337-.335-.621zm-3.083-19.294c.607-.013.658.246.619.648-.296-.117-.387-.35-.619-.648zM112.162 55.03c-.4-.195-.696-.208-.606-.532a.36.36 0 0 1 .297-.18c.258.103.038.388.309.712zm1.74 88.01v-.31c.451-.039.554.258.606.608-.168.077-.232-.026-.309-.156-.117.013-.22-.013-.297-.142zm5.209-50.691c-.967-.26 0-.505 0-.764.271.259-.116.505 0 .764z"/>
    <path d="M116.352 89.746v-.467c.039.026.09.039.129.065.143.13.544.052.427.376-.103.325-.362-.052-.556.026zm-4.485-36.376c-.025.299-.064.52-.349.547-.052 0-.142-.08-.142-.118.026-.26.181-.39.491-.428zm43.618 26.386c-.362.026-.543-.13-.556-.558.375.04.517.233.556.558zm-45.399-25.84c-.426.117-.813-.117-1.225-.142.451-.272.851-.155 1.225.142zm40.305 25.449c-.271-.117-.465-.22-.349-.505.039-.09.143-.168.233-.103.246.155.104.375.116.608zm-33.021 69.922c-.309.233-.309.646-.709.62-.026 0-.09-.076-.078-.102.078-.375.4-.389.787-.518zm29.901-91.742c.374-.09.593-.078.684.297-.284.078-.452-.05-.684-.297zm8.211 24.049l-.464.143c.181-.233.129-.454-.051-.687.322.078.503.233.515.544zm-4.46 58.221c.104-.013.323-.182.233.116-.052.207-.155.415-.387.492-.31-.285.142-.388.154-.608zm-31.408 4.419c-.13-.013-.182-.103-.13-.207s.13-.26.221-.273c.168-.026.168.144.155.273a.2.2 0 0 1-.246.207zm1.469-102.265l.62.31c-.155.052-.181.337-.413.22-.219-.116-.194-.336-.207-.53zm-9.486 8.061c0 .142-.065.272-.195.272-.142 0-.207-.117-.22-.26 0-.104.039-.194.155-.22.156-.013.234.065.26.207zm14.694 2.073l.155-.156c.194.168.581.064.606.453h-.619c-.038-.091-.09-.194-.142-.297zm-15.301 1.398c0 .143-.064.247-.207.26-.117.013-.208-.079-.182-.182.039-.13.065-.324.26-.31.142 0 .129.129.129.232zm13.924 1.064c.246.375.116.84.31 1.23-.621-.285-.181-.829-.31-1.23zm13.706 11.609c-.012.13-.077.194-.194.181-.156-.013-.208-.13-.208-.272 0-.104 0-.233.13-.233.208 0 .208.207.272.324zm-24.407 77.023l.311.156c-.13.156-.22.506-.479.312-.285-.208.129-.299.168-.468zm19.856-92.896c-.013.104-.039.247-.156.182-.09-.04-.168-.182-.207-.3-.039-.103.026-.207.156-.168.116.04.194.144.207.286zM115.282 89.59h.155c-.258.543-.503.323-.761 0h.606zm12.931-37.696c-.245.246-.425.271-.657.064.206-.22.399-.18.657-.064zm.065 59.502c-.452-.103-.632-.271-.155-.607.103.181.181.387.155.607zm-.154-.606c-.104-.221-.104-.402.194-.441.064 0 .181.051.194.09.039.285-.181.312-.388.351zm10.456-53.517c.258-.116.451-.155.657.065-.219.194-.399.181-.657-.065zm5.597 53.969c-.129 0-.245.026-.31.156l-.309-.312c.348.039.258-.504.606-.465-.129.22-.129.414.013.621zm8.418 1.827c.22.453.129.933.155 1.4-.323-.441-.116-.934-.155-1.4zm.296 5.066c.181.389.298.804.259 1.245a1.999 1.999 0 0 1-.259-1.245zm-32.4-75.61c.116-.013.207.038.22.142.026.181-.104.208-.233.208-.103 0-.22 0-.233-.13-.013-.155.143-.181.246-.22zm29.165 37.385c-.116.18-.297.155-.465.155-.129-.064-.155-.181-.155-.31.22 0 .491-.22.62.155zm-4.744 43.28c-.155-.259-.168-.454.103-.648.104.259.13.454-.103.648zm-15.715-15.02c-.013.169.038.377-.195.429-.104.026-.221-.039-.195-.156.026-.208.208-.26.39-.273zm23.168 34.354c-.156-.013-.221-.078-.221-.195 0-.104.078-.182.195-.195.116 0 .207.065.181.182-.013.091-.116.156-.155.208zm-32.647.296c.129.013.142.13.142.221s-.013.22-.142.22-.143-.116-.143-.22.013-.208.143-.221zm27.335-43.822c0 .104-.013.22-.156.194a.34.34 0 0 1-.207-.169c-.039-.104.026-.195.142-.195s.195.053.221.17zm11.552 42.864c.039.052.143.13.156.208.013.155-.117.181-.247.207s-.169-.013-.143-.143c.013-.142.026-.259.234-.272zm-9.309-63.014c.129.026.258.064.246.22 0 .052-.117.144-.143.13-.116-.038-.258-.104-.297-.194-.039-.104.09-.143.194-.156zm-9.246 24.866l.156.467c-.337.039-.492-.117-.466-.467h.31z"/>
    <path d="M139.741 103.714c-.168 0-.349.026-.465-.155.077-.13.142-.298.323-.234.194.065.129.247.142.389zM149.838 69a.28.28 0 0 1-.299-.336c.013-.104.039-.222.156-.195.065.013.091.142.143.22V69zm-2.606-1.557c-.556-.272-.258-.687-.168-1.076.091.363-.064.752.168 1.076zm-7.877 14.062c.039.04.13.104.156.181.039.104-.026.194-.143.194-.104 0-.194-.038-.207-.168-.013-.104.013-.194.194-.207zm11.37 57.544c.182.013.389.065.389.26.013.26-.233.169-.389.195-.013-.143 0-.299 0-.455zm4.566-58.399c-.116.013-.194-.026-.233-.143-.026-.104-.013-.22.116-.22a.32.32 0 0 1 .221.143c.078.104.013.194-.104.22zm-6.6-22.976c.013.168-.026.247-.156.247-.103 0-.194-.039-.207-.169-.013-.104.013-.22.142-.208.091.013.169.09.221.13zm2.359 83.982c-.104.182-.22.402-.453.194-.181-.168.129-.207.155-.35.091.065.194.117.298.156zm-37.29.933c-.026-.13-.194-.259-.051-.389.129-.116.259-.052.363.078a.61.61 0 0 1-.312.311zm38.359-1.077c.051.104.116.182.09.208-.051.078-.129.168-.207.181-.143.026-.169-.09-.117-.181.039-.078.13-.117.234-.208zm-36.554-7.762c.143 0 .156.104.169.207 0 .065-.026.182-.065.195-.117.039-.182-.052-.208-.155s-.013-.196.104-.247zm32.738-31.721c-.039.181.078.402-.168.557-.221-.285-.065-.427.168-.557zm-4.126-7.529c-.025.104-.025.285-.194.22-.169-.051-.104-.246-.117-.376.13 0 .247.026.311.156zm-27.411 54.527c-.078-.052-.169-.078-.182-.117-.026-.117.065-.169.169-.156.052.013.13.078.13.117.013.052-.065.104-.117.156zm26.857-60.461c-.039.013-.104.066-.156.066-.117 0-.181-.079-.117-.183.026-.039.13-.065.182-.052.078 0 .13.052.091.169zm-32.157-10.988c-.052-.091-.117-.13-.117-.196-.012-.103.039-.194.156-.168.039.013.091.117.078.168 0 .065-.065.118-.117.196zm35.135 19.383l.013.467c-.065.09-.182.155-.234.052-.077-.22.091-.376.221-.519zm1.842 4.458l.273.455h-.415c0-.169-.026-.338.142-.455zm4.722 18.726l.051.311c-.142-.013-.363.066-.389-.129-.039-.221.208-.144.338-.182zm-2.45-47.311l-.155.312c-.156-.091-.362-.248-.259-.403.116-.195.233.182.414.09zm-10.212 31.928c-.052-.091-.117-.129-.117-.194-.013-.104.039-.194.156-.168.039.012.091.116.078.168 0 .065-.065.116-.117.194zm-17.162-58.647c-.078-.052-.169-.078-.182-.117-.026-.117.065-.169.169-.156.051 0 .129.078.129.117s-.065.09-.116.156zm-5.159 103.831a.872.872 0 0 1-.606.311c.052-.401.374-.272.606-.311zm2.142-4.91c-.013.22.078.454-.155.622-.155-.259-.168-.48.155-.622zm24.46-32.355c-.052.065-.078.156-.13.169-.129.039-.168-.078-.155-.169.013-.051.077-.129.129-.129s.104.078.156.129zm4.745-7.579l-.156.155c-.143-.104-.221-.273-.052-.377.156-.091.182.105.208.222zm1.802-27.187c.156.013.39.052.338.208-.065.194-.234.078-.338-.052v-.156zm-15.884 25.165h-.735c.245-.194.49-.194.735 0z"/>
    <path d="M147.233 65.928c.052 0 .09 0 .142-.013.013.234.039.466-.311.466l.169-.453zm11.127 76.348v.468c-.234-.156-.48-.312 0-.468zm-46.739 2.308c-.039.143.078.415-.181.364-.195-.039.013-.234.026-.364h.155zm21.353-95.292c-.117.052-.169.117-.221.104-.065 0-.181-.052-.194-.104-.039-.182.116-.104.194-.104.052 0 .104.052.221.104zm12.117 67.172c.026-.13-.052-.311.13-.389.026-.013.104.026.104.052.039.207-.104.272-.234.337zm-35.612 30.569l.156-.466c.233.259.168.401-.156.466zm36.761-48.774c-.039.039-.078.09-.117.13-.052-.066-.117-.13-.156-.209-.013-.013.026-.103.052-.103.104-.013.169.065.221.182zm-34.776-12.363c.104-.143.234-.195.376-.052.013.013-.013.09-.026.129l-.35-.077zm-4.743 22.262l-.194.168c-.438-.168-.954.583-1.367-.22-.013.415.516.467.336.843-.349-.091-.658.57-1.045-.013-.336-.531-.155-.946.103-1.4.052-.09.064-.207.206-.168.581.168.8-.233 1.045-.7-.038.752 1.032.725.916 1.49zm7.787-7.023l.774-.026c.051.052.103.117.168.129.18.065.386.157.219.351-.194.22-.232-.156-.387-.182-.155.129-.31.129-.452 0-.193.091-.18.661-.554.311-.4-.35.258-.337.232-.583zm-11.643 6.698c.31.078.671-.349.903.039.193.324-.052.675-.232 1.18-.129-.596-.426-.895-.671-1.219zm.504 2.309c-.374-.065-.542.415-.929.324.026-.376-.077-.83.606-.544.271.116.374-.584.813-.312-.039.298-.426.273-.49.532zm-1.224.636c-.169.091-.312.129-.312-.143.026-.143-.039-.39.143-.364.272.039.117.325.169.507z"/>
    <path d="M114.83 101.408h.452c-.013.155-.026.338-.194.351-.246.039-.245-.17-.258-.351zm-5.686 4.768c.247-.065.312-.012.273.066a.363.363 0 0 1-.208.181c-.077.039-.155-.026-.129-.117s.077-.169.064-.13zm-8.069 4.458c.142.104.22.273.052.377-.156.09-.182-.091-.208-.221l.156-.156zm7.334-4.459c.078-.13.143-.272.325-.233.025 0 .064.078.064.104-.077.182-.259.103-.389.129zm-.309-.309c.026-.143-.052-.311.13-.389.026-.013.104.026.104.065.039.194-.104.259-.234.324zm49.164-38.19c.348-.311.232-.635.322-1.062.232.272.555.505.529.66-.052.22-.335.415-.851.402zm7.644 3.774l-.774-.649c-.129-.117-.129-.272-.052-.428.026-.052.116-.104.181-.104.154 0 .219.13.219.26-.039.337.374.48.426.92zm-1.404.544c.129-.363.271-.7.696-.648.065.013.194.169.181.195-.194.337-.606.245-.877.453zm-8.072 4.054c-.22-.402-.465-.427-.813-.05.026-.506.207-.702.477-.663s.349.311.336.713zm2.462-.751c.142-.401.103-.713.4-.843.103-.038.18.04.193.156.065.363-.245.428-.593.687zm-.915-7.981c.026-.26-.233-.519-.026-.765.026-.026.155 0 .194.038.246.285-.013.493-.168.727zm.335 7.967c-.103 0-.219 0-.245-.116-.026-.143.103-.156.194-.156.103-.013.22 0 .246.117.038.142-.104.142-.195.155zm8.55-5.673c-.039.065-.078.182-.143.208-.142.052-.142-.09-.155-.182-.013-.103 0-.22.116-.247.143-.026.13.117.182.22zm1.162-.753c-.013.117-.078.22-.182.207-.065-.012-.13-.116-.169-.207-.013-.013.078-.117.143-.13.091-.026.195.013.208.13zm-7.533 4.003c.117 0 .208.053.195.17-.013.104-.091.195-.195.169-.051-.013-.129-.079-.142-.144-.039-.103.013-.182.142-.195zm2.387.442l-.156.155c-.129-.09-.376-.194-.207-.362s.272.078.363.207zm-.774.31c-.311-.013-.311-.233-.298-.454.311 0 .311.22.298.454zm-4.847 2.19c.038.09.09.155.09.22 0 .117-.078.182-.181.117-.039-.026-.065-.13-.052-.181 0-.065.078-.104.143-.156zm4.797-3.045c-.117.026-.182.064-.234.038s-.064-.103-.09-.168c.038-.013.103-.065.129-.052.065.052.104.104.195.182zm-85.202 52.079c.258-.35-.258-.895.49-1.076-.052.415.348.907-.49 1.076zm8.677-3.668c-.051.013-.103.014-.154.027-.09-.195-.31-.325-.284-.584.051-.078.116-.156.141-.247.04-.129.014-.349.233-.284.206.051.258.22.116.415-.09.142-.258.272-.039.428a.785.785 0 0 1-.013.245zm-6.524 2.435c-.246-.116-.607.014-.71-.361-.013-.039.078-.143.13-.143.309-.013.438.245.58.504zm3.649-2.527c-.323-.103-.478.311-.826.299-.064-.35.348-.363.361-.596.232-.012.452-.013.465.297zm-8.381 4.706c-.142-.026-.168-.13-.142-.221.039-.194.155-.311.362-.311.13 0 .194.091.143.207-.065.169-.181.299-.363.325zm4.1-1.011l.272-1.024c.284.48.142.713-.272 1.024zm2.218-2.943c.529-.22.554.078.503.518-.18-.207-.284-.402-.503-.518zm3.442-1.515c-.052-.156-.245-.337-.026-.466s.154.181.258.245c.129.091.22.208.22.376-.156-.065-.298-.104-.452-.155zm-5.93 3.434c.13.039.234.117.22.26s-.103.233-.233.233-.143-.117-.156-.221c-.013-.116 0-.246.17-.272zm-3.3 2.643c-.104-.039-.182-.104-.156-.22s.065-.273.22-.26c.17.013.143.182.13.299 0 .13-.064.194-.194.181zm1.12-.857c.065-.194-.284-.415.026-.583.04-.026.169.013.195.052.168.272-.014.401-.22.531zm.622.61a1.645 1.645 0 0 1-.169.143c-.039-.155-.35-.182-.207-.415.026-.052.13-.103.181-.09.17.052.182.207.195.362z"/>
    <path d="M83.486 120.456c.18.117.606-.698.606.156-.206-.013-.439.077-.606-.156zm-6.638 4.6c-.052.155-.142.168-.246.155-.091 0-.234-.026-.156-.155.039-.065.169-.091.26-.104.051-.013.103.065.142.104zm-1.921.478c-.013.208-.078.377-.325.416-.039-.299.104-.403.325-.416zm6.728-4.456c.143.013.311-.052.376.13.013.026-.065.13-.116.143-.195.026-.234-.118-.26-.273zm-8.43 5.467c-.104.065-.169.13-.26.156-.025.013-.116-.078-.116-.13 0-.104.078-.181.181-.181.052.013.104.078.195.155zm19.132-11.312c-.026.116-.18.246-.065.336.232.195.336.597.142.804-.064.065-.245.118-.245.118-.129-.246-.335-.507-.335-.766 0-.272.09-.596.361-.804.245.013.232.143.142.312zm-1.561 1.632c-.167-.09-.27-.18-.374-.193-.503-.078-.219-.597-.464-.804.052-.052.103-.129.142-.129.322.039.4.349.529.569.09.13.103.311.167.557z"/>
    <path d="M92.358 115.232c0-.129-.026-.246-.155-.311-.051-.181-.283-.375-.038-.53.154-.104.206.181.348.22l.31.466c-.04.415-.271.246-.465.155zm-1.87 1.931c-.62.091-.684-.336-.993-.388.425-.207.593.116.993.388zm-4.023 1.567c.31 0 .529.116.645.375.013.039-.077.156-.129.156-.335 0-.4-.285-.516-.531zm2.1-.478l-.928.375c.232-.349.412-.802.928-.375zm-.037-1.632c.361-.013.632.091.735.595-.361-.142-.658-.207-.735-.595zm-4.01 2.813c.36-.22.58-.052.8.271-.388.181-.516-.271-.8-.271zm.957-.507c-.143-.026-.299.143-.416 0-.026-.039-.013-.169.026-.195.234-.168.299.053.39.195zm-.003.002c.169.026.363.013.363.272 0 .039-.065.09-.09.09-.26 0-.234-.194-.273-.362zm12.211-7.853l.193-.077c.258.207.67.259.774.648.026.09-.039.323-.155.284-.425-.103-.503-.544-.813-.855zm2.127.038c.296-.039.463.09.618.349-.413.181-.451-.206-.619-.349zm-2.565 2.437c-.22-.013-.26-.117-.143-.285.039-.052.143-.117.169-.104.181.143 0 .259-.026.389zm48.156-29.805c-.684.026-1.11.881-1.883.596.619-.324 1.212-.686 1.883-.893-.026.103-.168.207 0 .297zm4.087-2.487c.348-.35.838-.493 1.251-.752.013.505-.787.363-.761.947 0 .103-.271-.247-.49-.195zm2.024-.894c.026-.169-.065-.454.272-.376.116.026.284.091.245.234-.09.26-.336.103-.517.142zm-1.905 1.89c-.078.04-.143.091-.182.091-.052-.013-.091-.077-.143-.116.052-.04.091-.117.13-.104.065 0 .117.064.195.13z"/>
    <path d="M148.895 81.594c.116-.272.348-.336.606-.336-.116.259-.348.31-.606.336zm12.985-17.157c0 .13-.013.247-.13.26-.142.013-.155-.104-.142-.208s.052-.207.181-.194c.039.013.078.103.091.142zm-1.881.507c-.039.039-.078.103-.143.116-.104.026-.195-.025-.221-.129-.012-.039-.129-.143.039-.143.117 0 .247-.013.325.156zm-41.221 27.962a.209.209 0 0 1-.195.194c-.117 0-.208-.064-.182-.181a.36.36 0 0 1 .195-.195c.117-.04.169.065.182.182zm-.132 2.67c-.233-.247-.039-.273.156-.312.233.247.039.286-.156.312zm.002-1.386c.052.13.142.272-.026.376-.091.052-.208.052-.221-.065-.026-.169.117-.234.247-.312zm-5.197-31.021l.31.92c-.671-.311-.736-.48-.31-.92zm38.668 76.036c.078.039.181.052.194.103.039.117-.038.182-.142.169-.052 0-.13-.065-.143-.117-.013-.026.052-.091.091-.155zm1.431-61.523c-.039-.04-.117-.065-.13-.117-.039-.117.052-.182.143-.208.052 0 .143.052.156.09.026.104-.039.183-.169.235zm4.048-3.914c.116-.208.245-.377.556-.208-.117.311-.375.156-.556.208zm-52.09 35.18c-.038-.065-.09-.13-.103-.207-.09-.467-.645.337-.619-.221.013-.22.297-.428.142-.739.516-.065.49.506.813.596.309-.09.141-.466.348-.608.284.103.103.544.451.544l-1.032.635zm33.782-42.554h.155l-.026 7.878a8.976 8.976 0 0 0 .541 3.188c.117.324.065.699.091 1.061-.336-.35-.039-.933-.452-1.243l-.051-.44c-.039-.273-.181-.532-.245-.804l-.052-1.193c-.219-2.811-.051-5.636.039-8.447zm5.31 18.051c.208-.052.324.065.428.195.013.013-.065.141-.104.154-.259.026-.324-.129-.324-.35zm.803.998c-.155-.026-.311-.051-.272-.259.013-.052.104-.13.143-.116.168.065.103.232.129.375z"/>
    <path d="M139.301 76.035c.195.234.298.493.246.804-.194-.246-.297-.506-.246-.804Z"/>
  </g>
  <g stroke="#383838" stroke-width="10">
    <path d="M66.26 139.581c12.894-1.296 18.67-7.036 18.67-7.036l-16.954-11.637-6.898-4.729s.193 6.181-10.856 9.615"/>
    <path d="M68.195 121.077s-.942 3.291-8.523 7.009m13.679-3.122s-.941 3.291-8.522 7.009m13.68-4.418s-.941 3.291-8.523 7.009"/>
  </g>
  <path fill="#333" d="M0 164.163s3.16-11.868 6.15-13.812 6.976-3.862 12.83 1.205c0 0 3.92 2.047 7.903.129s10.019-8.772 13.977-8.72 13.822 1.217 16.813-.727 13.048-12.698 19.933-10.611 11.746 7.139 15.64 11.182l14.827.233s2.927.803 6.318 5.935c0 0 1.431 4.12 4.397 4.159 2.965.052 12.777 4.174 12.623 14.112 0 0 1.895 5.001-13.913 4.742l-30.763-.492c-2.837-.052-5.738-4.068-18.606-3.278s-44.469-.713-50.4-.803-11.836-1.18-13.822-1.219-3.945-.039-3.906-2.035z"/>
</svg>