<?xml version="1.0" encoding="utf-8"?>
<!-- Generator: Adobe Illustrator 28.1.0, SVG Export Plug-In . SVG Version: 6.00 Build 0)  -->
<svg version="1.1" id="图层_1" xmlns="http://www.w3.org/2000/svg" xmlns:xlink="http://www.w3.org/1999/xlink" x="0px" y="0px"
	 viewBox="0 0 500 474.03" style="enable-background:new 0 0 500 474.03;" xml:space="preserve">
<style type="text/css">
	.st0{fill:#FFFFFF;}
</style>
<g>
	<g>
		<g>
			<path class="st0" d="M88.53,159.26c0,0,22.35,114.68,99.29,136.15c52.66,12.63,88.05-20.33,96.14-37.94
				c2.42-5.86,11.65-0.99,11.58-5.99c-0.07-5-8.35-1.56-8.44-8.22s8.74-31.78-30.78-58.75c-25.23-17.99-69.94-13.88-89.81-10.74
				c-14.99,0.33-44.49-0.81-53.68-3.18C103.65,168.22,88.53,159.26,88.53,159.26z"/>
		</g>
		<g>
			<path class="st0" d="M340.28,287.47c0,0,88.14-76.7,68.27-154.07c-15.39-51.92-61.63-66.08-80.93-64.29
				c-6.29,0.84-6.68-9.6-10.98-7.04c-4.3,2.56,2.83,8.01-2.9,11.42c-5.73,3.41-31.89,8.32-35.49,56.03
				c-2.97,30.85,22.95,67.51,35.6,83.15c7.78,12.82,21.55,38.93,24.09,48.08C340.49,269.9,340.28,287.47,340.28,287.47z"/>
		</g>
		<g>
			<path class="st0" d="M332.07,38.83c0,0-96.77-65.47-166.44-26.38c-46.22,28.22-48.03,76.54-41.34,94.73
				c2.42,5.86-7.56,8.92-3.98,12.42c3.57,3.49,7.02-4.79,11.78-0.13c4.77,4.66,16.23,28.68,63.26,19.9
				c30.58-5.06,59.35-39.52,71.2-55.77c10.39-10.81,32.09-30.83,40.28-35.63C315.03,43.15,332.07,38.83,332.07,38.83z"/>
		</g>
		<g>
			<circle class="st0" cx="246.47" cy="142.66" r="16.6"/>
		</g>
	</g>
	<g>
		<g>
			<path class="st0" d="M232.57,372.53c-5.78-14.04-15.69-32.21-31.39-41.3c-15.69-9.09-36.34-11.56-44.6-23.95
				c-8.26-12.39-19.82-25.6-21.47-19c-1.65,6.61,5.78,22.3-2.48,22.3c-8.26,0-19.82-41.59-20.65-54.66
				c-0.83-13.07,4.96-11.57-13.22-17.81c-3.56-1.22-1.65,36.2,4.13,53.92c5.78,17.72,19.82,52.41,28.91,62.32
				c9.09,9.91,38.82,16.52,48.73,29.73c9.91,13.21,21.43,25.78,14.02,42.21C92.8,401.39,17.3,309.61,17.3,200.18
				c0-63.14,25.14-120.41,65.96-162.36C32.16,83.61,0,150.13,0,224.15c0,134.5,106.16,244.19,239.26,249.88v-41.3
				C239.26,432.73,238.35,386.57,232.57,372.53z"/>
		</g>
		<g>
			<path class="st0" d="M267.43,372.53c5.78-14.04,15.69-32.21,31.39-41.3c15.69-9.09,36.34-11.56,44.6-23.95
				c8.26-12.39,19.82-25.6,21.47-19c1.65,6.61-5.78,22.3,2.48,22.3c8.26,0,19.82-41.59,20.65-54.66
				c0.83-13.07-4.96-11.57,13.22-17.81c3.56-1.22,1.65,36.2-4.13,53.92c-5.78,17.72-19.82,52.41-28.91,62.32
				c-9.09,9.91-38.82,16.52-48.73,29.73c-9.91,13.21-21.43,25.78-14.02,42.21C407.2,401.39,482.7,309.61,482.7,200.18
				c0-63.14-25.14-120.41-65.96-162.36C467.84,83.61,500,150.13,500,224.15c0,134.5-106.16,244.19-239.26,249.88v-41.3
				C260.74,432.73,261.65,386.57,267.43,372.53z"/>
		</g>
	</g>
</g>
</svg>
