<?xml version="1.0" standalone="no"?><!DOCTYPE svg PUBLIC "-//W3C//DTD SVG 1.1//EN" "http://www.w3.org/Graphics/SVG/1.1/DTD/svg11.dtd"><svg t="1724729310934" class="icon" viewBox="0 0 1024 1024" version="1.1" xmlns="http://www.w3.org/2000/svg" p-id="6885" xmlns:xlink="http://www.w3.org/1999/xlink" width="128" height="128"><path d="M512 281.6m-213.12 0a213.12 213.12 0 1 0 426.24 0 213.12 213.12 0 1 0-426.24 0Z" fill="#FCDB00" p-id="6886"></path><path d="M947.84 462.08a18.56 18.56 0 0 0-18.56-14.08 17.28 17.28 0 0 0-18.56 17.28s4.48 40.32 4.48 60.8a400.64 400.64 0 1 1-801.28 0c0-20.48 4.48-60.8 4.48-60.8A17.28 17.28 0 0 0 99.84 448a18.56 18.56 0 0 0-18.56 18.56 437.12 437.12 0 1 0 870.4 59.52 440.96 440.96 0 0 0-3.84-64z" p-id="6887"></path><path d="M512 64a224 224 0 1 0 224 224A224 224 0 0 0 512 64z m0 415.36a192 192 0 1 1 192-192 192 192 0 0 1-192 192z" p-id="6888"></path><path d="M629.76 286.08a8.32 8.32 0 1 0-16 0 97.28 97.28 0 0 1-6.4 31.36V320a8.32 8.32 0 0 0 8.32 8.96 8.96 8.96 0 0 0 7.68-6.4 144 144 0 0 0 6.4-36.48zM599.04 341.12a8.32 8.32 0 0 0-7.04 3.84 94.72 94.72 0 0 1-167.68-64 8.32 8.32 0 0 0-8.32-8.32 8.32 8.32 0 0 0-8.32 7.68 110.72 110.72 0 0 0 197.12 74.88 10.24 10.24 0 0 0 0-5.12 8.32 8.32 0 0 0-5.76-8.96zM741.12 733.44a224 224 0 0 0-448 0 226.56 226.56 0 0 0 0 26.88 16.64 16.64 0 0 0 33.28 0 192 192 0 1 1 380.16-26.88v26.88a16.64 16.64 0 0 0 33.28 0s1.28-17.92 1.28-26.88z" p-id="6889"></path></svg>