<?xml version="1.0" standalone="no"?><!DOCTYPE svg PUBLIC "-//W3C//DTD SVG 1.1//EN" "http://www.w3.org/Graphics/SVG/1.1/DTD/svg11.dtd"><svg t="1724729651484" class="icon" viewBox="0 0 1024 1024" version="1.1" xmlns="http://www.w3.org/2000/svg" p-id="17252" xmlns:xlink="http://www.w3.org/1999/xlink" width="128" height="128"><path d="M519.758 574.06c115.696 0 209.454-97.248 209.454-217.212s-93.82-217.212-209.454-217.212-209.455 97.25-209.455 217.212 93.758 217.213 209.455 217.213z m0-398.63c96.131 0 174.281 81.392 174.281 181.418 0 100.027-78.227 181.42-174.281 181.42-96.055 0-174.36-81.393-174.36-181.42 0-100.026 78.228-181.418 174.36-181.418z" fill="#333333" p-id="17253"></path><path d="M519.789 170.667c98.397 0 178.393 83.533 178.393 186.181S618.124 543.03 519.789 543.03c-98.32 0-178.456-83.533-178.456-186.182s80.059-186.181 178.456-186.181z" fill="#F8D02D" p-id="17254"></path><path d="M512 605.09c-154.003 0-279.273 125.301-279.273 279.134l35.887 0.14c0-133.586 109.195-242.549 243.386-242.549 134.206 0 243.386 100.771 243.386 241.99h35.887c0-159.123-125.27-278.714-279.273-278.714z m73.712-183.698a109.785 109.785 0 0 1-65.939 21.566 109.785 109.785 0 0 1-65.94-21.566 12.459 12.459 0 0 0-7.462-2.483c-11.28 0-16.291 13.498-7.385 20.077a134.796 134.796 0 0 0 80.772 26.469 134.811 134.811 0 0 0 80.787-26.47c8.844-6.578 3.879-20.076-7.385-20.076a12.459 12.459 0 0 0-7.448 2.483z" fill="#333333" p-id="17255"></path></svg>