<?xml version="1.0" encoding="UTF-8"?>
<svg version="1.1" xmlns="http://www.w3.org/2000/svg" width="128" height="128">
<path d="M0 0 C11.22981083 7.9948859 20.35655992 20.1459312 23.4453125 33.79296875 C25.52685457 50.52614188 24.03168002 66.05549822 13.84765625 80.02734375 C4.39773664 92.07100329 -7.0662017 99.73578979 -22.15234375 103.02734375 C-38.36423687 104.40445242 -53.61654477 102.38107617 -66.6796875 92.0234375 C-77.98144518 82.25124101 -86.95558932 70.13173344 -88.35717773 54.78442383 C-88.45532237 52.42370815 -88.4815816 50.07751016 -88.46484375 47.71484375 C-88.4592041 46.87816162 -88.45356445 46.04147949 -88.44775391 45.17944336 C-88.16185843 30.57471361 -82.63921329 17.83972955 -72.5 7.27734375 C-52.33970857 -12.04433323 -23.72895301 -14.7876084 0 0 Z M-71.796875 12.8984375 C-80.21980372 23.49640098 -84.95745039 36.45405914 -84.5 50.078125 C-82.82568183 64.28161056 -77.20218073 77.29839027 -66.171875 86.71875 C-62.6174061 89.48630083 -59.40049753 91.45913447 -55.15234375 93.02734375 C-55.03117187 92.01414062 -54.91 91.0009375 -54.78515625 89.95703125 C-54.61620592 88.60542865 -54.44691706 87.25386833 -54.27734375 85.90234375 C-54.19871094 85.2371875 -54.12007812 84.57203125 -54.0390625 83.88671875 C-53.50846349 79.72355731 -52.61047821 75.96063083 -51.15234375 72.02734375 C-52.01859375 71.40859375 -52.88484375 70.78984375 -53.77734375 70.15234375 C-60.62516693 64.44041541 -64.57761338 55.86912372 -65.4375 47.12890625 C-65.9080038 36.97084993 -63.29601302 28.60132335 -56.96484375 20.58984375 C-51.17965455 14.48678702 -43.04990822 10.96128356 -34.70703125 10.73461914 C-23.88681139 10.6335539 -16.00375533 12.44964553 -7.90625 20.10546875 C-0.75556438 27.9409639 1.37709409 36.1813313 1.1484375 46.6875 C0.28868775 56.23407186 -3.56182176 62.2143134 -10.2265625 68.93359375 C-12.35920701 70.96546726 -12.35920701 70.96546726 -13.15234375 74.02734375 C-12.5018742 75.70039832 -11.83191926 77.36589879 -11.15234375 79.02734375 C-10.71964486 81.45526527 -10.34729412 83.8945088 -10.02734375 86.33984375 C-9.85976562 87.59410156 -9.6921875 88.84835938 -9.51953125 90.140625 C-9.39835937 91.09324219 -9.2771875 92.04585938 -9.15234375 93.02734375 C4.51746048 86.79199445 12.09588732 76.79943644 17.84765625 63.02734375 C21.6531177 50.94047332 20.64047873 37.58636793 15.5234375 26.0390625 C14.07172794 23.28424357 12.51911834 20.65392704 10.84765625 18.02734375 C10.18636719 16.94839844 10.18636719 16.94839844 9.51171875 15.84765625 C2.45306006 5.36167196 -10.00812114 -1.50330431 -22.15234375 -4.28515625 C-40.75924466 -7.33739236 -59.24749541 -1.37983524 -71.796875 12.8984375 Z M-56.15234375 30.02734375 C-60.03475583 35.44021393 -61.41925539 41.405882 -61.15234375 48.02734375 C-59.57685572 56.04683609 -55.42731748 62.79514991 -49.15234375 68.02734375 C-46.38495115 68.55234385 -44.23573338 68.77699254 -41.47265625 68.76171875 C-40.37617264 68.77600922 -40.37617264 68.77600922 -39.25753784 68.79058838 C-37.7161731 68.80271394 -36.17465932 68.80195281 -34.63330078 68.7890625 C-32.28931355 68.77740329 -29.95257228 68.82957961 -27.609375 68.88671875 C-18.42617863 69.15518316 -18.42617863 69.15518316 -10.73046875 64.71875 C-9.28885539 62.94090655 -9.28885539 62.94090655 -8.15234375 61.02734375 C-7.72590576 60.36387939 -7.29946777 59.70041504 -6.86010742 59.0168457 C-3.50191061 53.42792785 -2.3719332 46.9997614 -3.62890625 40.6015625 C-6.45715562 31.35536262 -11.67020527 25.63303328 -20.02734375 20.984375 C-32.93794836 15.25529421 -47.10398726 19.80876102 -56.15234375 30.02734375 Z M-33.15234375 77.02734375 C-35.79234375 79.66734375 -38.43234375 82.30734375 -41.15234375 85.02734375 C-40.24484375 86.14109375 -39.33734375 87.25484375 -38.40234375 88.40234375 C-37.63664062 89.34207031 -37.63664062 89.34207031 -36.85546875 90.30078125 C-34.99044062 92.3772147 -34.99044062 92.3772147 -31.15234375 94.02734375 C-28.84234375 91.71734375 -26.53234375 89.40734375 -24.15234375 87.02734375 C-25.95895575 83.41411974 -26.81653346 82.18985584 -29.77734375 79.77734375 C-31.44796875 78.41609375 -31.44796875 78.41609375 -33.15234375 77.02734375 Z " fill="#058668" transform="translate(96.15234375,16.97265625)"/>
<path d="M0 0 C4.75855012 0.46652452 8.25256042 0.94287824 12 4 C16.63485048 9.68227432 18.49544721 14.97599147 17.77734375 22.2578125 C16.78772668 27.92649282 14.72901348 31.63432568 11 36 C9.515 36.495 9.515 36.495 8 37 C8.2165625 36.39414063 8.433125 35.78828125 8.65625 35.1640625 C11.15721567 27.6380084 12.19699799 21.08387549 9.9375 13.375 C7.82724795 9.69907707 5.40258051 6.79095671 2.5234375 3.69921875 C1 2 1 2 0 0 Z " fill="#058668" transform="translate(69,43)"/>
<path d="" fill="#088768" transform="translate(0,0)"/>
</svg>
