<?xml version="1.0" standalone="no"?><!DOCTYPE svg PUBLIC "-//W3C//DTD SVG 1.1//EN" "http://www.w3.org/Graphics/SVG/1.1/DTD/svg11.dtd"><svg t="1724729484048" class="icon" viewBox="0 0 1024 1024" version="1.1" xmlns="http://www.w3.org/2000/svg" p-id="15626" xmlns:xlink="http://www.w3.org/1999/xlink" width="128" height="128"><path d="M22.4 516.8c0 174.4 92.8 334.4 243.2 420.8 150.4 86.4 336 86.4 486.4 0 150.4-86.4 243.2-248 243.2-420.8 1.6-172.8-91.2-334.4-243.2-420.8-150.4-86.4-336-86.4-486.4 0s-243.2 248-243.2 420.8z" fill="#058669" p-id="15627" data-spm-anchor-id="a313x.search_index.0.i33.216a3a811rYevH" class=""></path><path d="M780.8 702.4c0-28.8-12.8-57.6-32-76.8-20.8-20.8-48-32-76.8-32-60.8 0-110.4 48-110.4 108.8s48 108.8 110.4 108.8c60.8 0 108.8-48 108.8-108.8z" fill="#FFFFFF" p-id="15628" data-spm-anchor-id="a313x.search_index.0.i36.216a3a811rYevH" class=""></path><path d="M236.8 476.8v-6.4c0-123.2 91.2-228.8 214.4-246.4 70.4-11.2 139.2 9.6 195.2 54.4 54.4 44.8 86.4 108.8 89.6 179.2 1.6 40-6.4 78.4-20.8 113.6-3.2 4.8-8 8-14.4 6.4-35.2-9.6-73.6-1.6-102.4 17.6-30.4 19.2-49.6 51.2-54.4 88-4.8 35.2 4.8 70.4 27.2 97.6 3.2 3.2 3.2 9.6 1.6 12.8-1.6 4.8-6.4 8-11.2 8h-200c-3.2 0-8-1.6-9.6-4.8-3.2-3.2-3.2-6.4-3.2-9.6 3.2-19.2 11.2-56 27.2-76.8 3.2-11.2-1.6-22.4-11.2-27.2-76.8-40-124.8-120-128-206.4z" fill="#FFFFFF" p-id="15629" data-spm-anchor-id="a313x.search_index.0.i40.216a3a811rYevH" class=""></path><path d="M560 483.2c0 27.2-16 52.8-40 67.2-24 14.4-52.8 12.8-76.8-1.6-22.4-14.4-38.4-40-38.4-65.6 0-6.4 3.2-14.4 9.6-16 6.4-3.2 14.4-3.2 17.6 0 6.4 3.2 9.6 9.6 9.6 16 0 16 8 28.8 20.8 36.8 12.8 8 28.8 8 41.6 0s19.2-20.8 19.2-35.2c0-6.4 3.2-14.4 9.6-16 6.4-3.2 14.4-3.2 17.6 0 6.4 1.6 9.6 8 9.6 14.4z" fill="#058669" p-id="15630" data-spm-anchor-id="a313x.search_index.0.i32.216a3a811rYevH" class=""></path><path d="M668.8 748.8c-8 0-16-3.2-20.8-8-4.8-4.8-8-11.2-8-17.6 0-3.2 1.6-4.8 3.2-4.8 3.2 0 4.8 1.6 4.8 3.2 0 4.8 3.2 8 6.4 11.2 8 8 20.8 8 28.8 0 3.2-3.2 6.4-8 6.4-14.4 0-3.2 1.6-4.8 4.8-4.8s4.8 1.6 4.8 4.8c0 8-3.2 14.4-8 20.8-8 6.4-14.4 9.6-22.4 9.6z" fill="#058669" p-id="15631" data-spm-anchor-id="a313x.search_index.0.i39.216a3a811rYevH" class=""></path><path d="M692.8 724.8c-3.2 0-4.8-1.6-4.8-4.8v-33.6h-24c-3.2 0-4.8-1.6-4.8-4.8 0-3.2 1.6-4.8 4.8-4.8h33.6v43.2c0 3.2-1.6 4.8-4.8 4.8z" fill="#058669" p-id="15632" data-spm-anchor-id="a313x.search_index.0.i41.216a3a811rYevH" class=""></path><path d="M668.8 712c-16 0-30.4-12.8-30.4-30.4 0-16 12.8-30.4 30.4-30.4 14.4 0 25.6 9.6 28.8 24v1.6c0 3.2-1.6 4.8-3.2 4.8-3.2 0-4.8-1.6-4.8-3.2v-1.6c-1.6-9.6-11.2-16-20.8-16-11.2 0-20.8 9.6-20.8 20.8 0 11.2 9.6 20.8 20.8 20.8 3.2 0 8-1.6 11.2-3.2 1.6-1.6 4.8 0 6.4 1.6s0 4.8-1.6 6.4c-6.4 3.2-11.2 4.8-16 4.8z" fill="#058669" p-id="15633" data-spm-anchor-id="a313x.search_index.0.i37.216a3a811rYevH" class=""></path></svg>