<svg
  xmlns="http://www.w3.org/2000/svg"
  viewBox="0 0 52 52"
  fill="none"
  class="w-12 h-12 md:w-16 md:h-16"
>
  <path
    fill="#047857"
    d="M26 51.999c14.36 0 26-11.641 26-26 0-14.36-11.64-26-26-26s-26 11.64-26 26c0 14.359 11.64 26 26 26Z"
  />
  <path
    fill="#fff"
    d="M28.153 22.798c.982.546 2.025.93 3.159.981 2.5.112 4.404-1.022 5.882-2.956.274-.364.182-.78-.192-1.022-1.003-.638-2.045-1.175-3.2-1.49-1.852-.506-3.624-.373-5.254.74a8.663 8.663 0 0 0-.952.8c-.03-.08-.06-.132-.08-.183-.912-2.39-2.623-3.877-5.114-4.423-1.792-.395-3.574-.234-5.346.151-.577.121-.78.466-.617 1.033a8.77 8.77 0 0 0 .648 1.64c1.103 2.127 2.754 3.594 5.103 4.192 1.397.354 2.794.304 4.201.07.172-.03.203.011.203.173a180.82 180.82 0 0 0 0 3.31c0 .132-.04.193-.172.234a3.268 3.268 0 0 0-1.023.526c-.77.556-1.559 1.073-2.47 1.397-.122.04-.213.05-.334-.01-1.671-.79-3.392-.932-5.164-.385-.74.233-1.478.465-2.268.486-.202.01-.425.04-.617.142-.567.294-.84.79-.85 1.417-.011 1.195-.011 2.4 0 3.595.01.911.637 1.539 1.548 1.559.729.02 1.458.05 2.177.05 1.164 0 2.248.233 3.25.85.699.426 1.428.81 2.126 1.236.304.192.638.283.992.283h6.703c.293 0 .567-.07.84-.202.537-.264.921-.689 1.245-1.185 1.195-1.802 2.552-3.492 3.878-5.203.466-.588.456-1.408-.01-2.046-.456-.628-1.296-.89-1.974-.648-.537.203-.952.567-1.327.982-.121.132-.222.152-.374.081-.415-.202-.84-.385-1.256-.577a4.532 4.532 0 0 1-1.245-.85c-.648-.628-1.377-1.154-2.227-1.489-.142-.05-.122-.152-.122-.243V22.94c0-.223.04-.253.233-.141Zm4.89-2.542a5.289 5.289 0 0 0-2.025-.253c-.496.02-.992.081-1.478.182-.07.01-.142.04-.233-.02.901-.618 1.894-.86 2.967-.77 1.154.091 2.207.517 3.21 1.063.09.05.222.081.07.223-1.134 1.124-2.45 1.823-4.09 1.752-.84-.04-1.62-.294-2.38-.669-.03-.01-.05-.04-.1-.08 1.214-.294 2.399-.537 3.614-.163.526.162.952-.09.972-.566.02-.324-.162-.578-.527-.7Zm-9.244.89c-1.397-.09-2.662-.525-3.746-1.426-.962-.8-1.62-1.813-2.085-2.967-.03-.081-.061-.162.07-.182 2.046-.324 4.06-.385 5.933.708a5 5 0 0 1 1.54 1.448c.06.091.151.173.141.314-.76-.506-1.549-.931-2.41-1.205-.516-.162-1.042-.273-1.589-.273-.405 0-.709.273-.719.648a.669.669 0 0 0 .638.678c1.225.05 2.268.587 3.27 1.225.405.264.79.547 1.195.891a8.43 8.43 0 0 1-2.238.141Zm2.855 1.256h.03v3.534h-.03v-3.534Zm3.392 9.669c.071 0 .132.02.203.02.233.031.354.173.364.385.01.213-.152.385-.384.395-.912.06-1.823.101-2.744.152-.73.04-1.448.061-2.177.112a1.267 1.267 0 0 1-.668-.143c-.638-.313-1.205-.748-1.782-1.153-.385-.264-.77-.547-1.195-.76-.344-.172-.729-.06-.9.243-.183.314-.112.699.212.901.87.517 1.67 1.124 2.51 1.69.82.548 1.701.619 2.653.548 1.256-.091 2.511-.132 3.767-.213.435-.03.85-.081 1.245-.324.607-.365.921-1.246.739-1.894-.03-.111-.03-.182.07-.263.882-.718 1.702-1.508 2.512-2.307a1.49 1.49 0 0 1 .283-.214c.223-.131.415-.101.577.081.162.192.132.355-.02.547-1.336 1.7-2.683 3.402-3.878 5.205-.162.232-.303.475-.556.627a.883.883 0 0 1-.476.152h-6.47a.966.966 0 0 1-.526-.152c-1.094-.658-2.187-1.306-3.352-1.823-.293-.121-.587-.242-.91-.242-.102.02-.203.06-.294.04-.102-.02.02-.051.02-.091a2.836 2.836 0 0 0-.72-.06c-.05.07-.12.06-.202.04.03-.061.081-.03.122-.04-.476-.082-.952-.062-1.428-.082-.445-.02-.89-.02-1.336-.01-.203 0-.294-.06-.294-.284.01-1.164.01-2.328 0-3.493 0-.172.04-.273.243-.273.84 0 1.64-.233 2.43-.496 1.873-.607 3.604-.333 5.204.82.466.335.942.648 1.397.992.8.598 1.712.882 2.673 1.034 1.033.162 2.056.272 3.088.333Z"
  />
</svg>
