<svg
  xmlns="http://www.w3.org/2000/svg"
  viewBox="0 0 52 52"
  class="w-12 h-12 md:w-16 md:h-16">
  <path
  fill="#047857"
  d="M26 51.999c14.36 0 26-11.64 26-26C52 11.64 40.36 0 26 0s-26 11.641-26 26c0 14.36 11.64 26 26 26Z"
  />
  <path
    fill="#fff"
    stroke="#fff"
    stroke-miterlimit="10"
    stroke-width="0.049"
    d="M38.62 19.678c-.051-1.043-.81-1.924-1.823-2.177-.415-.112-.85-.071-1.276-.082-.07 0-.141.021-.212-.02.101-.202.192-.394.283-.587.304-.708.415-1.437.142-2.187-.385-1.073-1.56-1.883-2.784-1.934-.8-.04-1.55.122-2.278.426-1.58.658-2.896 1.68-4.04 2.926a12.45 12.45 0 0 0-.729.881 12.36 12.36 0 0 0-2.278-2.318c-1.023-.8-2.126-1.47-3.412-1.783-.962-.233-1.903-.212-2.794.274-1.185.648-1.711 1.771-1.438 3.047.091.446.283.85.526 1.276h-.89a2.461 2.461 0 0 0-2.46 2.48v3.15c0 .1 0 .192.02.293.151.972.678 1.64 1.589 1.994.091.04.111.071.081.172a2.615 2.615 0 0 0-.111.79v9.345c0 1.437 1.073 2.511 2.51 2.511H34.56c1.427 0 2.5-1.073 2.5-2.5v-9.417c0-.233-.01-.465-.09-.688-.051-.132-.021-.172.11-.233.922-.394 1.489-1.093 1.55-2.106.05-1.174.04-2.359-.01-3.533Zm-20.665-4.83c.456-.415 1.003-.476 1.57-.385.89.152 1.66.568 2.4 1.074.758.516 1.427 1.113 2.034 1.801.02.02.03.041.06.081h-5.183a.318.318 0 0 1-.263-.11c-.405-.476-.77-.963-.911-1.58-.061-.355.03-.638.293-.881Zm6.865 21.555h-7.533c-.537 0-.81-.273-.81-.81V26.33c0-.547.273-.82.82-.82h7.513c.172 0 .202.05.202.212-.01 1.751 0 3.503 0 5.255v5.234c.01.162-.04.192-.192.192Zm0-12.645c-1.529-.01-3.048 0-4.576 0-1.499 0-3.008-.01-4.506.01-.476 0-.85-.294-.84-.83.02-.993.01-1.974.01-2.967 0-.496.283-.78.78-.78h9.152c.142 0 .182.041.182.183-.01 1.408-.01 2.805 0 4.212 0 .152-.06.172-.202.172Zm6.945-9.173c.456-.142.911-.202 1.387-.101.102.02.203.06.294.1.648.315.83.77.577 1.438-.192.507-.516.922-.87 1.327-.041.05-.092.06-.163.06h-5.163c-.02 0-.03-.01-.081-.02 1.154-1.234 2.4-2.288 4.02-2.804Zm2.714 21.818c-2.501-.01-5.002-.01-7.513 0-.152 0-.202-.03-.202-.192.01-1.751 0-3.503 0-5.255v-5.254c0-.172.05-.193.202-.193h7.513c.556 0 .82.264.82.83v9.235c.01.526-.324.84-.82.829Zm2.41-13.475c0 .546-.284.82-.82.82h-9.103c-.152 0-.192-.04-.192-.193.01-1.407.01-2.804 0-4.212 0-.141.03-.181.172-.181 1.529.01 3.068 0 4.596 0h4.506c.567 0 .84.273.84.84v2.926Z"
  />
</svg>
