<svg
  xmlns="http://www.w3.org/2000/svg"
  viewBox="0 0 52 52"
  fill="none"
  class="w-12 h-12 md:w-16 md:h-16">
  <path
  fill="#047857"
  d="M26 51.999c14.36 0 26-11.64 26-26C52 11.64 40.36 0 26 0s-26 11.641-26 26c0 14.36 11.64 26 26 26Z"
  />
  <path
  fill="#fff"
  d="M24.716 19.604c1.235.01 2.187-.101 3.29-.658.983-.496 1.864-1.145 2.491-2.076.628-.932.78-2.065.83-3.158.031-.638.173-1.864-.79-1.823-.505.02-1.032.183-1.548.223-.628.05-1.256.111-1.853.314-1.043.344-2.126.971-2.794 1.862-.962 1.266-1.347 3.959-.04 5.113.262.233.698.081.708-.294.02-.121.04-.242.06-.354-.252-.03-.506-.06-.759-.1.112.496-.314 1.396-.445 1.882-.213.74-.527 1.438-.678 2.187-.132.658-.173 1.316-.213 1.984-.04.76-.172 1.52-.172 2.279 0 .425.546.546.77.212.283-.415.971-.647 1.396-.91.476-.294.942-.618 1.418-.922 1.093-.709 2.187-1.033 3.473-1.184.516-.061.546-.861 0-.831-.638.03-1.357.182-1.975.344-.141.04-.465.102-.577.183a.508.508 0 0 1-.121.02c.06.03.131.05.192.08.122-.09.213-.384.314-.505.82-.993 2.258-1.63 3.544-1.438.263.04.698.122.88.324.274.304-.04.719-.222 1.032-.385.669-1.003 1.266-1.732 1.53-.739.272-1.62.262-2.379.08-.587-.142-1.043-.546-1.65-.445-.527.091-.304.891.223.8.151-.03.526.222.688.283.273.101.557.183.85.223.486.081.993.111 1.489.06a4.052 4.052 0 0 0 2.652-1.315c.345-.385.608-.82.83-1.287.142-.293.385-.688.284-1.032-.223-.739-1.326-1.043-1.984-1.103-1.63-.162-3.726.769-4.465 2.297-.253.527-.243 1.226.496 1.246.283.01.557-.131.82-.212.537-.152 1.286-.315 1.843-.345v-.83c-1.438.172-2.673.517-3.898 1.306-.618.395-1.225.82-1.863 1.185-.476.263-.932.475-1.246.94.253.072.517.143.77.213-.01-.759.131-1.518.172-2.278.04-.84.111-1.69.364-2.5.233-.729.486-1.438.689-2.187.142-.537.385-1.033.253-1.59-.07-.324-.618-.435-.76-.1a1.862 1.862 0 0 0-.171.778c.232-.1.475-.191.708-.292-1.063-.942-.556-3.332.304-4.264.618-.668 1.54-1.154 2.41-1.397.82-.223 1.67-.161 2.5-.313.416-.081.405-.081.405.384 0 .415-.03.841-.08 1.256-.112.901-.345 1.66-.942 2.36-.557.647-1.266 1.082-2.025 1.457-.921.455-1.741.486-2.754.486-.516-.01-.516.82.02.82Z"
  />
  <path
  fill="#fff"
  d="M15.018 18.761c.01 1.043.486 2.056 1.002 2.947.486.83 1.215 1.458 2.136 1.771.912.314 1.914.021 2.815.365.75.284 1.7.86 2.085 1.59.254.475.973.05.72-.415-.385-.74-1.155-1.226-1.863-1.62-.83-.456-1.62-.537-2.562-.557-.931-.02-1.832-.425-2.39-1.195-.576-.8-1.103-1.893-1.113-2.875-.01-.547-.84-.547-.83-.01Z"
  />
  <path
  fill="#fff"
  d="M15.483 19.19c.89-.183 1.812.05 2.652.324.77.253 1.408.587 1.944 1.205.496.567.86 1.265 1.114 1.963.273.75.516 1.53 1.114 2.087.384.374.972-.213.587-.588-.628-.607-.79-1.529-1.134-2.298-.334-.76-.79-1.488-1.387-2.055-.638-.607-1.418-.932-2.258-1.186-.921-.283-1.903-.445-2.865-.253-.517.112-.294.912.233.8Z"
  />
  <path
  fill="#fff"
  d="M17.833 21.566c.395.161.749.405 1.134.587.415.192.82.405 1.215.638a8.409 8.409 0 0 1 2.014 1.72c.142.173.436.153.588 0 .172-.171.141-.414 0-.586a8.671 8.671 0 0 0-2.177-1.853c-.405-.243-.83-.466-1.256-.659-.435-.202-.84-.465-1.285-.647-.203-.081-.456.09-.507.293-.08.233.071.415.274.506ZM22.843 24.911c.06.881.121 1.751.141 2.632.01.415.01.83.051 1.246.04.425.07.84.04 1.266-.02.222.203.415.416.415.243 0 .395-.193.415-.415.04-.405 0-.81-.03-1.216-.041-.435-.051-.86-.062-1.296a56.52 56.52 0 0 0-.141-2.632c-.03-.536-.86-.536-.83 0Z"
  />
  <path
  fill="#fff"
  d="M14.795 36.543c.324-1.093 1.367-2.106 2.572-1.893.182.03.375-.02.466-.193.476-.87 2.166-1.953 3.007-1.002.263.294.678.03.708-.293.122-1.205.962-2.248 2.218-2.36 1.387-.12 2.379.952 2.733 2.198a.425.425 0 0 0 .699.182c.405-.385 1.184-.182 1.62.03.617.294.972.82 1.245 1.438.081.192.405.273.567.151.456-.334 1.023.102 1.407.345.527.324.79.638.82 1.276.03.536.861.536.83 0-.05-.952-.424-1.519-1.234-1.995-.699-.415-1.489-.901-2.248-.345l.567.153c-.608-1.367-2.764-2.988-4.171-1.63l.698.182c-.465-1.64-1.843-2.997-3.645-2.805-1.69.182-2.774 1.57-2.936 3.19.233-.101.476-.193.709-.294-1.215-1.387-3.574-.173-4.313 1.164.152-.061.314-.121.466-.192-1.671-.304-3.129.89-3.595 2.47-.141.516.669.73.81.223Z"
  />
  <path
  fill="#fff"
  d="M14.37 36.99c2.186-.04 4.414-.06 6.59.03 2.197.092 4.374.355 6.581.355 4.11-.01 8.242-.04 12.352-.01.537 0 .537-.83 0-.83-4.11-.02-8.241.01-12.352.01-2.207 0-4.384-.264-6.58-.355-2.177-.09-4.415-.07-6.592-.03-.536.01-.536.84 0 .83ZM26.732 31.321c.537-.547 1.073-1.083 1.66-1.57a3.74 3.74 0 0 0 .659-.668c.08-.121.131-.273.222-.384.091-.122.264-.153.405-.224l-.506-.06c.486.496 1.124.81 1.66 1.246.608.486 1.165 1.012 1.722 1.548.141.132.273.274.415.406.06.06.121.12.172.182.06.06.152.273.162.08 0-.161-.06-.04-.152.031-.08.061-.152.112-.233.172a2.904 2.904 0 0 0-.395.395c-.233.294-.415.618-.648.902-.212.253-.486.394-.678.667-.304.435.415.85.719.415.09-.131.243-.222.364-.323.142-.111.243-.254.355-.396.263-.364.486-.758.84-1.042.263-.212.618-.384.648-.759.03-.375-.324-.668-.557-.922a22.872 22.872 0 0 0-1.843-1.73c-.323-.264-.647-.537-.992-.76-.334-.223-.668-.426-.952-.709-.141-.142-.334-.142-.506-.061-.314.151-.546.243-.729.557a2.591 2.591 0 0 1-.637.77 24.346 24.346 0 0 0-1.752 1.64c-.385.395.202.982.577.597Z"
  />
  <path
  fill="#fff"
  d="M31.135 29.172c.152-.253.385-.425.577-.637.203-.223.344-.486.527-.72.435-.576.962-1.082 1.407-1.65.395-.495.84-.921 1.316-1.336.466-.415.87-.88 1.296-1.326.415-.435 1.033-1.012 1.63-.547.547.436.385.982.02 1.468-.354.465-.769.891-1.133 1.357-.436.557-.861 1.113-1.327 1.63-.506.566-1.032 1.113-1.549 1.69-.516.577-1.114 1.064-1.67 1.59-.395.365.192.952.587.587.577-.546 1.194-1.053 1.721-1.64.547-.607 1.114-1.195 1.65-1.802.547-.628 1.033-1.306 1.56-1.944.404-.486.89-.941 1.164-1.508.577-1.205-.567-2.734-1.904-2.38-.688.182-1.204.76-1.66 1.276-.486.536-1.033 1.002-1.56 1.498-.657.628-1.204 1.387-1.801 2.076-.284.324-.507.658-.76.992-.243.335-.577.567-.8.932-.283.435.436.86.71.394Z"
  />
  <path
  fill="#fff"
  d="M32.867 27.23c-.06-.03-.04-.02 0 0 .01.01.03.02.04.03.041.02.082.05.112.07 0 0 .08.062.03.021-.05-.04.03.03.03.03.041.031.071.061.112.092.142.132.283.273.435.394.183.152.385.274.577.416.193.141.385.283.588.425.182.121.465.04.567-.152.111-.213.04-.435-.152-.567-.203-.132-.395-.283-.588-.425-.1-.071-.192-.142-.293-.213-.04-.03-.081-.06-.132-.09-.06-.041.04.04 0 0-.02-.021-.04-.032-.06-.052a16.974 16.974 0 0 1-.436-.395 2.464 2.464 0 0 0-.617-.394c-.203-.081-.466.091-.507.293-.05.243.081.425.294.517ZM30.639 11.94c-1.063.01-2.136.294-3.18.517-.93.202-1.801.718-2.52 1.356-.648.577-1.104 1.316-1.246 2.187-.152.911-.283 1.944.203 2.774.273.466.992.04.719-.415-.375-.648-.223-1.58-.091-2.278.141-.749.577-1.336 1.174-1.812.658-.527 1.387-.891 2.207-1.043.901-.172 1.802-.436 2.724-.446.536-.01.546-.84.01-.84Z"
  />
  <path
  fill="#fff"
  d="M24.676 20.647c.01-.891.344-1.772.81-2.531.182-.304.435-.527.709-.74.374-.283.759-.556 1.184-.748.203-.091.253-.396.152-.568-.121-.212-.364-.242-.567-.151-.465.202-.87.506-1.275.81-.365.273-.679.577-.922.972-.536.88-.911 1.913-.921 2.946-.01.547.82.546.83.01Z"
  />
  <path
  fill="#fff"
  d="M24.261 18.722c-.101.223-.162.445-.243.668-.09.243-.192.466-.273.719a9.98 9.98 0 0 0-.355 1.54c-.08.495-.131.991-.242 1.487-.061.264-.071.527-.102.79-.02.254-.06.486-.01.749.111.526.911.304.8-.223-.04-.192.03-.424.04-.617.02-.233.061-.445.122-.668.06-.233.08-.456.091-.69.02-.242.081-.475.111-.718a9.9 9.9 0 0 1 .345-1.438c.06-.202.141-.394.222-.597.081-.192.122-.405.213-.587.223-.476-.496-.901-.719-.415Z"
  />
  <path
  fill="#fff"
  d="M21.73 24.17h.01c-.041 0-.071-.01-.112-.01.01 0 .02.01.04.01.04.01-.1-.05-.04-.02.03.02.05.03.081.05.01.01.06.05.01 0-.06-.05 0 0 .01.01.03.02.05.041.081.071.112.102.223.193.345.294.273.223.556.436.779.709.101-.233.192-.476.294-.709h-.02c.04 0 .07.01.11.01-.02 0-.04-.01-.06-.02-.08-.03.05.03.03.01-.04-.02-.08-.05-.121-.071.101.06.05.04.02.02a.265.265 0 0 0-.06-.05l-.102-.102c-.03-.04-.06-.07-.091-.11-.07-.081.04.06 0 0a.18.18 0 0 0-.04-.052l-.152-.212c-.071-.091-.132-.162-.253-.192a.45.45 0 0 0-.325.04c-.172.112-.283.385-.151.567.141.192.273.395.445.567.091.102.193.192.304.263.142.091.283.132.445.153.061.01.152-.021.213-.062a.476.476 0 0 0 .172-.202c.071-.162.02-.325-.08-.456-.244-.294-.558-.516-.841-.76-.122-.1-.233-.201-.345-.292-.08-.06-.151-.132-.242-.183a.86.86 0 0 0-.345-.11.405.405 0 0 0-.293.12.451.451 0 0 0-.122.293c0 .112.04.223.122.294.08.081.172.111.283.132Z"
  />
  <path
  fill="#fff"
  d="M22.843 25.009c0 .942-.051 1.873-.04 2.815 0 .465.01.921.03 1.387.02.395.01.89.202 1.235.253.476.972.05.719-.415-.06-.122-.05-.354-.06-.486-.021-.192-.021-.385-.031-.587-.01-.446-.02-.891-.02-1.337 0-.87.04-1.741.04-2.612-.01-.537-.84-.537-.84 0Z"
  />
  <path
  fill="#fff"
  d="M24.26 19.451c-.01.354-.212.698-.304 1.042-.121.426-.212.851-.293 1.287-.172.88-.324 1.771-.435 2.662-.233 1.904-.091 3.797-.091 5.7 0 .537.83.537.83 0 0-1.903-.152-3.806.09-5.7a33.6 33.6 0 0 1 .487-2.825c.08-.405.172-.81.303-1.205.112-.324.243-.607.243-.951.01-.547-.82-.546-.83-.01ZM29.101 27.805c-.465.496-.992.911-1.458 1.407-.233.243-.455.497-.688.75-.243.253-.506.465-.75.718l.588.588c.415-.527.89-.993 1.326-1.5.233-.262.476-.515.73-.768.242-.233.465-.466.769-.618.202-.102.263-.385.151-.567-.121-.202-.364-.253-.566-.152-.335.172-.608.436-.871.699-.264.253-.517.516-.75.779-.232.263-.445.516-.698.76a8.226 8.226 0 0 0-.668.78c-.142.171-.172.415 0 .587a.416.416 0 0 0 .587 0c.233-.243.496-.456.729-.7.243-.252.466-.516.709-.759.465-.486 1.002-.91 1.458-1.407a.425.425 0 0 0 0-.587c-.162-.172-.446-.182-.598-.01ZM33.05 31.532c-.02.02-.03.05-.05.07-.01.021-.062.082-.011.01-.03.041-.07.082-.101.122-.071.081-.152.163-.233.244a20.51 20.51 0 0 0-.486.465c-.354.365-.719.719-1.053 1.104-.142.162-.172.425 0 .587.152.142.435.172.587 0 .344-.395.709-.76 1.073-1.134.335-.344.71-.648.982-1.053.122-.182.041-.466-.151-.568a.427.427 0 0 0-.557.153Z"
  />
  <path
  fill="#fff"
  d="M30.164 29.385c.476.304.88.718 1.306 1.113.476.446.941.912 1.407 1.358a.425.425 0 0 0 .587 0c.152-.152.162-.436 0-.588-.486-.465-.962-.941-1.447-1.397-.456-.425-.902-.88-1.438-1.215-.193-.121-.456-.04-.567.152a.447.447 0 0 0 .152.577ZM35.924 22.645c-.1.152-.233.263-.364.384a9.229 9.229 0 0 0-.446.446c-.314.314-.617.628-.91.962a17.61 17.61 0 0 0-1.631 2.147c-.294.445.425.87.719.425a16.76 16.76 0 0 1 1.6-2.086c.293-.324.597-.618.89-.931.294-.304.638-.568.861-.922.294-.456-.425-.87-.719-.425Z"
  />
</svg>
