<svg
  xmlns="http://www.w3.org/2000/svg"
  viewBox="0 0 52 52"
  fill="none"
  class="w-12 h-12 md:w-16 md:h-16">
    <path
  fill="#047857"
  d="M26 51.999c14.36 0 26-11.641 26-26 0-14.36-11.64-26-26-26s-26 11.64-26 26c0 14.359 11.64 26 26 26Z"
  />
  <path
  fill="#fff"
  d="M19.055 9.965V13.5c0 .385.597.385.597 0V9.965c0-.384-.597-.384-.597 0ZM20.361 9.39v18.314c0 .385.598.385.598 0V9.39c0-.385-.598-.385-.598 0ZM21.404 10.006v3.97c0 .384.598.384.598 0v-.699c0-.385-.598-.385-.598 0v.698c0 .385.598.385.598 0v-3.969c0-.384-.598-.384-.598 0Z"
  />
  <path
  fill="#fff"
  d="M20.3 15.464c-.404-.83-.991-1.995-2.054-2.065-.85-.061-1.266.799-1.205 1.538.07.931.8 1.67 1.458 2.268.314.284.638.557.951.85.233.213.84.659.83 1.013.122-.091.254-.193.375-.284-.273-.04-.648-.79-.8-1.012-.212-.314-.455-.608-.84-.72-.678-.192-1.529.204-1.782.872-.354.911.162 1.944.689 2.663.678.931 1.68 1.559 2.348 2.48.152-.121.314-.243.466-.364-.719-.588-1.033-1.499-2.035-1.701-.729-.142-1.58-.132-1.762.729-.172.8.091 1.7.588 2.318.78.952 1.852 1.185 2.895 1.731.334.183.638-.334.304-.516-.729-.384-1.58-.567-2.227-1.093-.588-.486-.962-1.063-1.003-1.832-.02-.365-.03-.73.395-.8.274-.05.668.02.922.11.658.243.971 1.053 1.498 1.479.243.192.678-.06.466-.364-.952-1.316-3.028-2.329-3.058-4.172-.01-.455.192-.81.628-.952.546-.172.8.172 1.073.557.253.364.577 1.074 1.063 1.145.192.03.364-.071.375-.284.02-.537-.557-1.012-.912-1.347-.475-.445-.982-.85-1.447-1.316-.456-.465-1.367-1.59-.689-2.268.78-.77 1.721 1.134 1.964 1.63.183.355.699.051.527-.293Z"
  />
  <path
  fill="#fff"
  d="M21.111 15.724c.071-.85.932-1.509 1.711-1.701 1.013-.263.912.941.588 1.529-.405.708-.952 1.316-1.377 2.015-.324.536-.72 1.498-1.276 1.832.142.111.293.223.435.334.132-.689.638-1.63 1.286-1.985.354-.192.74.142.972.416.243.283.203.728.111 1.082-.212.78-.91 1.317-1.407 1.904-.476.557-.85 1.174-1.286 1.762.183.08.365.152.547.233.111-.476.253-1.124.587-1.509.314-.354.81-.253 1.165-.01.354.243.455.608.374 1.013-.111.577-.516 1.113-.921 1.528-.567.577-1.205.85-1.873 1.266-.324.202-.03.718.303.516.507-.304 1.033-.506 1.489-.89.354-.294.678-.618.952-.983.465-.637.921-1.549.536-2.328-.354-.729-1.377-1.175-2.116-.79-.658.344-.911 1.367-1.073 2.035-.081.344.344.496.547.233.384-.516.719-1.063 1.123-1.56.355-.424.77-.8 1.104-1.255.476-.628.922-1.71.436-2.46-.355-.526-1.094-1.053-1.732-.77-.84.375-1.529 1.54-1.69 2.41-.041.243.202.476.435.334.374-.223.597-.628.83-.982.364-.547.668-1.123 1.053-1.66.607-.86 1.417-1.691 1.286-2.815-.112-.972-.962-1.236-1.802-.912-.962.365-1.803 1.125-1.894 2.198-.05.355.547.354.577-.03ZM26.8 9.67v3.534c0 .385.598.385.598 0V9.67c-.01-.384-.597-.384-.597 0ZM28.107 9.096v18.315c0 .385.598.385.598 0V9.096c-.01-.385-.598-.385-.598 0ZM29.14 9.704v3.968c0 .385.598.385.598 0v-.697c0-.385-.597-.385-.597 0v.697c0 .385.597.385.597 0V9.704c0-.375-.597-.375-.597 0Z"
  />
  <path
  fill="#fff"
  d="M28.047 15.161c-.405-.83-.992-1.994-2.056-2.065-.85-.06-1.265.8-1.204 1.54.07.93.8 1.67 1.458 2.267.313.284.638.557.951.85.233.213.84.659.83 1.013.122-.091.254-.192.375-.284-.273-.04-.648-.79-.8-1.012-.212-.314-.455-.607-.84-.719-.678-.192-1.529.203-1.782.871-.354.911.162 1.944.689 2.663.678.931 1.68 1.56 2.348 2.48.152-.121.314-.243.466-.364-.719-.587-1.032-1.498-2.035-1.7-.729-.143-1.58-.133-1.761.728-.173.8.09 1.7.587 2.318.78.952 1.852 1.185 2.895 1.732.335.182.638-.334.304-.517-.729-.384-1.58-.567-2.227-1.093-.588-.486-.962-1.064-1.003-1.833-.02-.365-.03-.73.395-.8.274-.05.668.02.922.112.658.243.971 1.053 1.498 1.478.243.192.678-.061.466-.365-.952-1.316-3.027-2.328-3.058-4.17-.01-.456.192-.81.628-.953.547-.172.8.172 1.073.567.253.364.577 1.074 1.063 1.145.193.03.365-.071.375-.284.02-.536-.557-1.012-.912-1.346-.475-.446-.982-.85-1.447-1.317-.456-.465-1.377-1.59-.699-2.268.78-.77 1.721 1.135 1.964 1.63.193.345.699.04.537-.304Z"
  />
  <path
  fill="#fff"
  d="M28.858 15.432c.07-.85.931-1.508 1.71-1.7 1.013-.264.912.94.588 1.528-.405.709-.952 1.316-1.377 2.015-.324.536-.719 1.498-1.276 1.832.142.111.294.223.436.334.131-.688.637-1.63 1.285-1.984.355-.193.74.142.972.415.243.284.203.728.112 1.083-.213.78-.911 1.317-1.407 1.904-.476.557-.851 1.174-1.286 1.76.182.082.364.153.546.234.112-.476.253-1.124.588-1.509.313-.354.81-.253 1.164-.01.354.244.456.608.375 1.013-.112.577-.517 1.113-.922 1.528-.567.578-1.205.851-1.873 1.266-.324.203-.03.719.304.516.506-.303 1.033-.506 1.488-.89.355-.294.678-.618.952-.982.466-.638.921-1.55.537-2.329-.355-.729-1.378-1.175-2.117-.79-.658.344-.91 1.367-1.073 2.035-.08.344.345.497.547.233.385-.516.719-1.063 1.124-1.559.354-.425.77-.8 1.103-1.256.476-.627.922-1.71.436-2.46-.355-.526-1.094-1.053-1.732-.77-.84.375-1.528 1.54-1.69 2.41-.04.244.202.476.435.334.375-.223.597-.627.83-.982.365-.547.668-1.123 1.053-1.66.608-.86 1.418-1.691 1.286-2.815-.111-.972-.962-1.235-1.802-.91-.962.364-1.802 1.123-1.894 2.197-.05.344.537.343.578-.031ZM34.828 9.52v3.533c0 .384.597.384.597 0V9.52c0-.385-.597-.385-.597 0ZM36.135 8.944v18.315c0 .385.597.385.597 0V8.944c0-.385-.597-.385-.597 0ZM37.178 9.561v3.969c0 .385.597.385.597 0v-.7c0-.384-.597-.384-.597 0v.7c0 .385.597.385.597 0V9.56c0-.385-.597-.385-.597 0Z"
  />
  <path
  fill="#fff"
  d="M36.074 15.015c-.405-.83-.992-1.995-2.055-2.066-.85-.06-1.265.8-1.205 1.54.071.931.8 1.67 1.458 2.267.314.283.638.557.952.84.233.213.84.658.83 1.013l.375-.283c-.274-.04-.648-.79-.8-1.012-.223-.314-.456-.609-.84-.72-.679-.193-1.53.203-1.782.87-.355.902.162 1.945.688 2.664.678.93 1.68 1.559 2.349 2.48.152-.121.314-.243.466-.365-.72-.587-1.033-1.498-2.035-1.7-.73-.142-1.58-.132-1.762.728-.172.79.091 1.701.587 2.319.78.952 1.853 1.184 2.896 1.731.334.182.638-.334.303-.516-.729-.385-1.579-.567-2.227-1.093-.587-.486-.962-1.063-1.002-1.832-.02-.365-.03-.73.395-.8.273-.051.668.02.921.11.658.243.972 1.053 1.498 1.479.243.192.679-.06.466-.364-.952-1.317-3.027-2.33-3.057-4.172-.01-.455.192-.81.627-.952.547-.172.8.173 1.074.558.253.364.576 1.073 1.063 1.144.192.03.364-.072.374-.284.02-.537-.557-1.013-.911-1.347-.476-.445-.982-.85-1.448-1.316-.456-.466-1.377-1.59-.688-2.268.78-.77 1.72 1.134 1.964 1.63.182.355.698.061.526-.283Z"
  />
  <path
  fill="#fff"
  d="M36.884 15.28c.07-.851.931-1.51 1.71-1.701 1.013-.264.912.951.588 1.528-.405.709-.952 1.317-1.377 2.015-.324.527-.719 1.498-1.276 1.832.142.112.294.223.436.334.131-.688.638-1.63 1.286-1.984.354-.192.739.142.972.415.243.284.202.73.111 1.084-.213.78-.911 1.316-1.407 1.903-.476.557-.85 1.175-1.286 1.762.182.081.364.151.547.233.11-.476.253-1.124.587-1.498.314-.355.81-.254 1.164-.011.354.243.456.607.375 1.012-.112.577-.517 1.115-.912 1.53-.566.577-1.204.85-1.873 1.265-.324.203-.03.709.304.516.506-.303 1.033-.506 1.489-.89.354-.294.678-.618.951-.982.466-.638.921-1.55.537-2.33-.355-.729-1.377-1.173-2.116-.789-.658.345-.912 1.367-1.074 2.035-.08.344.345.496.547.232.385-.516.72-1.063 1.124-1.559.354-.425.77-.809 1.104-1.254.476-.628.921-1.712.435-2.461-.344-.527-1.093-1.053-1.731-.77-.84.375-1.53 1.55-1.691 2.41-.04.243.203.476.435.334.375-.223.598-.627.83-.982.365-.546.669-1.124 1.053-1.66.608-.861 1.418-1.69 1.286-2.815-.111-.972-.962-1.235-1.802-.911-.962.364-1.802 1.123-1.893 2.197-.06.344.536.334.567-.04Z"
  />
  <path
    fill="#fff"
    stroke="#fff"
    stroke-miterlimit="10"
    stroke-width="0.147"
    d="M22.457 28.632h18.6v1.083s-9.68.638-9.335 10.61h-6.43s-.131-8.19 6.46-9.931c0 0-7.37.485-8.292 9.931h-6.277s-.091-7.269 7.137-9.931c0 0-8.494 1.407-8.626 9.931H9.285s-.182-8.534 9.68-11.156l3.492-.537Z"
  />
</svg>
