<svg
  xmlns="http://www.w3.org/2000/svg"
  viewBox="0 0 52 52"
  fill="none"
  class="w-12 h-12 md:w-16 md:h-16"
  >
  <path
  fill="#047857"
  d="M26 51.999c14.36 0 26-11.641 26-26 0-14.36-11.64-26-26-26s-26 11.64-26 26c0 14.359 11.64 26 26 26Z"
  />
  <path
  fill="#fff"
  d="M20.027 21.959c-.536-.203-1.73-.385-2.278-.678h-1.215c.993-.82 2.127-.983 3.412-.487.669.111 1.246-.517.891-1.165-.9-1.67-2.227-2.409-3.827-3.3a11.8 11.8 0 0 0-1.184-.435c-1.914-.972-1.873-1.296.121-.982 2.704-.486 5.225 1.66 7.108 3.23.506.414 1.367.172 1.356-.557 0 .08.405-5.68.78-5.812 1.974-.678 1.812 5.032 1.832 5.559a.802.802 0 0 0 1.357.556c1.67-1.508 2.916-2.814 5.225-3.21 1.002-.171.577-1.7-.426-1.528-2.713.466-4.009 1.894-5.923 3.625.456.182.901.374 1.357.557-.07-1.58-.131-8.444-3.25-8.16-2.602.232-2.551 6.934-2.531 8.413.456-.183.901-.375 1.357-.557-3.038-2.531-7.553-5.204-11.633-3.321-.243.111-.405.425-.395.688.141 3.564 5.72 3.079 7.32 6.045l.89-1.165c-1.68-.283-5.588-.86-6.094 1.57-.598 2.875 3.837 2.065 5.335 2.652.952.355 1.357-1.174.416-1.538Z"
  />
  <path
  fill="#fff"
  d="M33.089 14.731c1.427-.172 3.715-.547 4.809.678-.04-.324-.081-.637-.122-.96-.719 1.174-2.865 1.538-4.07 2.125a17.26 17.26 0 0 0-3.513 2.309c-.942.78-3.341 2.622-2.845 4.14.132.396.557.699.972.557 2.217-.739 3.027-4.728 5.842-3.087 1.67.971-.425.748-1.306.91-1.458.274-2.866.83-4.273 1.286-.972.314-.557 1.843.426 1.529 1.204-.385 2.41-.84 3.634-1.144.972-.233 2.025-.152 2.987-.385 1.296-.323 1.66-1.438.83-2.47-.952-1.195-3.138-2.248-4.647-1.732-1.812.618-2.227 3.018-3.918 3.575.324.182.648.374.972.556-.152-.465 1.62-1.893 1.984-2.207 1.033-.9 2.126-1.67 3.351-2.288 1.57-.8 3.96-1.245 4.951-2.855.193-.314.112-.699-.121-.962-1.428-1.61-4.03-1.367-5.923-1.144-1.023.101-1.033 1.69-.02 1.57Z"
  />
  <path
  fill="#fff"
  d="M26.558 16.028c0 1.276.111 2.612-.132 3.857-.212 1.053-.597 2.066-.87 3.099-.264.992 1.265 1.407 1.529.425.313-1.195.759-2.339.961-3.564.203-1.255.102-2.551.102-3.817 0-1.013-1.59-1.013-1.59 0Z"
  />
  <path
  fill="#fff"
  d="M22.792 18.315c.243.921.304 1.852.445 2.784.122.82.406 1.56.72 2.308.394.942 1.761.132 1.366-.8-.648-1.518-.587-3.138-1.002-4.717-.263-.983-1.792-.568-1.529.425Z"
  />
  <path
  fill="#fff"
  d="M19.167 19.965c.598.587 1.195 1.174 1.792 1.771.355.355 1.013.872 1.154 1.368.284.982 1.813.567 1.53-.425-.183-.658-.78-1.276-1.246-1.752-.689-.71-1.407-1.397-2.106-2.086-.74-.718-1.853.405-1.124 1.124Z"
  />
  <path
  fill="#fff"
  d="M16.9 24.631c3.33-.445 6.58-.414 9.932-.435 1.549-.01 3.108-.02 4.657.06.86.041 1.55-.141 1.823.557.04.102-.264 1.57-.162 1.408-.86 1.306-3.696.689-5.012.72-1.833.04-3.675.11-5.508.11-1.022 0-3.898.445-4.566-.334-.344-.395-.456-2.48-.587-3.098-.213-1.002-1.742-.577-1.529.425.273 1.296.04 3.726 1.296 4.506.678.425 2.268.08 2.987.08 1.832 0 3.665.01 5.487-.04 1.742-.04 3.483-.07 5.235-.08.658 0 2.379.181 3.027-.285 1.073-.78 1.063-3.3.982-4.424-.02-.263-.132-.567-.395-.688-2.075-.952-5.001-.526-7.219-.516-3.523.01-6.955-.031-10.458.444-.993.142-1.003 1.732.01 1.59Z"
  />
  <path
  fill="#fff"
  d="M17.537 28.36c-.263 1.346.334 2.612.436 3.959.1 1.346.172 2.693.394 4.03.162 1.002 1.691.577 1.53-.425-.193-1.195-.254-2.41-.335-3.615-.07-1.084-.699-2.491-.496-3.534.192-.982-1.336-1.418-1.529-.415ZM31.782 28.863c.01 1.417.102 2.835-.121 4.233-.172 1.103-.415 2.145-.385 3.28.03 1.052 1.68 1.062 1.64 0-.04-1.216.284-2.36.436-3.564.162-1.316.08-2.633.07-3.95-.01-1.062-1.65-1.062-1.64 0Z"
  />
  <path
  fill="#fff"
  d="M13.103 37.816c8.029.04 16.827 1.173 24.775.14 1.002-.13 1.012-1.72 0-1.589-7.948 1.033-16.746-.1-24.775-.141-1.023 0-1.023 1.59 0 1.59Z"
  />
  <path
  fill="#fff"
  d="M34.05 37.472c-.344 2.612-6.48 1.65-8.525 1.68-2.38.031-7.522.973-8.474-1.812-.334-.961-1.863-.546-1.529.425.486 1.408.79 2.481 2.309 2.866 2.602.658 6.246.152 8.92.09 3.796-.09 8.26 1.42 8.889-3.238.131-1.013-1.458-1.003-1.59-.011Z"
  />
</svg>
