<svg width="44" height="44" viewBox="0 0 44 44" fill="none" xmlns="http://www.w3.org/2000/svg">
<path fill-rule="evenodd" clip-rule="evenodd" d="M8.79985 6.09985C8.21638 6.09985 7.6568 6.33164 7.24422 6.74422C6.83164 7.1568 6.59985 7.71638 6.59985 8.29985V17.6499C6.59985 21.5883 8.1644 25.3655 10.9493 28.1504C13.7342 30.9353 17.5114 32.4999 21.4499 32.4999V36.7499C21.4499 37.1875 21.6237 37.6071 21.9331 37.9166C22.2426 38.226 22.6622 38.3999 23.0999 38.3999C23.5375 38.3999 23.9571 38.226 24.2666 37.9166C24.576 37.6071 24.7499 37.1875 24.7499 36.7499V32.4053C28.2333 32.0001 31.4464 30.3293 33.7787 27.7103C36.1109 25.0913 37.3996 21.7068 37.3999 18.1999V14.8559C37.3999 14.284 37.1727 13.7357 36.7684 13.3313C36.364 12.927 35.8157 12.6999 35.2439 12.6999C30.8659 12.6999 26.9675 14.7371 24.4419 17.9161C23.7439 14.5758 21.9172 11.5778 19.2689 9.42587C16.6206 7.27397 13.3122 6.09948 9.89985 6.09985H8.79985ZM26.4769 28.6719C28.6916 27.9567 30.6226 26.5578 31.9923 24.6762C33.362 22.7946 34.0998 20.5272 34.0999 18.1999V16.0615C31.7063 16.3248 29.476 17.4031 27.7829 19.1154C26.0898 20.8277 25.0368 23.07 24.8005 25.4665L27.8519 21.5813C27.985 21.409 28.1509 21.2648 28.34 21.1569C28.5291 21.0491 28.7377 20.9797 28.9538 20.9528C29.1698 20.926 29.389 20.9421 29.5988 21.0004C29.8086 21.0586 30.0048 21.1578 30.176 21.2922C30.3473 21.4266 30.4903 21.5936 30.5967 21.7835C30.7032 21.9734 30.771 22.1825 30.7963 22.3987C30.8215 22.615 30.8038 22.8341 30.744 23.0434C30.6842 23.2527 30.5835 23.4482 30.4479 23.6185L26.4769 28.6719ZM13.4859 19.1283L20.3147 29.1449C17.4617 28.8631 14.8154 27.5303 12.8905 25.4058C10.9656 23.2812 9.89962 20.5167 9.89985 17.6499V9.39985C16.2799 9.39985 21.4499 14.5699 21.4499 20.9499V24.9517L16.2139 17.2693C16.0918 17.0901 15.9356 16.9368 15.7543 16.818C15.573 16.6993 15.3701 16.6174 15.1571 16.577C14.9441 16.5367 14.7253 16.5387 14.5131 16.5829C14.3009 16.6271 14.0995 16.7127 13.9204 16.8348C13.7412 16.9568 13.5879 17.113 13.4691 17.2943C13.3504 17.4756 13.2685 17.6785 13.2281 17.8915C13.1878 18.1045 13.1898 18.3233 13.234 18.5355C13.2782 18.7477 13.3638 18.9491 13.4859 19.1283Z" fill="#079669"/>
</svg>
