<svg width="44" height="44" viewBox="0 0 44 44" fill="none" xmlns="http://www.w3.org/2000/svg">
<path fill-rule="evenodd" clip-rule="evenodd" d="M18.6316 12.7268C16.5064 10.4234 13.1206 10.4234 10.9976 12.7268C8.802 15.105 8.802 19.0122 10.9976 21.3926L21.9998 33.3166L33.0042 21.3926C35.1976 19.0122 35.1976 15.105 33.0042 12.7268C30.879 10.4234 27.4932 10.4234 25.3702 12.7268L23.2142 15.0632C23.0597 15.2309 22.8721 15.3647 22.6633 15.4562C22.4544 15.5478 22.2289 15.595 22.0009 15.595C21.7729 15.595 21.5474 15.5478 21.3385 15.4562C21.1297 15.3647 20.9421 15.2309 20.7876 15.0632L18.6316 12.7268ZM8.571 10.4894C12.003 6.77143 17.624 6.77143 21.056 10.4894L21.9998 11.5102L22.9436 10.4894C26.3756 6.77143 31.9966 6.77143 35.4286 10.4894C38.7902 14.1326 38.7902 19.9868 35.4286 23.63L24.0216 35.994C23.7641 36.2733 23.4515 36.4963 23.1035 36.6487C22.7555 36.8012 22.3797 36.8799 21.9998 36.8799C21.6199 36.8799 21.2441 36.8012 20.8961 36.6487C20.5481 36.4963 20.2355 36.2733 19.978 35.994L8.571 23.63C5.2094 19.9868 5.2094 14.1326 8.571 10.4894Z" fill="#079669"/>
</svg>
