<svg width="44" height="44" viewBox="0 0 44 44" fill="none" xmlns="http://www.w3.org/2000/svg">
<path d="M18.6862 20.1022C18.3768 19.8108 17.9675 19.6521 17.5447 19.6596C17.1218 19.6672 16.7184 19.8403 16.4193 20.1427C16.1203 20.445 15.949 20.8528 15.9415 21.2803C15.9341 21.7077 16.091 22.1214 16.3793 22.4342L19.7482 25.8398C20.0542 26.1488 20.4691 26.3224 20.9016 26.3224C21.3341 26.3224 21.749 26.1488 22.055 25.8398L28.5032 19.3234C28.7915 19.0106 28.9485 18.5969 28.941 18.1695C28.9336 17.742 28.7623 17.3342 28.4632 17.0319C28.1642 16.7296 27.7607 16.5564 27.3379 16.5488C26.915 16.5413 26.5058 16.7 26.1964 16.9914L20.9016 22.3396L18.6862 20.1022Z" fill="#079669"/>
<path fill-rule="evenodd" clip-rule="evenodd" d="M24.4047 6.41066C23.7222 5.86477 22.8741 5.56738 22.0001 5.56738C21.1261 5.56738 20.2781 5.86477 19.5955 6.41066L18.8981 6.96726C16.7282 8.70388 13.8508 10.1641 11.3207 11.3145L9.45733 12.1593C8.77171 12.4662 8.19366 12.9713 7.79765 13.6097C7.40164 14.248 7.20579 14.9902 7.23533 15.7409C7.85133 29.4909 17.3713 35.6465 20.3457 37.3053C21.3797 37.8817 22.6205 37.8817 23.6523 37.3053C26.6267 35.6487 36.1511 29.4953 36.7671 15.7827C36.7959 15.0358 36.6016 14.2974 36.209 13.6615C35.8164 13.0255 35.2433 12.5209 34.5627 12.2121L32.5827 11.2969C30.119 10.1599 27.3024 8.72824 25.1835 7.03326L24.4047 6.41066ZM21.6547 8.98686C21.7524 8.90848 21.8738 8.86576 21.999 8.86576C22.1242 8.86576 22.2457 8.90848 22.3433 8.98686L23.1221 9.60946C25.4497 11.4715 28.4947 13.0443 31.2011 14.2933L33.1811 15.2063C33.2659 15.2416 33.3385 15.3012 33.3897 15.3774C33.441 15.4537 33.4686 15.5434 33.4693 15.6353C32.9281 27.7111 24.5499 33.0285 22.0463 34.4233C22.033 34.4313 22.0179 34.4358 22.0023 34.4365C21.9913 34.4365 21.9759 34.4365 21.9539 34.4233C19.4547 33.0285 11.0743 27.7067 10.5309 15.5913C10.5243 15.4461 10.6123 15.2613 10.8235 15.1645L12.6847 14.3175C15.4641 13.0543 18.5757 11.4507 20.9595 9.54346L21.6547 8.98686Z" fill="#079669"/>
</svg>
